<?xml version="1.0" encoding="utf-8"?>
<!-- Generator: Adobe Illustrator 17.1.0, SVG Export Plug-In . SVG Version: 6.00 Build 0)  -->
<!DOCTYPE svg PUBLIC "-//W3C//DTD SVG 1.1//EN" "http://www.w3.org/Graphics/SVG/1.1/DTD/svg11.dtd">
<svg version="1.1" id="Layer_1" xmlns="http://www.w3.org/2000/svg" xmlns:xlink="http://www.w3.org/1999/xlink" x="0px" y="0px"
	 viewBox="0 0 100 100" enable-background="new 0 0 100 100" xml:space="preserve">
<g>
	<g>
		<path fill="#FFFFFF" d="M0,64.7h3.1c2.6,0,4.4,1.8,4.4,4.1v0c0,2.3-1.8,4.2-4.4,4.2H0V64.7z M3.1,71.7c1.8,0,2.9-1.2,2.9-2.8v0
			C6,67.2,4.9,66,3.1,66H1.5v5.7H3.1z"/>
		<path fill="#FFFFFF" d="M9.3,64.7H13c1,0,1.9,0.3,2.4,0.8c0.4,0.5,0.7,1.1,0.7,1.8v0c0,1.4-0.8,2.2-2,2.5l2.3,3.2h-1.7l-2-2.9
			h-1.8V73H9.3V64.7z M12.9,68.8c1,0,1.7-0.5,1.7-1.4v0c0-0.9-0.6-1.4-1.7-1.4h-2.1v2.8H12.9z"/>
		<path fill="#FFFFFF" d="M17.1,64.7h1.6l2,6.2l2-6.2H24l2,6.2l2-6.2h1.5l-2.9,8.4h-1.3l-2-6l-2,6H20L17.1,64.7z"/>
		<path fill="#FFFFFF" d="M34.1,71.8l0.9-1c0.8,0.7,1.6,1.1,2.6,1.1c0.9,0,1.5-0.4,1.5-1v0c0-0.6-0.3-0.9-1.9-1.3
			c-1.8-0.4-2.8-1-2.8-2.5v0c0-1.4,1.2-2.4,2.8-2.4c1.2,0,2.2,0.4,3,1l-0.8,1.1c-0.7-0.6-1.5-0.9-2.3-0.9c-0.9,0-1.4,0.4-1.4,1v0
			c0,0.6,0.4,0.9,2,1.3c1.8,0.4,2.7,1.1,2.7,2.4v0c0,1.6-1.2,2.5-3,2.5C36.3,73.2,35.1,72.7,34.1,71.8z"/>
		<path fill="#FFFFFF" d="M41.9,68.9L41.9,68.9c0-2.4,1.8-4.3,4.3-4.3c1.5,0,2.5,0.5,3.3,1.3l-0.9,1.1c-0.7-0.6-1.4-1-2.3-1
			c-1.6,0-2.7,1.3-2.7,2.9v0c0,1.6,1.2,3,2.7,3c1,0,1.7-0.4,2.4-1.1l0.9,1c-0.9,0.9-1.8,1.5-3.4,1.5C43.7,73.2,41.9,71.3,41.9,68.9z
			"/>
		<path fill="#FFFFFF" d="M51,64.7h1.5v3.5h4v-3.5h1.5V73h-1.5v-3.5h-4V73H51V64.7z"/>
		<path fill="#FFFFFF" d="M60.1,64.7h6.2V66h-4.7v2.2h4.2v1.3h-4.2v2.2h4.8V73h-6.2V64.7z"/>
		<path fill="#FFFFFF" d="M68.1,64.7h3.1c2.6,0,4.4,1.8,4.4,4.1v0c0,2.3-1.8,4.2-4.4,4.2h-3.1V64.7z M71.2,71.7
			c1.8,0,2.9-1.2,2.9-2.8v0c0-1.6-1.1-2.8-2.9-2.8h-1.6v5.7H71.2z"/>
		<path fill="#FFFFFF" d="M77.2,69.5v-4.8h1.5v4.7c0,1.5,0.8,2.4,2.1,2.4c1.3,0,2.1-0.8,2.1-2.3v-4.8h1.5v4.7c0,2.5-1.4,3.7-3.6,3.7
			C78.6,73.2,77.2,71.9,77.2,69.5z"/>
		<path fill="#FFFFFF" d="M86.4,64.7h1.5v7h4.4V73h-5.8V64.7z"/>
		<path fill="#FFFFFF" d="M93.8,64.7h6.2V66h-4.7v2.2h4.2v1.3h-4.2v2.2h4.8V73h-6.2V64.7z"/>
		<path fill="#FFFFFF" d="M25.3,84.3l2.5-2.2c1.1-1,1.4-1.5,1.4-2.2c0-0.8-0.6-1.3-1.4-1.3c-0.8,0-1.3,0.4-1.9,1.2l-0.6-0.4
			c0.6-0.9,1.3-1.5,2.5-1.5c1.2,0,2.2,0.8,2.2,2v0c0,1-0.5,1.6-1.8,2.7l-1.9,1.6h3.7V85h-4.9V84.3z"/>
		<path fill="#FFFFFF" d="M31.4,81.5L31.4,81.5c0-2,1.2-3.6,2.9-3.6c1.8,0,2.9,1.6,2.9,3.6v0c0,1.9-1.2,3.6-2.9,3.6
			C32.6,85.1,31.4,83.4,31.4,81.5z M36.5,81.5L36.5,81.5c0-1.5-0.8-2.9-2.1-2.9c-1.3,0-2.1,1.3-2.1,2.9v0c0,1.5,0.8,2.9,2.1,2.9
			C35.7,84.4,36.5,83,36.5,81.5z"/>
		<path fill="#FFFFFF" d="M39.6,78.8l-1.3,0.4l-0.2-0.6l1.7-0.6h0.6v7h-0.8V78.8z"/>
		<path fill="#FFFFFF" d="M45.7,83.3H42l-0.2-0.6l3.9-4.8h0.7v4.7h1.1v0.7h-1.1V85h-0.8V83.3z M45.7,82.7v-3.6l-2.9,3.6H45.7z"/>
		<path fill="#FFFFFF" d="M48.7,81.6h2.8v0.8h-2.8V81.6z"/>
		<path fill="#FFFFFF" d="M52.6,84.3l2.5-2.2c1.1-1,1.4-1.5,1.4-2.2c0-0.8-0.6-1.3-1.4-1.3c-0.8,0-1.3,0.4-1.9,1.2l-0.6-0.4
			c0.6-0.9,1.3-1.5,2.5-1.5c1.2,0,2.2,0.8,2.2,2v0c0,1-0.5,1.6-1.8,2.7l-1.9,1.6h3.7V85h-4.9V84.3z"/>
		<path fill="#FFFFFF" d="M58.7,81.5L58.7,81.5c0-2,1.2-3.6,2.9-3.6c1.8,0,2.9,1.6,2.9,3.6v0c0,1.9-1.2,3.6-2.9,3.6
			C59.8,85.1,58.7,83.4,58.7,81.5z M63.7,81.5L63.7,81.5c0-1.5-0.8-2.9-2.1-2.9c-1.3,0-2.1,1.3-2.1,2.9v0c0,1.5,0.8,2.9,2.1,2.9
			C62.9,84.4,63.7,83,63.7,81.5z"/>
		<path fill="#FFFFFF" d="M66.9,78.8l-1.3,0.4l-0.2-0.6l1.7-0.6h0.6v7h-0.8V78.8z"/>
		<path fill="#FFFFFF" d="M69.2,84l0.5-0.6c0.6,0.6,1.3,1,2,1c1,0,1.7-0.7,1.7-1.5v0c0-0.9-0.7-1.5-1.7-1.5c-0.6,0-1.1,0.2-1.5,0.4
			l-0.5-0.3l0.2-3.4h4v0.7h-3.3L70.4,81c0.4-0.2,0.8-0.3,1.4-0.3c1.3,0,2.4,0.8,2.4,2.1v0c0,1.4-1,2.3-2.5,2.3
			C70.7,85.1,69.8,84.6,69.2,84z"/>
	</g>
	<g>
		<path fill="#FFFFFF" d="M77.3,26.6c-1.5,1.7-3.2,2.9-5.1,4c0,0,0,0.2,0,0.3c0.7,0,1.5,0,2.2,0.2c0.1,0,0.2,0.2,0.1,0.3
			c-1.9,2.2-4.4,3.4-7,4.4c0,0,0,0.1,0,0.2c0.1,0.1,0.8,0.6,1,0.9c0.1,0.1,0.1,0.1,0,0.2c-0.9,0.8-4.1,2.3-7.1,2.9
			c0.6,0.4,1.2,0.9,1.7,1.5c0.1,0.1,0,0.1,0,0.2c-2.3,1.2-4.8,1.2-7.4,1.2c-0.1,0-0.3,0.1-0.2,0.2c0.6,0.7,1.6,1.2,2,2
			c-1.7,0.7-3.8,0.6-5.6,0.6c-0.1,0-0.1,0.1-0.1,0.2c0.1,0.3,0.5,0.8,0.6,1c0.1,0.2-0.2,0.4-0.3,0.4c-0.8,0.3-1.6,0.3-2.3,0.2
			l-0.2,0c-2.3,5.8-7.9,9.9-14.4,9.9c-8.6,0-15.5-6.9-15.5-15.5c0-8.6,6.9-15.5,15.5-15.5c0.9,0,1.8,0.1,2.6,0.2l0-0.1
			c1.3-2.8,3.6-4.9,6.4-6.2c2.2-1,4.7-1.3,7.1-1.3c6.1,0,12.2,0.6,18.3-1.2c3.3-1,6.2-2.8,8.7-5.3c0,0,0.1,0,0.1,0.1
			c-0.8,4-3.3,6.9-6.7,9.1c-0.1,0.1-0.1,0.4,0.1,0.4c3.7-0.5,6.4-3.1,8.6-6.1c0,0,0.1,0,0.1,0.1c0,4.1-2.4,7.5-5.7,10.1
			c0,0-0.1,0.2,0.1,0.3c0.8,0.1,1.6,0,2.4,0C77.3,26.4,77.3,26.6,77.3,26.6 M77.3,25.9c-0.4,0-0.9,0-1.3,0c-0.1,0-0.2,0-0.2,0
			c2.5-2.1,5.1-5.5,5.1-9.9c0-0.2-0.2-0.5-0.4-0.5c-0.2-0.1-0.5,0-0.6,0.2c-1.7,2.3-3.9,4.7-6.8,5.6c3.1-2.3,5-5.2,5.7-8.6
			c0-0.2-0.1-0.5-0.3-0.6c-0.2-0.1-0.5-0.1-0.7,0.1c-2.4,2.5-5.2,4.2-8.5,5.2c-4.7,1.4-9.6,1.3-14.3,1.2c-1.2,0-2.5,0-3.8,0
			c-2.2,0-4.8,0.2-7.3,1.3c-2.9,1.4-5.2,3.6-6.5,6.1c-0.8-0.1-1.6-0.2-2.4-0.2c-8.8,0-16,7.2-16,16c0,8.8,7.2,16,16,16
			c3.3,0,6.4-1,9.1-2.9c2.5-1.8,4.5-4.2,5.7-7c0.7,0,1.6,0,2.4-0.3c0,0,0.4-0.2,0.5-0.5c0.1-0.2,0.1-0.4,0-0.5
			c-0.1-0.1-0.1-0.2-0.2-0.4c0,0,0-0.1-0.1-0.1c0.1,0,0.2,0,0.2,0c1.7,0,3.4,0,5-0.6c0.1-0.1,0.2-0.2,0.3-0.3c0-0.1,0-0.3,0-0.4
			c-0.3-0.5-0.7-0.8-1.2-1.2c-0.1-0.1-0.2-0.2-0.3-0.3c2.4,0,4.7-0.1,6.9-1.2c0.2-0.1,0.3-0.3,0.3-0.4c0-0.2,0-0.4-0.2-0.5
			c-0.3-0.3-0.6-0.6-1-0.9c2.6-0.7,5.4-1.9,6.3-2.8c0.2-0.2,0.3-0.6,0-0.9c-0.1-0.2-0.4-0.4-0.6-0.5c2.4-0.9,4.8-2.1,6.6-4.2
			c0.1-0.2,0.2-0.4,0.1-0.6c-0.1-0.2-0.3-0.4-0.5-0.5c-0.3-0.1-0.7-0.1-1-0.1c1.5-0.9,2.9-2,4.3-3.5c0.2-0.2,0.2-0.5,0.1-0.7
			C77.7,26,77.5,25.9,77.3,25.9z"/>
		<path fill="#FFFFFF" d="M74.4,23.3c-0.1,0-0.1,0.4-0.3,0.5c-0.3,0.1-0.7,0.1-1,0.2c-0.1,0-0.1,0.2-0.2,0.3c-0.2,0.1-0.4,0-0.6,0.1
			c-0.8,0.6-1.8,0.3-2.7,0.5c0,0.7-1.1,0.3-1.5,0.6c-0.5,0.3-0.4,0.2-1.1,0.2c-0.2,0-0.1,0.3-0.3,0.3c-0.6,0-1.3-0.2-1.7,0
			c-0.1,0-0.1,0.4-0.3,0.4c-0.3,0.1-0.6,0.1-0.9,0.2c-0.2,0.1,0.1,0.5-0.2,0.6c-0.5,0.2-1.1,0-1.6,0.3c-0.2,0.1-0.5,0-0.8,0.1
			c-0.2,0-0.3,0.3-0.1,0.4c0.2,0.1,0.5,0.1,0.6,0.2c0.4,0.2,0.7,0.5,1.1,0.5c1.8,0.1,3.6-0.2,5.4-0.7c2.4-0.6,4.4-1.5,6.4-2.9
			c2.1-1.6,4.1-3.2,5-5.8c0.1-0.3,0.2-0.7,0.3-1c0.1-0.2,0-0.2-0.1-0.1c-0.1,0.2-0.3,0.7-0.5,1C78,21.2,76.3,22.4,74.4,23.3"/>
		<path fill="#FFFFFF" d="M61.4,29.5c-0.3-0.3-0.7-0.4-1-0.5c-1.2-0.6-2.4-0.8-3.7-1c-0.5-0.1-1.1-0.1-1.7-0.1
			c-0.7,0-1.4,0.1-1.9,0.6c-0.1,0.1,0,0.3-0.2,0.3c-0.5,0.2-1-0.2-1.4,0.3c-0.3,0.3-0.9-0.1-1.3,0.2c-0.1,0.1,0,0.3,0.1,0.3
			c0.2,0.1,0.5,0.1,0.6,0.2c0.1,0.1,0.1,0.2,0.2,0.3c0.1,0.1,0.4,0.1,0.5,0.3c0.1,0.1,0.1,0.4,0.3,0.4c3.2,0.2,6.5,0.2,9.5-1
			C61.4,29.7,61.5,29.6,61.4,29.5"/>
		<path fill="#FFFFFF" d="M42.9,35c0,0.3,0,0.8,0,0.8c2.2,0.2,4.5-0.2,6.6-1.1c0,0,0-0.2,0-0.2c-0.7-0.7-1.6-0.9-2.6-1.2
			c-1.1-0.3-2.3-0.5-3.3,0c-0.1,0.1-0.2,0.4-0.4,0.6c-0.1,0.2,0.1,0.4,0,0.5C43.1,34.6,42.9,34.8,42.9,35"/>
		<path fill="#FFFFFF" d="M53.5,27.5c-0.2-0.7-1-0.8-1.6-1.1c-0.2-0.1-0.5-0.1-0.8,0c-0.6,0.2-1.3-0.2-1.9,0.3
			C49.1,26.8,49,27,48.8,27c-0.3,0.1-0.5,0.1-0.8,0.1c-0.1,0-0.3,0.1-0.3,0.2c0.1,0.5-0.4,0.6-0.8,0.7c-0.3,0.1-0.2,0.6-0.2,0.9
			C49.1,29,51.5,28.7,53.5,27.5"/>
		<path fill="#FFFFFF" d="M45.9,29.5c-0.1,0-0.2,0.2-0.3,0.3c-0.2,0.3-0.8,0.2-0.8,0.5c0,0.6-0.7,0.7-0.8,1.1
			c-0.1,0.3-0.3,0.6-0.3,0.9c2.4,0,4.8-0.1,6.9-1.3c0.3-0.1-0.3-0.4-0.6-0.5c-0.7-0.3-1.2-0.6-2-0.8C47.4,29.6,46.7,29.4,45.9,29.5"
			/>
		<path fill="#FFFFFF" d="M41.7,38.9c0.5,0.2,0.9,0.1,1.4,0c1.3-0.2,2.5-0.4,3.6-1.1c-0.5-0.5-1.1-0.7-1.8-1
			c-0.7-0.3-1.4-0.6-2.2-0.7C42.3,37,42,37.9,41.7,38.9"/>
		<path fill="#FFFFFF" d="M41.3,39.4c-0.3,0.1-0.6,0.5-0.3,0.7c1,0.8,2.4,0.9,3.7,1c2.2,0.2,4.7,0,6.3-1.7c0.1-0.1-0.4-0.4-0.7-0.5
			c-0.4-0.1-0.8-0.3-1.2-0.3c-0.6-0.1-1.1-0.4-1.5-0.2c-0.1,0.1-0.1,0.2-0.2,0.2c-0.1,0.1-0.5,0.1-0.6,0.1c-0.2,0.2-0.2,0.4-0.2,0.5
			c-0.5,0.1-1.2-0.2-1.7,0c-0.1,0.1-0.1,0.4-0.3,0.5c-0.4,0-0.8-0.2-1.1-0.1c-0.1,0-0.2,0-0.4,0.1c-0.2-0.1-0.3-0.1-0.5-0.2
			c-0.2,0-0.4,0.1-0.6,0C41.7,39.6,41.5,39.3,41.3,39.4"/>
		<path fill="#FFFFFF" d="M55,37c0.6-0.3,1.4-0.4,1.8-1c-0.8-0.5-1.6-0.6-2.4-0.9c-0.5-0.2-1-0.2-1.6-0.3c-0.6-0.1-1.2-0.1-1.8-0.1
			c-0.2,0-0.5,0-0.7,0.1c-0.1,0.1-0.2,0.3-0.3,0.3c-0.2,0.1-0.4,0.1-0.5,0.2c-0.1,0.1,0,0.3,0,0.4c-0.1,0.1-0.2,0.1-0.3,0.2
			c-0.1,0.1-0.3,0-0.5,0c-0.2,0.1-0.2,0.2-0.3,0.3c-0.4,0.2-0.9,0-1.2,0c-0.1,0-0.1,0.2-0.1,0.3c0.2,0.2,0.7,0.2,0.6,0.5
			c0,0.1-0.1,0.3-0.2,0.2c0.1,0.3,0.9,0.5,1.4,0.6c1.5,0.4,2.9,0,4.4-0.4C54,37.3,54.5,37.3,55,37"/>
		<path fill="#FFFFFF" d="M58.6,32.9c0.3-0.2,0.6-0.2,0.7-0.4c0.1-0.2-0.1-0.3-0.3-0.3c-1.1-0.3-2.2-0.7-3.4-0.8
			c-1.2-0.1-2.3,0.1-3.5,0.2c-0.5,0-0.9,0.1-1.3,0.2c-0.2,0.1-0.2,0.4-0.4,0.5c-0.4,0-0.8,0.1-1.2,0.1c-0.1,0-0.1,0.2-0.1,0.3
			c0.3,0.2,0.3,0.3,0.4,0.7c0,0,0.3,0,0.3,0.1c0.3,0.2,0.4,0.5,0.8,0.6c1.6,0.4,3.1,0.5,4.6,0.1c0.2,0,0.3-0.2,0.4-0.2
			c0.6-0.1,1.1-0.1,1.6-0.5C57.8,33.1,58.3,33.2,58.6,32.9"/>
		<path fill="#FFFFFF" d="M57.7,27.6c1.7-0.2,3.2-0.4,4.7-1.4c0.1-0.1,0-0.4-0.1-0.4c-0.4-0.1-0.7-0.2-1.1,0.1
			c-0.1,0.1-0.4-0.1-0.6,0c-0.1,0.1-0.3,0.3-0.4,0.4c-0.4,0.2-0.7-0.2-1.1-0.2c-0.1,0-0.1,0.3-0.2,0.3c-0.3,0.1-0.7-0.3-0.9-0.2
			c-0.3,0.2-0.6,0.4-0.9,0.3c-0.4-0.2-0.8-0.5-1.1-0.3c-0.4,0.4-0.9-0.2-1.3,0c-0.3,0.1-1.1,0.3-0.6,0.7
			C55.2,27.5,56.8,27.7,57.7,27.6"/>
		<path fill="#FFFFFF" d="M62.9,23.7c-2.1,0.1-4.1,0.1-6.2-0.1c-1.7-0.1-3.4-0.3-5.1-0.2c-2.2,0.1-4.2,0.8-6.1,1.8
			c-2.7,1.5-4.7,4.2-4.8,7.4c-0.1,1.4,0.2,2.6-0.1,4.1c-0.2,1.5-1,3-1.7,4.3c1.6-0.9,2.7-2.9,2.9-5.1c0.1-1.7,0.1-3.4,0.8-4.9
			c0.8-1.8,2-3.3,3.7-4.4c1.6-1,3.3-1.6,5.2-1.6c5,0,9.9,0.2,14.9-0.1c2.8-0.2,5.5-0.9,8-2.2c1.7-0.9,3.4-2,4.5-3.7
			c0.1-0.2,0.5-0.9,0.6-1.1c0.1-0.2,0-0.2-0.1,0c-0.1,0.2-0.5,0.7-0.6,0.8c-1.7,1.9-3.8,3.2-6.4,3.8c-2.9,0.7-5.7,0.9-8.6,1
			C63.4,23.7,63.1,23.7,62.9,23.7"/>
		<path fill="#FFFFFF" d="M41.8,46.9l-2.5-1.8L39,45.4c-0.2,0.2-0.4,0.4-0.7,0.6l2.7,1.8C41.4,47.4,41.6,47.1,41.8,46.9"/>
		<path fill="#FFFFFF" d="M38.2,49.5c0.9-0.3,1.7-0.8,2.4-1.4L38,46.4L38.2,49.5"/>
		<path fill="#FFFFFF" d="M37.8,43.5l0.1,2c0.4-0.3,0.5-0.5,0.8-0.8C38.4,44.4,38.1,43.9,37.8,43.5"/>
		<path fill="#FFFFFF" d="M37.8,39.7c0.2,0.2,0.3,0.4,0.4,0.7l0.3-0.7L37.8,39.7"/>
		<path fill="#FFFFFF" d="M39,38.6l-0.4-0.4c-0.4-0.4-0.9-0.7-1.4-1l-0.1,0.1l0.2,1.8c0.1,0.1,0.2,0.2,0.3,0.3l1.1-0.1L39,38.6"/>
		<path fill="#FFFFFF" d="M33.3,37.3l1.5,1.1c0.1,0,0.2,0,0.4,0l1.4-1.2l0-0.2c-0.4-0.1-0.9-0.2-1.3-0.2c-0.7,0-1.3,0.1-1.9,0.4
			L33.3,37.3"/>
		<path fill="#FFFFFF" d="M36.5,36.4l-0.3-3.2c-0.3,0-0.6-0.1-0.9-0.1c-0.7,0-1.3,0.1-1.9,0.2l0,3.2c0.6-0.2,1.2-0.4,1.9-0.4
			C35.6,36.2,36,36.3,36.5,36.4"/>
		<path fill="#FFFFFF" d="M35.2,46.4c0.8,0,1.5-0.2,2.1-0.5l-1.6-1.1l-1.3,1.5C34.6,46.4,34.9,46.4,35.2,46.4"/>
		<path fill="#FFFFFF" d="M36.9,41.6c0-1-0.8-1.7-1.7-1.7c-1,0-1.7,0.8-1.7,1.7c0,1,0.8,1.7,1.7,1.7C36.2,43.3,36.9,42.6,36.9,41.6"
			/>
		<path fill="#FFFFFF" d="M37.3,44c-0.3,0.3-0.7,0.5-1,0.6l1.1,0.7L37.3,44"/>
		<path fill="#FFFFFF" d="M39.7,34.4c-0.9-0.6-2-1-3.1-1.2l0.4,3.3c0.1,0,0.1,0,0.2,0.1L39.7,34.4"/>
		<path fill="#FFFFFF" d="M35.8,38.4c0.3,0.1,0.6,0.2,0.9,0.3l-0.1-1L35.8,38.4"/>
		<path fill="#FFFFFF" d="M33.2,39c0.3-0.2,0.5-0.3,0.8-0.5L33.3,38L33.2,39"/>
		<path fill="#FFFFFF" d="M31.8,45c0.5,0.5,1.1,0.9,1.8,1.1l-0.3-1.9c0,0,0,0,0,0l-2,0.1C31.4,44.6,31.6,44.8,31.8,45"/>
		<path fill="#FFFFFF" d="M32.8,43.7c-0.2-0.3-0.4-0.6-0.6-0.9l-0.7,1L32.8,43.7"/>
		<path fill="#FFFFFF" d="M32,41.4c0-0.4,0.1-0.7,0.3-1.1L31,40.5L32,41.4"/>
		<path fill="#FFFFFF" d="M31.8,38.2c-0.5,0.5-0.9,1.2-1.2,1.9l1.9-0.4c0.1-0.1,0.1-0.2,0.2-0.2l0-1.9l-0.1-0.1
			C32.3,37.7,32.1,37.9,31.8,38.2"/>
		<path fill="#FFFFFF" d="M30.4,41.6c0,0.8,0.2,1.5,0.5,2.2l1.1-1.6c0,0,0-0.1,0-0.1l-1.5-1.3C30.4,41,30.4,41.3,30.4,41.6"/>
		<path fill="#FFFFFF" d="M32.6,36.9c0,0,0.1,0,0.1-0.1l0-3.3c-1,0.3-2,0.8-2.8,1.5L32.6,36.9"/>
		<path fill="#FFFFFF" d="M27.7,37.7l2.4,2.1c0.4-1.1,1.1-2,2-2.6l-2.6-1.9C28.8,36,28.2,36.8,27.7,37.7"/>
		<path fill="#FFFFFF" d="M26.8,40.8l3.1-0.6l-2.4-2.1C27.1,39,26.9,39.9,26.8,40.8"/>
		<path fill="#FFFFFF" d="M26.7,41.6c0,0.9,0.1,1.7,0.4,2.5l3.2-0.2c-0.3-0.7-0.5-1.5-0.5-2.3c0-0.3,0-0.6,0.1-0.8l-3.1,0.6
			C26.7,41.4,26.7,41.5,26.7,41.6"/>
		<path fill="#FFFFFF" d="M30.5,44.4l-3.2,0.2c0.3,0.9,0.8,1.7,1.4,2.4L30.5,44.4"/>
		<path fill="#FFFFFF" d="M33.4,46.7c-0.8-0.3-1.4-0.7-2-1.3c-0.2-0.2-0.4-0.4-0.5-0.6l-1.8,2.7c0.6,0.7,1.4,1.2,2.2,1.7L33.4,46.7"
			/>
		<path fill="#FFFFFF" d="M33.7,47l-2,2.3c0.8,0.3,1.6,0.6,2.4,0.7L33.7,47"/>
		<path fill="#FFFFFF" d="M33.9,44.6l0.2,1.3l0.9-1C34.6,44.8,34.2,44.7,33.9,44.6"/>
		<path fill="#FFFFFF" d="M35.2,50.1c0.9,0,1.8-0.1,2.6-0.4l-0.2-3.2C36.8,46.8,36,47,35.2,47c-0.3,0-0.6,0-1-0.1l0.5,3.2
			C34.9,50.1,35,50.1,35.2,50.1"/>
		<path fill="#FFFFFF" d="M39.9,34.9l-2.2,1.9c0.5,0.2,0.9,0.6,1.3,1l0.2,0.2C39.6,37.1,39.9,35.9,39.9,34.9"/>
		<path fill="#FFFFFF" d="M35.2,31.2c-5.8,0-10.5,4.7-10.5,10.5c0,5.8,4.7,10.5,10.5,10.5c3.6,0,6.8-1.8,8.7-4.6L42.6,47
			c-1.7,2.3-4.4,3.8-7.4,3.8c-5.1,0-9.2-4.1-9.2-9.2c0-5.1,4.1-9.2,9.2-9.2c1.7,0,3.3,0.5,4.6,1.3v-1.4
			C38.4,31.6,36.7,31.2,35.2,31.2"/>
		<path fill="#FFFFFF" d="M44.8,46.4c-0.1-0.2-0.3-0.1-0.5-0.2c-0.1-0.1-0.2-0.3-0.3-0.4c-0.1-0.1-0.3,0.1-0.4,0
			c-0.2-0.1-0.3-0.3-0.4-0.4c-0.1-0.2-0.3-0.3-0.4-0.5c-0.1-0.1-0.3-0.3-0.4-0.4c-0.1-0.1-0.3,0.1-0.4,0c-0.2-0.1-0.3-0.4-0.5-0.5
			c-0.1-0.1-0.2-0.1-0.3-0.2c-0.1-0.1-0.1-0.2-0.2-0.3c-0.1-0.1-0.3-0.2-0.4-0.3c-0.2-0.1-0.3-0.5-0.4-0.7c-0.1-0.2-0.3-0.2-0.4-0.4
			c-0.2-0.2-0.2-0.5-0.4-0.8c-0.2-0.2-0.6,0.1-0.8,0.4c-0.2,0.5-0.2,1,0.1,1.4c1.7,1.9,4,3.6,6.6,4C45.1,47.1,44.9,46.6,44.8,46.4"
			/>
		<path fill="#FFFFFF" d="M51.1,21.4c4.7-0.2,13,0.3,17.4-0.9c3.9-1.1,6.7-3,8.3-5.7c0.3-0.4,0.1-0.5-0.3-0.1
			c-2.6,2.5-5,3.4-8.4,4.4c-4,1.1-11.1,0.8-16.9,0.9C45.5,20,40.5,22.3,39,26.7l1.2,0.5C41.9,23.6,45.9,21.6,51.1,21.4"/>
		<path fill="#FFFFFF" d="M22.2,36.1c0.3,0.3,0.1,0.8,0.3,1.1c0.3-2.1,1.9-3.7,3.4-5.1c3.8-3.9,9.7-4.7,14.7-2.8
			c0.1,0,0.5-0.7,0.3-0.8c-3-1.3-5.8-1.4-8.9-0.8c-2.5,0.6-4.7,1.7-6.6,3.4c-1.5,1.3-2.7,2.8-3.6,4.6c-0.1,0.1-0.2,0.4-0.1,0.5
			C21.9,36.3,22,36,22.2,36.1"/>
		<path fill="#FFFFFF" d="M46.8,48c0,0-0.2,0.1-0.2,0.1c-0.3,0-0.6,0-0.9,0c-0.5-0.1-1.1-0.3-1.6-0.4c-3.1,4.7-9.8,6.4-14.8,3.2
			c-1.8-1.1-3.2-2.6-4.1-4.4c-0.5-1-0.8-2.1-1-3.3c-0.2-0.8,0-1.5-0.2-2.3c-0.3,0.4-0.1,1.1-0.7,1.3c-0.1,0.1-0.3,0-0.4-0.1
			c-0.1-0.2-0.1-0.4-0.2-0.5c-0.3-0.1-0.3,0.4-0.7,0.3c0,0-0.1,0.1-0.1,0.1c-0.2,0.1-0.3-0.3-0.5-0.1c-0.1,0.1-0.2,0.2-0.3,0.2
			c-0.1,0-0.2-0.3-0.2-0.3c-0.1,6.8,5.3,13,12.1,14c1,0.1,2,0.2,2.9,0.1c2.1-0.2,4.1-0.8,6-1.9c3-1.7,5-4.4,6.5-7.4
			c-1.1-0.4-2.3-0.8-3.2-1.1C45.4,46.7,46.4,47.4,46.8,48"/>
		<path fill="#FFFFFF" d="M50.5,45.7c-0.3-0.1-0.5-0.2-0.7-0.3c-0.1-0.1-0.3,0.2-0.5,0.1c-0.3-0.2-0.6-0.5-0.9-0.7
			c-0.2-0.2-0.6-0.6-0.8-0.5c-0.1,0-0.2,0.4-0.3,0.3c-0.4-0.3-0.7-0.6-1-1c-0.2-0.1-0.3,0.3-0.6,0.2c-0.5-0.2-0.7-0.8-1.1-1.2
			c-0.5-0.5-0.9-1-1.5-1.1c-0.1,0,0,0.1-0.1,0.2c-0.5,0.4-1-0.3-1.5-0.5c-0.4-0.2-0.8-0.5-1.3-0.5c-0.1,0-0.1,0.1-0.1,0.2
			c2.7,3.2,6.5,5.6,10.6,5.5c0.1,0,0.3,0,0.1-0.2C50.8,46.1,50.7,45.8,50.5,45.7"/>
		<path fill="#FFFFFF" d="M54.4,43.4c-0.1,0-0.3,0.1-0.4,0.1c-0.3-0.1-0.6-0.3-1-0.6c-0.2-0.1-0.2,0.3-0.4,0.3
			c-0.6,0-1.6-0.7-2.2-1.1c-0.1-0.1-0.7,0.1-0.8,0.1c-0.4,0.1-0.8-0.6-1.1-0.7c-0.2-0.1-0.5-0.2-0.7-0.1c-0.3,0.2-0.6,0.1-0.9,0.1
			c-0.1,0-0.2,0.3-0.4,0.3c-0.4,0.1-0.9-0.2-1.3,0c0,0-0.1,0.1-0.1,0.1c0,0.3,0.3,0.3,0.5,0.4c0.7,0.4,1.5,0.7,2.2,1
			c1.1,0.5,2.3,0.8,3.5,0.9c1.4,0.1,3.3,0.3,4.4,0c0.1,0,0-0.2-0.2-0.4c-0.2-0.1-0.4-0.2-0.6-0.3C54.7,43.6,54.6,43.4,54.4,43.4"/>
		<path fill="#FFFFFF" d="M60.4,40.6c-0.3,0.1-0.6-0.1-0.8,0c-0.1,0-0.1,0.1-0.2,0.1c-0.5,0-0.8-0.5-1.3-0.5c-0.1,0-0.1,0.2-0.2,0.3
			c-0.3,0.1-0.6-0.3-0.9-0.2c-0.2,0.1-0.3,0.1-0.5,0c-0.2-0.1-0.4-0.3-0.7-0.3c-0.2,0-0.4,0.2-0.7,0.1c-0.6-0.2-1.1-0.7-1.7-0.6
			c-0.3,0.1-0.6-0.1-0.8,0c-0.2,0.1-0.3,0.3-0.5,0.5c-0.2,0.1-0.5,0.1-0.7,0.2c-0.1,0.1-0.2,0.3-0.3,0.3c-0.3,0.1-0.6,0-0.9,0.2
			c0,0,0,0.2,0.1,0.2c1.9,0.5,3.6,1.1,5.5,1.1c1.9,0,3.7,0,5.5-0.6c0.1,0,0.2-0.1,0.1-0.3C61.1,40.8,60.8,40.5,60.4,40.6"/>
		<path fill="#FFFFFF" d="M66,36.5c-0.4,0.2-0.9,0-1.4,0.1c-0.1,0,0,0.2-0.1,0.2c-0.5,0.1-0.9-0.1-1.3,0.1c-0.3,0.1-0.7,0-1.1,0
			c-0.1,0-0.1,0.2-0.2,0.3c0,0.1-0.2,0.2-0.3,0.2c-0.5-0.1-0.9-0.2-1.3-0.3C59.1,37,58,36.7,56.9,37c-0.4,0.1-0.8,0.2-1.1,0.5
			c-0.1,0.1-0.2,0.3-0.4,0.4c-0.7,0.2-1.4,0.3-2,0.5c-0.2,0.1-0.6,0.4-0.4,0.4c2.8,0.7,5.5,0.8,8.3,0.2c2.1-0.4,4-1,5.8-2
			C67,36.8,66.3,36.4,66,36.5"/>
		<path fill="#FFFFFF" d="M70.7,31.8c-0.3,0.1-0.6-0.2-0.8,0c-0.3,0.2-0.7,0.2-1.1,0.2c-0.2,0-0.4-0.1-0.6,0c-0.1,0.1,0,0.2,0.1,0.3
			c-0.9,0.3-1.8,0-2.6,0.3c-0.1,0-0.1,0.3-0.2,0.4c-0.8,0.2-1.5-0.1-2.2,0c-0.2,0-0.1,0.4-0.3,0.4c-0.7,0-1.3,0-2-0.1
			c-0.8,0-1.5,0.3-2.3,0.5c-0.2,0.1-0.3,0.4-0.5,0.5c-0.6,0.1-1.3,0-1.9,0.3c0,0,0,0.2,0,0.2c0.7,0.4,1.6,0.7,2.1,1.4
			c5.1-0.1,10.5-0.7,14.7-4.2c0.1-0.1-0.4-0.2-0.7-0.2c-0.3-0.1-0.5-0.1-0.8-0.2C71.2,31.6,71,31.7,70.7,31.8"/>
		<path fill="#FFFFFF" d="M75.9,27.1c-0.1,0-0.8-0.2-1.2-0.1c-0.1,0-0.1,0.2-0.2,0.2c-0.5,0.1-0.9,0.3-1.5,0.4
			c-0.1,0-0.4,0.1-0.5,0.2c-0.2,0.1-0.5-0.1-0.6,0c-0.1,0.1,0.1,0.4-0.1,0.5c-0.5,0.2-1-0.2-1.5,0.1c-0.1,0.1,0.1,0.4,0,0.4
			c-0.7,0.2-1.9-0.8-2.3,0.3c-0.1,0.2-0.3,0.1-0.4,0.1c-0.1,0-0.3-0.1-0.4,0c-0.4,0.3-0.7,0.5-1.2,0.3c-0.1,0-0.2,0.4-0.4,0.3
			c-0.3-0.1-0.6-0.3-0.9-0.2c-0.1,0.1,0,0.4-0.2,0.4c-0.8,0.1-1.7,0-2.4,0.3c-0.2,0.1-0.2,0.4-0.5,0.5c-0.6,0.1-1.2,0-1.7,0.2
			c-0.1,0-0.1,0.3,0.1,0.3c0.3,0.1,0.7,0,1,0.2c0.3,0.2,0.5,0.7,0.8,0.8c2.5,0.1,5-0.3,7.4-1.1c2.6-0.8,4.9-2,7-3.8
			C76.1,27.2,76,27.1,75.9,27.1"/>
		<path fill="#FFFFFF" d="M51.7,51.6c-0.6,0-1.1-0.5-1.1-1.1s0.5-1.1,1.1-1.1s1.1,0.5,1.1,1.1S52.3,51.6,51.7,51.6 M51.7,49
			c-0.8,0-1.4,0.6-1.4,1.4c0,0.8,0.6,1.4,1.4,1.4c0.8,0,1.4-0.6,1.4-1.4C53.1,49.7,52.5,49,51.7,49z"/>
		<path fill="#FFFFFF" d="M51.8,50.3h-0.4v-0.4h0.4c0.1,0,0.2,0.1,0.2,0.2C51.9,50.2,51.9,50.3,51.8,50.3 M52.3,50.1
			c0-0.3-0.2-0.5-0.5-0.5h-0.7v1.7h0.3v-0.7h0.2l0.3,0.7h0.3l-0.3-0.7C52.1,50.5,52.3,50.3,52.3,50.1z"/>
	</g>
</g>
</svg>
