<?xml version="1.0" encoding="utf-8"?>
<!-- Generator: Adobe Illustrator 17.1.0, SVG Export Plug-In . SVG Version: 6.00 Build 0)  -->
<!DOCTYPE svg PUBLIC "-//W3C//DTD SVG 1.1//EN" "http://www.w3.org/Graphics/SVG/1.1/DTD/svg11.dtd">
<svg version="1.1" id="Layer_1" xmlns="http://www.w3.org/2000/svg" xmlns:xlink="http://www.w3.org/1999/xlink" x="0px" y="0px"
	 viewBox="0 0 300 300" enable-background="new 0 0 300 300" xml:space="preserve">
<g>
	<path fill="#FFFFFF" d="M139.6,73.3c0-0.3,0-0.3,0-0.5l0.3-0.3c0.5-0.5,0.8-0.8,1-1.5c0-0.3,0-0.8,0-1c0-0.5,0-0.8,0.3-0.8
		c0,0,0,0,0.3,0.3c0.3,0.3,0.5,0.8,1.8,0.8h0.3c0.3,0,0.8,0,0.8-0.3c0.3-0.3,0-0.5,0-0.8V69c0,0,0,0,0.3-0.3c0.8-0.3,1-0.3,1.3-0.3
		c0.3,0,0.3,0,0.5,0.3c0.5,0.5,0,1.3-0.3,1.5c-0.3,0.3-0.3,0.5-0.3,0.5c0,0.3-0.3,0.3-1,0.5c-0.5,0-0.8,0.3-0.8,0.5
		c0,0.3,0,0.5,0,0.8c0,0.3,0.3,0.5,0,0.8c-0.5,0.5-0.8,1-0.8,1.3v0.3H143c0,0,0,0-0.3,0c0,0-0.5,0-0.5,0.3c0,0.3-0.3,0.5,0,1.3
		c0.5,1.5,2.3,2.1,2.3,2.1h0.3v-0.3c0-0.3-0.3-1,0-1.5c0-0.3,0.3-0.3,0.5-0.3h0.3h0.3c0,0,0.3-0.3,0-0.3c0-0.3,0-0.8,0.3-1h0.3
		c0.5,0,0.8,0,1-0.3c0.3-0.3,0.3-0.8,0.3-1c0.5,0,1.3-0.3,1.8-0.5l0,0c0.3,0,0.5-0.3,0.5-0.5c0.3-0.3,0.5-0.5,1-0.5c1,0,1-1,1-1.5
		c0-0.3,0-0.8,0-1c0.3-0.3,0.3-0.5,0.3-0.8c0-0.5,0.3-0.8,0.8-1.3c0.5-0.8,0.8-0.8,2.6-1c0.3,0,0.8,0,1.3-0.3c0.5,0,0.8,0,1,0
		c0.8,0,1.3,0.3,1.5,0.5c0.3,0.3,0.5,0.5,1,0.5c0.5,0,1,0.5,1.3,0.8c0.3,0.3,0.5,0.3,0.5,0.3h0.3c0-0.3,0-0.3,0-0.5c0-0.5,0-1,0.3-1
		c0.3,0.3,0.5,0.5,1,0.5c0.3,0,0.8,0,0.8-0.8c0-0.3,0.3-0.3,0.3-0.3c0.3,0,0.5,0,0.8,0.3c0.3,0,0.5,0.3,0.8,0.3h0.3c0.3,0,0.5,0,1,0
		c0.8,0,1.5-0.5,1.8-1.3c0.3-1,1.3-1.8,1.8-2.6c0.5-0.5,1-1,1.3-1.3l0.3,0.3c0.3,0.3,0.5,0.8,0.8,0.8c0.5,0,0.5-0.5,0.8-0.8
		c0-0.3,0.3-0.3,0.3-0.5c0,0,0,0,0.3,0.3c0.3,0.3,0.5,0.5,1.3,0.5c0.3,0,0.3,0,0.5,0c0.8-0.3,1.8,0,2.3,0.5c0.3,0,0.5,0.3,0.8,0.3
		c0.3,0,0.3,0,0.5,0.3c0.5,0.3,1.3,0.5,2.3,0.5c0.8,0,1.5,0.5,2.1,1c0.3,0.3,0.5,0.5,0.8,0.5c0.5,0.3,1,1,1.5,1.5
		c0.3,0.3,0.5,0.5,0.8,0.8c0.3,0.3,0.3,0.5,0.5,0.8c0.3,0.5,0.8,1.3,2.3,2.1c1,0.5,1.3,0.5,1.5,0.5c0.3,0,0.3,0,0.3-0.3
		c0.3-0.3,0-0.5,0-0.8c0,0,0-0.3,0-0.5c0.5-1,0.5-1.3,0.3-1.8c0-0.3-0.3-0.3-0.3-0.5c0-0.8,0.5-1.3,0.8-1.3c0.3,0,0.3-0.5,0.5-1
		c0-0.3,0-0.8,0.3-1.3c0-0.3,0-0.3,0-0.3s0.3,0,0.3,0.3c0.3,0.3,0.5,0.5,1,0.5s0.8,0.3,1,0.5c0,0.3,0.3,0.3,0.5,0.5
		c0.3,0.3,0.3,0.3,0.3,0.5c0.3,0.3,0.3,0.5,1,0.8c0.3,0,0.5,0,0.5,0c0,0.3,0.3,0.3,1,0.5c0.3,0,0.8,0.3,1,0.3c0.8,0,1.5-0.3,1.8-0.5
		c0.3,0,0.5,0,0.8,0c0.5,0,1,0,1.5-0.3c0.5,0,0.8-0.3,1.3-0.3c0.5,0,0.8,0,1.3-0.3c0.5,0,1-0.3,1.3,0c0.3,0.3,0.5,0.3,0.8,0.3
		c0.3,0,0.5,0,0.8-0.3l0,0c0,0,0.3,0.3,0.5,0.3c0.3,0,0.3,0,0.5,0s0.5,0,0.5,0c0.3,0.3,0.8,0.3,1.3,0.3s0.8-0.3,1,0
		c0.3,0.3,1,0.5,2.1,0.5c0.5,0,1,0,1.5,0c0.3,0,0.5,0,0.8,0c0.5,0,1,0.3,1.5,0.3c0.8,0.3,1.3,0.5,2.1,0.5c1,0,1-0.8,1.3-1
		c0-0.3,0-0.5,0.3-0.8c0.3-0.3,0.3-0.8,0.3-1c-0.3-0.5-0.8-0.5-1.3-0.5c-0.3,0-0.3,0-0.3,0s0-0.5,0-0.8c0-0.3,0-0.3,0-0.5
		c0-0.5,0-0.8-0.3-0.8c-0.3-0.3-0.5-0.3-0.8-0.3c0-0.5-0.5-1-2.3-1c-1.5,0-2.1,0.3-2.3,0.5c0,0-0.3,0-0.3,0.3v-0.3
		c0-0.3-0.3-0.8-0.5-0.8c-0.3,0-0.5,0-0.8,0.5c-0.8,1,0,1.8,0.5,2.3c0.3,0.3,0.5,0.5,0.5,0.8v0.3c0,0-0.3,0.3-0.5,0.3h-0.3
		c0,0-0.3-0.3-0.3-0.5c-0.3-0.5-0.3-0.8-0.5-0.8c-0.5,0-0.5,0.5-0.5,1c0,0.8-0.3,0.8-0.3,0.8c-0.3,0-1-0.8-1.3-1
		c-0.8-0.8-1.5-0.8-2.1-1c-0.3,0-0.5,0-0.5-0.3s-0.3-0.3-0.3-0.5c-0.3-0.3-0.5-0.8-0.5-1c0,0,0,0,0.3,0c0.8-0.3,0.8-0.8,0.8-1
		s-0.3-0.8-0.8-1c-0.3,0-0.5,0-0.8-0.3c-0.5,0-0.5,0-0.5-0.3s-0.3-1-1.5-1c-0.3,0-0.3,0-0.5,0c-0.3,0-0.5,0.3-0.8,0.5l-0.3,0.3l0,0
		c-0.5-0.3-0.5-1-0.3-1.3c0-0.3,0.8-0.5,1.3-0.5c0,0,0,0,0.3,0c0.5,0.3,1,0.5,1.5,0.5c0.3,0,0.8,0,0.8-0.8c0.3-0.5,0-1.3-0.3-1.5
		c-0.3-0.3-0.3-0.5-0.3-0.5c0.5-0.5,0.3-1,0-1.5c-0.3-0.3-0.3-0.8-0.5-1.3c-0.3-0.8,0-1.3,0.3-2.1c0.3-0.5,0.5-1.3,0.5-2.3
		c0-0.8,0-1.3-0.3-1.5c-0.3-0.3-0.5-0.3-0.8-0.3s-0.5,0-0.5,0c0-0.3-0.3-0.5-0.8-0.5c-0.3,0-0.5,0.3-0.8,0.8
		c-0.5,0.8-0.8,0.8-1.5,0.8h-0.3c-0.3,0-0.5,0-0.8,0s-0.5,0-1.3,0s-1.3,0.3-1.8,0.8c-0.3,0.3-0.5,0.8-0.5,1.3c0,0.3,0,0.3-0.5,0.3
		c-0.3,0-0.5,0-0.8,0.3c0,0-0.5,0.3-0.8,0.3c-0.5,0-0.5-0.3-0.5-0.5c0-1-1-1.3-1.5-1.5c-0.3,0-0.3,0-0.5-0.3c0,0-0.3,0-0.5,0
		c-0.8,0-1.8,0.8-2.1,1c-0.3,0.3-1,0.5-1.8,0.5c-0.3,0-0.5,0-0.5,0c0-0.5-0.8-0.8-1-0.8c-0.5,0-0.8,0-0.8-0.3
		c-0.3-0.3-0.5-0.5-1-0.5c-0.3,0-0.5,0-0.8,0s-0.8,0.3-0.8,0c-0.5-0.3-1-0.8-1-1c0,0,0-0.3,0.3-0.3c0.3-0.3,0.5-0.5,0.5-1
		c0-0.3,0-0.8,0-1c0-0.5-0.3-1,0-1.3c0.3-0.3,0.3-1,0-1.5c0-0.3,0-0.5,0-0.5c0.3,0,0.3-0.3,0.5-0.8c0.3-0.3,0.5-0.8,0.8-1.3
		c0.5-0.5,0.5-1,0.3-1c-0.3-0.5-1-0.5-1.3-0.3c-0.3,0.3-1,0.3-4.4,0.3h-1.3c-1,0-1.8,0.5-2.8,1c-1,0.5-1.8,1-2.8,1.3
		c-2.1,0.5-2.3,0.5-3.6,0.3h-0.5c-0.3,0-0.8,0-1.5,0c-0.8,0-1.3,0-1.8,0c-0.5,0-1,0-1.5,0c-0.3,0-1,0-1.3,0c-0.8-0.3-2.6,0-4.1,0.3
		c-0.8,0.3-1.3,0.3-1.5,0.5c-0.3,0-0.3,0.3-0.5,0.3c0,0,0,0-0.3,0c0,0,0,0,0-0.3c0,0,0-0.5-0.5-0.5c-0.3,0-0.5,0-1.5,0.8
		c-1,0.5-1.8,1.3-2.6,2.1c-1,0.8-1.8,1.8-2.6,1.8l0,0c-1.5,0-2.1,0.3-2.6,0.8l-0.3,0.3c-0.5,0.3-0.8,0.8-1,1
		c-0.3,0.3-0.5,0.5-0.5,0.8c-0.5,0.3-0.8,0.5-1.3,0.3c-0.3,0-0.3,0-0.3-0.5c0-0.3,0-0.5,0-0.8c0-1,0-1.5-1.3-1.5h-0.3
		c-0.3,0-0.5,0-0.8,0.3c-0.3,0.3,0,0.8,0,1.3s0.3,0.8,0.3,1.3s0,0.8,0,1c-0.3-0.5-0.8-0.8-1.3-0.8c-0.3,0-0.8,0-1,0.3
		c-0.3,0-0.5,0.3-0.8,0.5c-0.3,0.3-0.8,0.8-1,0.8l0,0c0-0.8-0.8-1.3-1.3-1.5c-0.3,0-0.5-0.3-0.5-0.3v-0.3c0-0.5-0.3-1.8-1-1.8l0,0
		c-0.3,0-0.8,0.3-1.5,0.5c-0.8,0.5-1.5,1-2.3,1c-0.5,0-1.3,0-1.8,0.3c-1,0.3-2.1,0.3-2.6,0c-0.3,0-0.5-0.3-0.8-0.3
		c-0.8-0.3-0.8-0.3-0.8-1.8c0-2.1-0.3-2.3-1.3-2.3c0,0,0,0-0.3,0c-0.8,0-1.5-0.3-1.8-1.5c-0.3-0.8-0.5-1.3-1-1.8
		c-0.3-0.3-0.5-0.8-0.8-1.3c-0.3-0.5-0.3-1.3-0.5-1.8c-0.3-0.8-0.3-1.5-1-1.5c-0.3,0-0.8,0-1,0s-0.3,0-0.5,0c-0.5,0-0.5,0-1.3-1
		c-0.8-1-1.8-1.3-2.8-1.5c-0.5-0.3-0.8-0.3-1-0.5c-0.3-0.3-0.8-0.3-1.3-0.3c-0.5,0-1.3,0-2.1-0.3c0.3-1.5,0-1.8-0.5-1.8
		c-0.5,0-0.8,0.3-1,0.3h-0.3c-0.3,0-0.5,0-0.8,0.3c0,0-0.3,0-0.5,0.3c0,0,0-0.3,0.3-0.3c0.5-0.8,0.8-1.3,0.5-1.5
		c0,0-0.3-0.3-0.5-0.3c-0.3,0-0.8,0-1.3,0.3c-0.5,0.3-1.3,1-1.8,1.5c-0.5,0.8-1.3,1.5-1.8,1.5c-0.8,0-1,0.8-1.5,1.3
		c-0.3,0.5-0.5,0.8-0.8,1.3c0,0.5,0,0.5,0,0.5s-0.3-0.5-0.3-0.8s-0.3-0.5-0.3-0.8c-0.3-0.5,0-1.3,0.3-2.1c0.3,0,0.3-0.3,0.3-0.3
		c0-0.3,0-0.8,0-1c0-0.8,0-1,0.3-1c1.3-0.3,1.8-1.3,2.1-1.8c0-0.3,0.3-0.8,0.3-1.3c0-0.3,0-1,0.3-1h0.3c0.3,0,0.8-0.3,0.8-1
		c0-0.8,1-1,1.5-1c0.3,0,0.5-0.3,0.5-0.3c0.3-0.3,0-0.5-0.3-0.8c0-0.3-0.3-0.5-0.3-0.8c0.3-0.3,0.3-0.8,0.3-1c1.5,0,1.8,0,1.8-0.8
		c0-0.3,0-0.5,0.8-1.3c1.3-1,1.5-1,2.1-1.3c0.3,0,0.8-0.3,1.8-1c0.5-0.3,0.8-0.5,0.8-1c0-0.3-0.3-0.5-0.3-0.8c0,0-0.3,0-0.3-0.3
		c0,0,0,0,0.3-0.3c0.5-0.3,1-0.5,1.8-0.5c0.3,0,0.5,0,0.8,0c0.5,0,1.3,0,1.5,0s0.5,0,0.8,0c0.5,0,0.8,0,1-0.3c0.3-0.3,0.3-0.5,0.3-1
		c-0.3-0.8-0.8-1.3-1.8-1.8c-0.8-0.3-3.1-0.5-4.6-0.5c-0.8,0-1.8,0-2.1,0s-0.5,0-0.8,0c-0.8,0-1.3,0-4.6,1.5
		c-3.9,1.5-5.1,3.6-5.9,4.6c0,0.3-0.3,0.5-0.5,0.5c-0.8,1-3.9,2.6-4.4,2.8c-0.3,0-0.8,0.5-1.5,1.3c-0.8,0.8-1.5,1.5-2.3,2.1
		c-1.3,0.5-1.3,1-1.8,1.5c0,0.3-0.3,0.5-0.3,0.8c-0.8,1-1,2.1-1,2.6c-1.8,0-4.4,0.5-4.4,0.8c0,0,0,0-0.3,0c-2.8,3.3-3.6,3.3-3.9,3.3
		s-0.5,0-1.3,0.5c-1.3,1.3-2.3,1-3.3,1c-0.3,0-0.3,0-0.5,0c-0.5,0-1,0-1.5,0.3c-0.8,0.3-1.5,0.5-2.1,0.5c-0.3,0-0.5,0-0.8,0
		c-0.3,0-0.5,0-0.8,0c-1.5,0-2.6,0.8-3.3,1c-0.5,0.3-1,1-1.8,1.8c-0.5,0.8-1.3,1.5-2.1,2.1c-1.5,1-3.9,1.8-4.9,2.1
		c-0.8,0-1.8,0.5-2.8,1c-0.5,0.3-1,0.3-1.3,0.5c-1.5,0.5-2.3,1.5-2.1,2.6c0,0.3,0.3,0.5,0.8,0.5s1.3-0.5,1.3-0.5v0.3
		c0,0.3,0.3,1,1,1c0.3,0,0.5,0,0.5-0.3l0,0c0,0,0,0,0.5,0.3c0.3,0.3,0.3,0.3,0.5,0.5c0.5,0.5,1.3,1,1.3,2.1c0,1.3,0.3,1.8,0.8,2.6
		c0,0.3,0,0.3,0.3,0.5c0,0.8,0.3,1.3,1.8,1.3c1,0,2.3,0.5,3.9,1c1.3,0.5,2.6,0.8,4.1,1.3c1.5,0.3,3.3,1,4.9,1.5
		c2.3,0.8,4.6,1.5,6.2,1.8c2.6,0.3,10.6,4.4,11.6,5.4c0.5,0.5,1.5,0.5,2.3,0.8c0.5,0,1.3,0.3,1.5,0.5c0,0,0,0.3,0.3,0.3
		c0.3,0.5,0.8,1,1.3,1c0.3,0,0.8-0.3,1-0.8v-0.3c0-0.3,0.3-0.5,0.3-0.5h0.3c0.3,0,0.8,0,1.3,0.3c0.8,0,1,0.3,1,0.3
		c0.3,0.5,0.5,0.5,1.5,0.5c1,0,1,0.3,1.3,0.5c0,0.3,0.3,0.5,1.3,0.3c0.8-0.3,1.8,0,2.6,0.3c0.3,0,0.8,0.3,1.3,0.3
		c0.8,0.3,0.8,0.5,1,1c0,0.3,0.3,0.8,0.8,1h0.3c0,0-0.3,0.3-0.3,0.5l-0.3,0.3l-0.3,0.3c-0.5,0.3-0.5,0.8,0,1.5
		c0.3,0.3,0.5,0.8,0.8,0.8s0.3,0,0.5-0.3c0.3,0,0.5-0.3,1.3-0.3h0.3l0,0c0,0.3-0.3,0.5,0,0.8c0.3,0.3,0.5,0.5,1.3,0.5
		c1.5,0,1.5,0.3,1.8,0.5c0,0.3,0.3,0.5,0.8,0.8c0.3,0,0.5,0.3,0.8,0.3c0.5,0.3,1,0.5,1,0.5v0.3c-0.8,1-0.5,1.8,0,2.6
		c0.3,0.3,0.3,0.3,0.5,0.5l0,0c0,0-0.3,0.3-0.5,0.5c-1,0.8-1.3,1-0.8,1.8c0,0.3,0.3,0.3,0.3,0.5c0.5,1-0.5,2.1-1.3,2.6
		c-0.5,0.5-0.5,0.8-0.5,1.3c0,0.3,0,0.5,0,1c-0.3,0.5-0.3,0.8,0,1c0.3,0.3,0.5,0.3,1,0.5l0,0c0.8,0,1,0,1.5,0c0.3,0,0.5,0,0.8,0
		c0.5,0,1.3-0.5,1.5-1l0.3-0.3c0,0.3,0,0.5,0.3,0.8c0,0.5,0.3,0.8-0.3,1.5c0,0.3-0.3,0.5-0.3,0.8c-0.8,1.3-1.5,3.1-1.3,4.1
		c0,0.3,0.3,0.5,0.5,0.5c0.5,0.3,0.8,0.8,0.8,1c0,0.5,0.3,1,1,1.3c0.3,0,0.5,0,0.8,0s0.3,0,0.5,0c0.3,0,0.3,0,0.3-0.3
		c0.3-0.3,0-0.3,0-0.5c0,0,0-0.3,0-0.5c-0.3-0.5-0.5-1.5,1.8-3.6c1.8-1.5,2.3-2.8,2.6-3.9c0.3-0.5,0.3-1,0.8-1.5
		c1.3-1.3,2.8-4.6,4.1-7.5l0.5-0.8c1-2.1,1.8-2.3,2.6-2.8c0.3,0,0.5-0.3,0.8-0.5c0.8-0.8,0.8-2.1,0.8-3.1v-0.3c0-1,0-1.5,0.5-1.8
		c0,0,0.3,0.3,0.5,2.3c0,0.5,0.3,0.8,0.5,0.8l0,0c0,0,0,0-0.5,0.5c-0.3,0.3-0.5,0.5-0.5,0.8c0,0.3,0.3,0.3,0.5,0.5h0.3
		c0,0,0,0,0,0.3c-0.3,0.5-0.3,0.8,0,0.8l0.3,0.3c0.3,0,0.8-0.5,1-1c0.3-0.3,0.5-0.5,1-0.5c0.3,0,0.8-0.3,1.3-0.3
		C139.6,74.1,139.6,73.9,139.6,73.3z M119.6,96.8L119.6,96.8L119.6,96.8L119.6,96.8z M201.4,72.1l-0.3-0.3c0,0,0,0-0.3-0.3
		c-0.3-0.3-0.3-0.3-0.5-0.3s-0.3,0-0.8,0.3l0,0l0,0l-0.3-0.3c-0.3-0.3-0.8-0.8-1.5-0.8h-0.3c-1,0-1.3-1-1.5-1.5
		c-0.3-0.5-0.8-1.5-1.5-1.5c-0.3,0-0.5,0-0.5,0.3c-0.5,0.8,0.3,1.5,0.8,2.3c0,0,0,0.3,0.3,0.3c0,0.3,0.3,0.8,1,1
		c0.8,0.5,1.3,1,1.5,1.3c0,1,1.3,1.3,2.1,1.3c0.3,0,0.5,0,0.8,0.3h0.3c0.3,0,0.5-0.3,1-0.8c0.3-0.5,0.5-0.8,0.3-1
		C201.9,72.3,201.7,72.3,201.4,72.1z M169.5,78.2c-0.3,0.3-0.5,0.8-0.3,1c0.3,0.3,0.5,0.5,1.3,0.5h0.3c1,0,1.3-0.3,1.5-0.5l0.3-0.3
		c0.3,0,0.5,0,0.5-0.3c0.3-0.3,0.3-0.8,0.3-1.3v-0.3c0-0.8-0.3-1-0.3-1.3v-0.3c0.3-0.5,0.3-1.3,0.3-1.8s-0.8-0.8-2.1-0.8
		c-0.3,0-0.3,0-0.5,0.3c-0.3,0-0.3,1-0.3,1.3c-0.5,0.3-0.5,0.8-0.5,1.3l0,0c0,0.5,0,1-0.5,1.8C169.8,78,169.5,78.2,169.5,78.2z
		 M251.1,169.1c-0.3-0.5-0.5-0.8-1-1.3c-0.5-0.5-1-1.3-1-1.8s0-1-0.3-1.8c0-0.8-0.3-1.3-0.3-1.8c0-0.3,0-0.5,0-0.8
		c0-0.5,0-1.3-0.3-2.6c-0.3-0.8-0.3-1.3,0-2.1c0-0.8,0-1.8-0.5-2.8c-0.8-1.5-1.3-4.6-1.3-6.2c0-1-0.5-5.7-1.3-7.7
		c-0.5-1-0.8-1.5-1-2.1c-0.3-0.5-0.5-0.5-0.5-0.8c0-0.8-0.5-1.8-1.3-2.3c-0.3,0-0.3-0.3-0.5-0.5c-0.3-0.3-0.5-0.8-1-0.8
		c-0.5,0-1.3-0.3-1.5-0.5c0,0,0,0-0.3-0.3c-0.3-0.3-0.5-0.5-1-0.5c-0.3,0-0.3,0-0.5,0c-0.5,0.3-0.8,0.3-1,0.5s-0.5,0.5-1.3,0.5
		c-0.3,0-0.5,0.3-0.8,0.3c-0.3,0.3,0,0.5,0,0.5l0,0c0,0,0,0-0.5,0c-1,0-1,0.3-1.3,0.5c0,0,0,0-0.5,0.3c-0.8,0-1.3,0.3-1.5,0.5
		c-0.3,0.3-0.5,0.3-0.8,0.3c-0.3,0-0.3,0-0.5,0.3v0.3c0,0,0,0.3-0.3,0.3l-0.3,0.3c-0.8,1-1.5,1.5-1.5,2.1c0,0.3,0,0.5,0.5,0.8
		c0.3,0,0.3,0.3,0.3,0.3c0,0.3-0.3,0.5-0.8,0.8h-0.3c-0.8,0.3-1.3,0.3-1,1.3c0,0.5,0,0.5-0.3,1l-0.3,0.3c-0.3,0.5-0.5,0.5-0.5,0.8
		c0,0,0,0.3-0.3,0.8c-0.3,0.5-0.8,1-1,1l0,0c0-0.3-0.3-0.3-0.3-0.3c-0.3,0-0.5,0.3-0.8,1c-0.3,0.8-0.8,1.5-1.5,2.1
		c-0.5,0.3-0.8,0.8-1,1l-0.3,0.3c0,0-0.3,0-0.5-0.5c-0.8-0.8-1.8-1-2.8-1.3c-0.5-0.3-1-0.3-1.5-0.5c-0.3-0.3-0.5-0.3-0.8-0.5
		c-0.5-0.3-0.5-0.3-0.5-0.8s-0.3-1-0.5-1.3c0,0-0.3-0.3-0.3-0.5l0,0c1-0.5,1-2.1,1-3.6v-0.3c0-1,0-1.5,0.5-1.8c0.3,0,0.3,0,0.5-0.3
		c0.3-0.3,0-0.5,0-0.8c0-0.3,0-0.5,0-0.5s0.3-0.3,0.5-0.3c0.5,0,1-0.3,1.5-0.3c1-0.3,1.8-0.5,2.3-0.3c0.3,0,0.5,0,0.8,0
		c0.3-0.3,0-0.3,0-0.5s0-0.5,0-0.5c0.3-0.3,0.5-0.3,1-0.3c0.5,0,1.3,0,1.3-0.8s0.3-2.1,0.3-3.6c0.3-0.3,0.5-1,0.5-2.1
		c0-1.3,0.5-1.5,0.8-1.8c0.3-0.3,0.3-0.3,0.5-0.5v-0.3l0.3,0.3l0.3,0.3c0,0,0.3,0.3,0.5,0.3c0.5,0,0.8-0.3,1-0.8l0.3-0.3
		c0-0.3,0.3-0.3,0.5-0.5c0.5-0.3,1.3-0.8,0.8-1.8c-0.3-0.8,0-1.3,0.3-1.8c0-0.3,0.3-0.5,0.3-0.8c0.3-1,0.5-5.1,0.3-6.7
		c0.3-0.3,0.5-1,0.8-1.5v-0.3c0.3-0.5,0.5-1.5,0-2.6c-0.3-0.5-0.3-1.3-0.3-2.1c0-0.5,0-1,0-1.5c0-0.3,0-1-0.8-1c0,0,0,0-0.3,0l0,0
		c0,0,0,0,0-0.3c-0.3-0.8-0.3-1-0.8-1c0,0-0.3,0-0.3-0.3c-0.3,0-0.3-0.3-0.5-0.3c-0.3-0.3-0.5-0.5-1-0.8l0,0c0-0.3,0.5-0.5,0-1
		c0-0.3,0-0.3,0-0.3c0.3-0.3,0.3-0.5,0-1l0,0c-0.3-1-0.5-1.3,0-1.5s0.8-0.3,1-0.3s0.5,0,0.5,0.3c0.3,0.5,0.8,0.5,1,0.5
		c0.3,0,0.5,0,0.8,0.3c0.5,0.3,0.8,0,1-0.3c0.3-0.5,0-1.3-0.3-1.5l-0.3-0.3c-0.3-0.3-0.8-0.8-0.8-1.8c0-0.3,0-1-0.5-1h-0.3l0,0l0,0
		c-0.8-0.8-0.8-1-1-1.5c0-0.3-0.3-0.8-0.5-1c0-0.3-0.3-0.3-0.3-0.3s0.3-0.3,0.5-0.3c0.5-0.3,0.5-0.8,0.5-1.3c-0.3-0.5-0.5-0.8-1-0.8
		c0,0,0-0.3-0.3-0.3c-0.3-0.3-0.5-0.8-1.3-1c-0.3,0-0.3,0-0.3-0.3c-0.3-0.5-0.5-0.8-1.5-0.8c-0.5,0-0.8,0-1,0c-0.8,0-1,0-1.5-0.3
		c0,0-0.3-0.3-0.5-0.5c-0.8-0.8-1.5-1.8-3.1-1.5c-0.3,0-0.3,0-0.5,0c-0.5,0-0.8-0.3-1.3-0.5c0,0-0.3-0.3-0.5-0.3s-0.3-0.3-0.5-0.8
		c-0.5-0.5-1-1.3-1.8-1.3c-0.3,0-0.3,0-0.5,0.3h-0.3c0,0-0.3,0-0.5-0.3c-0.3,0-0.5-0.3-0.8-0.3c-0.3,0-0.3,0-0.5,0
		c-0.3,0.3-0.8,0.3-1,0.3s-0.5,0-0.5-0.5c-0.3-0.3-0.3-0.8-0.3-1.3c0-0.8,0-1.5-0.8-1.5c-0.5,0-0.5-0.3-0.8-0.5
		c-0.3-0.3-0.3-0.3-0.5-0.3c0,0,0,0,0-0.3c0-0.3,0-0.8-1-1c-0.8,0-1.3-0.3-1.5-0.5c-0.3,0-0.3-0.3-0.5-0.3c-0.3,0-1.5-0.3-2.1-0.3
		c-0.3,0-0.5,0-0.8,0s-0.3,0.3-0.5,0.3c-0.3,0.3-0.3,0.3-0.5,0c0.3,0,0,0,0-0.3c-0.3-0.3-0.3-0.5-0.8-0.5l0,0c0-0.3,0-0.8-0.5-0.8
		l-0.5-0.3c-0.5-0.3-0.8-0.5-1.3-0.5c0,0-0.3-0.3-0.3-0.5c-0.3-0.3-0.3-0.5-0.8-0.5h-0.3c0,0,0,0-0.3-0.3c-0.3-0.3-0.5-0.3-0.8-0.3
		h-0.3l0,0c0-0.3-0.3-1-1-1c-0.3,0-0.5,0-0.5,0c-0.3,0-0.3,0-0.5,0.3c-0.3,0.3-0.3,0.5-0.3,0.8v0.3v0.3l0,0c0,0,0,0-0.5,0
		c-0.3,0-0.3,0-0.5,0c-0.3,0-0.8,0-1,0c-0.3,0-0.5,0-0.5,0c-0.5-0.3-2.6-0.3-3.1-0.3c-0.3,0-0.3,0-0.3,0.3c0,0,0,0.3,0.3,0.3
		c0.3,0,1.3,0.8,1.5,1.3c0.3,0.5-0.3,1-1,1.5c-0.3,0.3-0.5,0.3-0.8,0.3c-0.5,0.3-1.3,0.5-1.5,1c-0.5,0.8-1.3,2.3-0.8,3.1
		c0,0.3,0,0.5,0.3,0.8c0.3,1,0.5,2.3,1.3,2.8c1,0.8,1.5,1.3,2.3,1c0.3,0,0.5,0,0.8,0c0.3,0,0.3,0,0.5,0l0,0c0,0.3,0,0.5-0.3,0.8
		c-0.3,0.3-0.5,0.3-0.8,0.3c-0.5,0-1.3,0-1.8,0.3c-0.8,0.3-1.8,0.3-2.8,0.3c-1.3,0-1.8,0.5-2.3,1c-0.5,0.5-1,1-2.1,1.3
		c-1.8,0.5-1.8,2.8-1.8,3.9c0,1,0.3,2.1,0.5,2.6v0.3c0,0.5,0,1.3,0,1.8c0,0.3,0,0.5,0,0.8c0,0.3,0,0.8,0,1.3c0,1,0,2.8-0.3,3.1
		c-0.5,0.5-0.8,1.5-0.8,2.3c0,0.5-0.8,1.3-1.5,1.8c-0.5,0.3-0.5,0.8-0.5,1.3c0,0.3,0,0.5,0,0.5s0,0-0.3,0l0,0h-0.3
		c0-0.3,0.3-0.3,0.3-0.5c0,0,0-0.3,0-0.5c0-0.8,0-1.3,0.5-1.8c1.3-0.5,1-2.3,1-3.3l0,0c0-0.3,0-0.5,0.3-0.8c0.3-0.3,0.3-0.8,0.3-1.3
		c0-0.3-0.3-0.5-0.8-0.5c-0.5,0-1,0.5-1,1.3c0,0.3-0.3,0.8-0.5,1.3c-0.3,0.3-0.5,0.8-0.5,1c0,0.3,0.3,0.5,0.3,0.5s0.3,0.3-0.3,0.5
		c-0.5,0.8-0.5,1.5-0.8,2.3c0,0.3,0,0.8-0.3,0.8c0,0,0,0-0.3,0c-0.3,0-0.5-0.3-0.5-0.5c0-0.3,0-0.3-0.3-0.8
		c-0.3-0.5-0.5-1.3-0.3-1.5c0.5-0.8,0.8-1.5,0.5-2.3c0-0.3,0-0.3,0.3-0.5c0.3-0.3,0.5-0.8,0.5-1.3s-0.3-0.8-0.3-1
		c-0.3-0.5-0.3-0.5,0-1c1.3-1,0.8-2.1,0.3-2.6l-0.3-0.3c-0.3-0.3-0.5-0.5,0.3-1.3c1-0.8,1.8-1.5,1.5-2.1c0-0.5-0.8-0.5-0.8-0.5
		c-0.3,0-0.5,0-0.5,0c-0.5,0-0.5,0.3-0.8,0.5l0,0c-0.5,0.3-1.8,1-1.8,2.1c0,0.8-0.8,2.6-1,2.6c-0.8,0.3-1.8,1.3-1.8,2.6
		c-0.8,2.6-1,2.6-1.5,2.6c-0.3,0-0.5-0.3-1-0.5c-0.5-0.3-0.5-0.5-1-0.5H162c-0.5,0-0.8,0.3-0.8,0.5c0,0.3-0.3,0.5-0.5,0.5
		c-0.5,0.5-0.5,0.8-0.5,1v0.3c0,0-0.3,0-0.8,0c-0.3,0-0.5-0.3-0.8-0.3c-0.5,0-0.8,0.3-0.8,0.3c-0.3,0.5,0,1.3,0.3,1.8
		c0.3,0.8,0,1.5-0.5,2.1c-0.3,0.3-0.3,1,0,1.5c0,0.3,0.3,0.5,0,0.8h-0.3c-1.5,0-4.1,1-4.1,2.8c0,0.8,0.3,1.3,0.5,1.8
		c0.3,0.3,0.5,0.8,0.3,1.3c0,0.3,0,0.5,0,0.8c0,0.8,0,1.3-0.5,2.3c-0.3,0.8-0.3,1.5-0.3,2.1c0,0.8,0,1.5-0.3,2.1
		c-0.3,0.5-0.8,1.3-1,2.3c-0.5,1-1.3,2.3-1.8,3.6c-0.8,2.1-2.1,3.6-2.6,3.6c-0.5,0.3-1,1-1,2.3c0,0.5,0.3,0.8,0.5,1
		c0.3,0.3,0.8,0.8,1,2.1c0,0.8,0.3,1.5,0.3,2.3c0.3,1.3,0.5,2.3,0,3.1c-0.3,0.3-0.3,0.5-0.5,0.8c-0.8,1.3-1.5,2.6-1.8,3.3
		c-0.3,0.8,0,3.3,1,4.6c0.3,0.5,0.8,1.8,1,3.3c0.5,2.3,1.3,4.6,2.1,5.9c1.5,2.1,3.1,5.9,2.8,7.5c0,0.8,0,1.3,0.3,1.8
		c0.3,0.5,0.5,1.3,0.8,2.8c0.3,3.1-0.3,10.3-0.5,12.4c0,1-0.5,2.3-0.8,3.6c-0.3,1.5-0.8,2.8-0.8,3.9s-0.5,1.5-1,2.3
		c-0.5,0.5-0.8,1.3-1.3,2.1c-0.5,1-1,1.5-1.5,1.8c-0.8,0.8-1.3,1.3-1,2.3c0,0.5,0,0.8-0.3,0.8c-0.5,0.3-1,0.8-1.3,2.6
		c-0.5,3.1-2.1,4.1-3.9,5.1c-1.5,0.8-2.6,1.5-2.8,2.3c0,0.3,0,0.5,0,0.5h0.3h50.5v1.8c0,0.3,0,0.3,0.3,0.3h1.5c0.3,0,0.3,0,0.3-0.3
		l0,0h9.5c0.3,0,0.3,0,0.3-0.3v-0.3h18c0.3,0,0.3,0,0.3-0.3v-0.3h5.1h0.3v-0.3c0-0.3-0.3-1.3-0.5-1.5l0.3-0.5c0.3-0.3,0.5-0.5,0.5-1
		c0.3-0.5,0.3-0.5,0.8-0.8c0.3-0.3,0.5-0.5,1-1c0.3-0.3,0.3-0.5,0.5-0.8c0.3-0.5,0.5-0.8,1-1c0.5-0.3,1-0.8,1.3-1.3s0.8-0.8,1-1
		c0.3,0,0.5-0.3,0.5-0.3c0-0.3-0.3-0.5-0.5-0.8l-0.3-0.5c0,0,0,0,0.3,0c0.8-0.3,1.3-0.5,1.5-1.3c0.3-0.8,0.3-1.5,0.3-2.1
		c-0.3-0.8-0.3-2.1,0-2.6c0-0.3,0.3-0.5,0.3-1c0.3-0.5,0.5-1.8,0.8-1.8h0.3c0.8,0,2.8-0.3,3.3-1.3c0-0.3,0.3-0.5,0.5-1
		c0.5-0.8,1-1.3,1-2.3c-0.3-1.3-0.3-2.8,0.5-3.6h0.3c0,0,0.3,0,0.5,0s0.8,0.3,1,0c0.3-0.3,0.3-0.5,0.3-1.3c0-0.8-0.3-1-0.3-1.3
		c0.3,0,0.5-0.3,1-0.5l0.5-0.3c0.8-0.5,1-0.8,1.3-0.8c0,0,0,0,0.3,0.3c0.5,0.3,0.8,0.5,0.8,0.8c0,0,0,0-0.3,0.3
		c-0.8,0.3-1.3,1-1.3,1.5v0.3v0.3c0,0.3,0.3,0.3,0.3,0.5c0.3,0.3,0.5,0.5,0.5,0.5c-0.5,0.8-0.3,1-0.3,1l0.3,0.3c0.3,0,0.5,0,1.3-0.8
		c0.5-0.3,0.5-0.5,0.8-0.5s0,0,0.3,0c0,0,0.3,0.3,0.5,0.3s0.5-0.3,0.5-0.3c0.8-1,1-1.3,1.5-3.6c0.3-1,0.5-1.8,0.5-2.1
		c0.3-0.5,0.3-1,0.3-1.5c0-0.3,0-0.5,0-0.5c0-0.5-0.3-0.8,0-1.5c0.3-0.5,0-1,0-1.3c0-0.8,0-1.3,0.5-1.8
		C251.6,172.2,251.9,170.9,251.1,169.1z M156.6,98.6c-0.3,0.3-0.3,0.5-0.5,0.5c0,0,0,0.3-0.3,0.3c-0.3,0.3-0.3,0.5-0.3,0.5
		c0,0.5,1,0.5,1,0.5h0.3c0.8,0,1-0.8,1-1c0,0,0.3,0,0.3-0.3c0-0.3,0-0.5-0.3-0.8l-0.3-0.3C157.9,98.3,157.1,98.3,156.6,98.6z
		 M160.7,98.3L160.7,98.3L160.7,98.3C161,98.3,161,98.1,160.7,98.3c0.5-3.1,0.3-3.3,0.3-3.3c-0.3-0.3-0.5-0.5-1.5-0.8h-0.3
		c-0.3,0-0.8,0-0.8,0.8c0,0.3,0,0.8,0,1C158.2,96.3,159.5,98.1,160.7,98.3z"/>
	<g>
		<g>
			<path fill="#FFFFFF" d="M32.1,243.2h12.3v1.2h-11v6.8h9.9v1.2h-9.9v6.9h11.1v1.2H32.1V243.2z"/>
			<path fill="#FFFFFF" d="M53.7,243.2H55v17.2h-1.3V243.2z"/>
			<path fill="#FFFFFF" d="M64.4,251.8L64.4,251.8c0-4.7,3.4-9,8.5-9c2.8,0,4.6,0.8,6.3,2.3l-0.8,1c-1.4-1.2-2.9-2.1-5.5-2.1
				c-4.2,0-7.1,3.5-7.1,7.7v0.1c0,4.5,2.8,7.8,7.4,7.8c2.2,0,4.2-0.9,5.5-2v-4.9h-5.8v-1.2h7v6.6c-1.6,1.4-4,2.6-6.8,2.6
				C67.7,260.7,64.4,256.7,64.4,251.8z"/>
			<path fill="#FFFFFF" d="M89.4,243.2h1.3v8h11v-8h1.3v17.2h-1.3v-8.1h-11v8.1h-1.3V243.2z"/>
			<path fill="#FFFFFF" d="M117.9,244.4h-6v-1.2h13.3v1.2h-6v16.1h-1.3V244.4z"/>
			<path fill="#FFFFFF" d="M139.6,253.6l-7.4-10.4h1.6l6.4,9.3l6.5-9.3h1.5l-7.4,10.4v6.8h-1.3V253.6z"/>
			<path fill="#FFFFFF" d="M153.7,252.4h6.6v1.4h-6.6V252.4z"/>
			<path fill="#FFFFFF" d="M172.1,244.4h-6v-1.2h13.3v1.2h-6v16.1h-1.3V244.4z"/>
			<path fill="#FFFFFF" d="M188.2,243.2h1.3v8h11v-8h1.3v17.2h-1.3v-8.1h-11v8.1h-1.3V243.2z"/>
			<path fill="#FFFFFF" d="M211.9,243.2h7.2c2.1,0,3.8,0.7,4.8,1.7c0.8,0.8,1.3,2,1.3,3.2v0.1c0,2.9-2.1,4.5-5,4.9l5.7,7.4h-1.6
				l-5.5-7.1h-5.6v7.1h-1.3V243.2z M219,252.1c2.9,0,5-1.5,5-3.9v0c0-2.3-1.8-3.8-4.9-3.8h-5.9v7.8H219z"/>
			<path fill="#FFFFFF" d="M234.6,243.2h12.3v1.2h-11v6.8h9.9v1.2h-9.9v6.9H247v1.2h-12.4V243.2z"/>
			<path fill="#FFFFFF" d="M256,243.2h12.3v1.2h-11v6.8h9.9v1.2h-9.9v6.9h11.1v1.2H256V243.2z"/>
		</g>
		<g>
			<path fill="#FFFFFF" d="M30.6,281.9L30.6,281.9c0-4.9,3.6-9,8.6-9c3.1,0,4.9,1.1,6.7,2.8l-0.9,0.9c-1.5-1.5-3.2-2.5-5.8-2.5
				c-4.1,0-7.3,3.4-7.3,7.7v0c0,4.4,3.2,7.8,7.3,7.8c2.5,0,4.2-1,5.9-2.7l0.9,0.8c-1.8,1.8-3.8,3-6.8,3
				C34.2,290.8,30.6,286.8,30.6,281.9z"/>
			<path fill="#FFFFFF" d="M53.2,281.9L53.2,281.9c0-4.8,3.5-9,8.7-9c5.2,0,8.6,4.2,8.6,8.9v0c0,4.7-3.5,8.9-8.7,8.9
				C56.6,290.8,53.2,286.6,53.2,281.9z M69.2,281.9L69.2,281.9c0-4.3-3.1-7.8-7.4-7.8s-7.3,3.4-7.3,7.7v0c0,4.3,3.1,7.8,7.4,7.8
				C66.1,289.6,69.2,286.2,69.2,281.9z"/>
			<path fill="#FFFFFF" d="M79.5,283.3v-10.1h1.3v9.9c0,4.1,2.2,6.4,5.8,6.4c3.5,0,5.7-2.1,5.7-6.3v-10.1h1.3v9.9
				c0,4.9-2.9,7.6-7.1,7.6C82.5,290.7,79.5,288.1,79.5,283.3z"/>
			<path fill="#FFFFFF" d="M103.5,273.2h1.2l11.9,15v-15h1.2v17.2h-1l-12.1-15.3v15.3h-1.2V273.2z"/>
			<path fill="#FFFFFF" d="M132.6,274.4h-6v-1.2h13.3v1.2h-6v16.1h-1.3V274.4z"/>
			<path fill="#FFFFFF" d="M148.9,273.2h1.3v17.2h-1.3V273.2z"/>
			<path fill="#FFFFFF" d="M160.4,273.2h12.3v1.2h-11v6.8h9.9v1.2h-9.9v6.9h11.1v1.2h-12.4V273.2z"/>
			<path fill="#FFFFFF" d="M180.7,288l0.8-1c1.9,1.7,3.6,2.6,6.2,2.6c2.6,0,4.4-1.5,4.4-3.4v0c0-1.8-1-2.9-4.9-3.7
				c-4.1-0.8-5.8-2.2-5.8-4.9v0c0-2.6,2.3-4.5,5.5-4.5c2.5,0,4.2,0.7,5.9,2.1l-0.8,1c-1.6-1.4-3.2-1.9-5.1-1.9
				c-2.5,0-4.2,1.5-4.2,3.2v0.1c0,1.8,0.9,2.9,5,3.8c4,0.8,5.7,2.2,5.7,4.8v0.1c0,2.8-2.4,4.7-5.7,4.7
				C184.9,290.7,182.8,289.8,180.7,288z"/>
			<path fill="#FFFFFF" d="M201.5,283.3L201.5,283.3c0-4,2.9-7.5,7.2-7.5s7.2,3.5,7.2,7.4v0c0,3.9-2.9,7.4-7.2,7.4
				C204.3,290.7,201.5,287.2,201.5,283.3z M214.8,283.3L214.8,283.3c0-3.6-2.6-6.5-6.1-6.5c-3.5,0-6.1,2.9-6.1,6.4v0
				c0,3.5,2.6,6.5,6.1,6.5C212.3,289.7,214.8,286.9,214.8,283.3z"/>
			<path fill="#FFFFFF" d="M223.7,276.1h10.1v1h-9v5.9h8.1v1h-8.1v6.5h-1.1V276.1z"/>
			<path fill="#FFFFFF" d="M241.7,273.2h1.2l6.9,10.2l6.9-10.2h1.2v17.2h-1.3v-15l-6.8,9.9h-0.1l-6.8-9.9v15h-1.2V273.2z"/>
			<path fill="#FFFFFF" d="M268.1,273.2h1.3v17.2h-1.3V273.2z"/>
		</g>
	</g>
</g>
</svg>
