<?xml version="1.0" encoding="utf-8"?>
<!-- Generator: Adobe Illustrator 17.1.0, SVG Export Plug-In . SVG Version: 6.00 Build 0)  -->
<!DOCTYPE svg PUBLIC "-//W3C//DTD SVG 1.1//EN" "http://www.w3.org/Graphics/SVG/1.1/DTD/svg11.dtd">
<svg version="1.1" id="Layer_1" xmlns="http://www.w3.org/2000/svg" xmlns:xlink="http://www.w3.org/1999/xlink" x="0px" y="0px"
	 viewBox="0 0 100 100" enable-background="new 0 0 100 100" xml:space="preserve">
<g>
	<g>
		<path fill="#FFFFFF" d="M7.7,49l0.2,2.3L5,53.3l3.1,1.6l0.2,2.3l-7.7,0.6l-0.2-2.1l4.4-0.3l-3.2-1.8l0,0l2.9-2.2l-4.4,0.3L0,49.6
			L7.7,49z"/>
		<path fill="#FFFFFF" d="M9.9,62.7l0.7,2l-6.3,5.6l-0.7-2.2l1.1-1l-1-2.8l-1.5-0.1l-0.7-2.1L9.9,62.7z M6,66l1.8-1.5l-2.4-0.1L6,66
			z"/>
		<path fill="#FFFFFF" d="M12.7,70l1.6,2.5c1.5,2.3,1,4.5-0.8,5.7l0,0c-1.9,1.2-4.2,0.8-5.7-1.6l-1.6-2.5L12.7,70z M9.5,75.7
			c0.7,1.1,1.8,1.4,2.8,0.7l0,0c1-0.7,1.2-1.8,0.5-2.9l-0.5-0.7L9,75L9.5,75.7z"/>
		<path fill="#FFFFFF" d="M18.7,78.4l4.5,4.3L21.9,84l-3-2.8L18.1,82l2.7,2.6l-1.2,1.2l-2.7-2.6l-0.9,0.9l3,2.9l-1.3,1.3l-4.5-4.4
			L18.7,78.4z"/>
		<path fill="#FFFFFF" d="M31.3,87.8l2,0.9l-3.3,7l-2-0.9L31.3,87.8z"/>
		<path fill="#FFFFFF" d="M36.9,90.3l1.9,0.5l2.2,4.7l0.9-4L44,92l-1.8,7.5l-1.8-0.4l-2.2-4.9l-1,4.1l-2.1-0.5L36.9,90.3z"/>
		<path fill="#FFFFFF" d="M53.5,92.3l2.9-0.5c2.7-0.5,4.6,0.9,4.9,3.1l0,0c0.4,2.2-1,4.1-3.7,4.6l-2.9,0.5L53.5,92.3z M57.5,97.5
			c1.3-0.2,2-1,1.8-2.3l0,0c-0.2-1.2-1.2-1.8-2.4-1.6L56,93.8l0.6,3.9L57.5,97.5z"/>
		<path fill="#FFFFFF" d="M63.7,90.1l5.7-2.4l0.7,1.7L66.4,91l0.5,1.1l3.4-1.4l0.7,1.6l-3.4,1.4l0.5,1.1l3.8-1.6l0.7,1.7l-5.8,2.4
			L63.7,90.1z"/>
		<path fill="#FFFFFF" d="M75.2,86.3l-1.9,1.4l-1.1-1.5l5.5-4l1.1,1.5L77,85l3.5,4.7L78.7,91L75.2,86.3z"/>
		<path fill="#FFFFFF" d="M80.2,79.8l2.4-2.8c0.8-0.9,1.5-1.3,2.3-1.4c0.6-0.1,1.2,0.2,1.8,0.6l0,0c0.9,0.8,1.1,1.8,0.8,2.8l3.3,0.3
			l-1.6,1.9L86.3,81l-0.6,0.7l1.8,1.5l-1.4,1.6L80.2,79.8z M85.3,79.5c0.5-0.6,0.5-1.1,0-1.5l0,0c-0.5-0.4-1-0.3-1.5,0.3L83,79.4
			l1.4,1.2L85.3,79.5z"/>
		<path fill="#FFFFFF" d="M89.6,74.2L89.6,74.2c-2-1-2.8-3.4-1.8-5.5c1.1-2.1,3.4-2.9,5.4-2l0,0c2,1,2.8,3.4,1.8,5.5
			C94,74.4,91.6,75.2,89.6,74.2z M92.3,68.7L92.3,68.7c-1-0.5-2.3-0.2-2.8,0.8c-0.5,1.1,0,2.2,1,2.7l0,0c1,0.5,2.2,0.2,2.8-0.8
			C93.8,70.4,93.3,69.2,92.3,68.7z"/>
		<path fill="#FFFFFF" d="M90.6,62.3l0.6-2.1l7.5,2L98,64.3L90.6,62.3z"/>
		<path fill="#FFFFFF" d="M94,54.5l-0.2,2.3l-1.9-0.1l0.5-6.8l1.9,0.1l-0.2,2.3l5.8,0.4L99.8,55L94,54.5z"/>
	</g>
	<g>
		<path fill="#FFFFFF" d="M4.5,29.3l1-1.9l2.8,1.5l-1.5-3.8L8,22.9L9.6,27l5.3-0.6l-1.2,2.3l-3.5,0.3l0.4,1.1l1.8,0.9l-1,1.9
			L4.5,29.3z"/>
		<path fill="#FFFFFF" d="M12.6,17l1.4-1.5l8,2.8L20.4,20L19,19.5l-2,2.2l0.6,1.3l-1.5,1.7L12.6,17z M17.4,18.8l-2.2-0.9l1,2.1
			L17.4,18.8z"/>
		<path fill="#FFFFFF" d="M20.2,9.9L22,8.7l3.2,4.9l3.1-2.1l1,1.6l-4.9,3.3L20.2,9.9z"/>
		<path fill="#FFFFFF" d="M29.6,4.5l2-0.8l3,7.1l-2,0.8L29.6,4.5z"/>
		<path fill="#FFFFFF" d="M36.8,1.7l2-0.4l3.9,3.4l-0.8-4L44,0.3l1.5,7.6l-1.8,0.4l-4.1-3.5l0.8,4.2l-2.1,0.4L36.8,1.7z"/>
		<path fill="#FFFFFF" d="M56.3,0.1l2.2,0.5l0.2,4.7l2.5-4l1.8,0.4l0.4,4.7l2.4-4L68,3l-4.4,7l-1.8-0.4l-0.4-4.7l-2.6,4l-1.8-0.4
			L56.3,0.1z"/>
		<path fill="#FFFFFF" d="M70.2,8.4L70.2,8.4c1.2-1.9,3.6-2.6,5.7-1.3c2.1,1.2,2.7,3.7,1.5,5.6l0,0c-1.1,1.9-3.6,2.5-5.7,1.3
			S69,10.3,70.2,8.4z M75.5,11.5L75.5,11.5c0.6-1,0.4-2.2-0.6-2.8c-1-0.6-2.2-0.2-2.7,0.8l0,0c-0.6,1-0.4,2.2,0.6,2.8
			C73.7,12.9,74.9,12.5,75.5,11.5z"/>
		<path fill="#FFFFFF" d="M80.6,15.3L80.6,15.3c1.6-1.5,4.2-1.5,5.8,0.2c1.6,1.7,1.6,4.2,0,5.8l0,0c-1.6,1.5-4.2,1.5-5.8-0.3
			C78.9,19.3,79,16.8,80.6,15.3z M84.8,19.7L84.8,19.7c0.8-0.8,1-2,0.2-2.9c-0.8-0.8-2-0.8-2.8,0l0,0c-0.8,0.8-1,2-0.2,2.9
			C82.8,20.6,84,20.5,84.8,19.7z"/>
		<path fill="#FFFFFF" d="M92.3,23.1l1.4,2.6c1.3,2.4,0.7,4.6-1.3,5.7l0,0c-2,1.1-4.2,0.4-5.5-2l-1.4-2.6L92.3,23.1z M88.7,28.6
			c0.6,1.1,1.6,1.5,2.7,0.9l0,0c1.1-0.6,1.3-1.7,0.7-2.8l-0.4-0.8l-3.5,1.9L88.7,28.6z"/>
	</g>
	<g>
		<g>
			<g>
				<path fill="#FFFFFF" d="M40.6,62.3c-6.5,0-7.7-4.1-8-5.9c-0.4-3.3,0.4-5,2.6-5.6c0.6-0.2,2.7-0.4,5-0.4c5,0,7.7,1.3,8.1,3.6
					c0.3,2.2-0.4,4.3-1.8,5.9C45,61.5,43,62.3,40.6,62.3z M40.2,51.6c-2.3,0-4.1,0.3-4.7,0.4c-1.1,0.3-2.1,0.9-1.7,4.2
					c0.4,3.1,2.8,4.8,6.7,4.8c1.9,0,3.7-0.7,4.8-2c1.1-1.3,1.7-3.1,1.5-4.9C46.7,51.9,42.2,51.6,40.2,51.6z"/>
			</g>
			<g>
				<path fill="#FFFFFF" d="M59.7,62.3c-2.3,0-4.4-0.9-5.9-2.4c-1.4-1.6-2.1-3.7-1.8-5.9c0.3-2.3,3-3.6,8.1-3.6c2.3,0,4.3,0.3,5,0.4
					c2.3,0.6,3,2.3,2.6,5.6C67.5,58.2,66.2,62.3,59.7,62.3z M60.1,51.6c-1.9,0-6.5,0.3-6.7,2.4c-0.2,1.8,0.4,3.6,1.5,4.9
					c1.2,1.3,2.9,2,4.8,2c3.9,0,6.3-1.7,6.7-4.8c0.4-3.3-0.6-3.9-1.7-4.2C64.3,52,62.3,51.6,60.1,51.6z"/>
			</g>
			<g>
				<path fill="#FFFFFF" d="M52.9,53.9c-0.1,0-0.2,0-0.3-0.1c-2.3-1.3-4.9,0-4.9,0c-0.3,0.1-0.7,0-0.9-0.3c-0.1-0.3,0-0.7,0.3-0.9
					c0.1-0.1,3.2-1.6,6.1,0c0.3,0.2,0.4,0.6,0.3,0.9C53.3,53.8,53.1,53.9,52.9,53.9z"/>
			</g>
		</g>
		<g>
			<path fill="#FFFFFF" d="M50.1,65.9c-3,0-3.8-1.8-3.8-2.8c0-0.4,0.3-0.6,0.6-0.6c0.4,0,0.6,0.3,0.6,0.6c0,0.2,0.1,1.5,2.6,1.5
				c2.4,0,2.6-1.3,2.6-1.5c0-0.4,0.3-0.6,0.6-0.6c0.4,0,0.6,0.3,0.6,0.6C54,64.1,53.1,65.9,50.1,65.9z"/>
		</g>
		<g>
			<path fill="#FFFFFF" d="M54,71.3h-7.7c-0.4,0-0.6-0.3-0.6-0.6c0-0.4,0.3-0.6,0.6-0.6H54c0.4,0,0.6,0.3,0.6,0.6
				C54.6,70.9,54.3,71.3,54,71.3z"/>
		</g>
		<g>
			<path fill="#FFFFFF" d="M51.4,73.8h-2.5c-0.4,0-0.6-0.3-0.6-0.6c0-0.4,0.3-0.6,0.6-0.6h2.5c0.4,0,0.6,0.3,0.6,0.6
				C52.1,73.5,51.8,73.8,51.4,73.8z"/>
		</g>
		<g>
			<path fill="#FFFFFF" d="M68,43.1c-0.2,0-0.3-0.1-0.4-0.2c-0.1-0.1-5.2-4.9-17.5-4.9s-17.4,4.9-17.5,4.9c-0.2,0.2-0.4,0.3-0.7,0.1
				c-0.3-0.1-0.4-0.3-0.4-0.6v-7.7c0-0.2,0-4,2.3-8c3.8-6.6,10.9-8,16.2-8s12.4,1.4,16.2,8c2.3,4,2.3,7.9,2.3,8v7.7
				c0,0.3-0.1,0.5-0.4,0.6C68.2,43.1,68.1,43.1,68,43.1z M50.1,20.1c-7.2,0-12.3,2.4-15.1,7.4c-2.1,3.6-2.2,7.4-2.2,7.4v6.4
				c2.1-1.5,7.5-4.4,17.3-4.4c9.7,0,15.2,2.9,17.3,4.4v-6.4c0-0.1-0.1-3.8-2.2-7.4C62.4,22.5,57.3,20.1,50.1,20.1z"/>
		</g>
		<g>
			<path fill="#FFFFFF" d="M69.5,45.8c-0.1,0-0.1,0-0.2-0.1c-0.1,0-8.4-2.8-19.2-2.8S31,45.7,30.9,45.8c-0.3,0.1-0.6,0-0.8-0.2
				C30,45.3,30,45,30.1,44.8l1.6-2.8l1.2,0.7L32.1,44c3-0.8,9.7-2.3,17.9-2.3S65,43.2,68,44l-0.8-1.3l1.2-0.7l1.6,2.8
				c0.1,0.3,0.1,0.6-0.1,0.8C69.9,45.7,69.7,45.8,69.5,45.8z"/>
		</g>
		<g>
			<circle fill="#FFFFFF" cx="40.5" cy="54.6" r="1.9"/>
		</g>
		<g>
			<circle fill="#FFFFFF" cx="59.7" cy="54.6" r="1.9"/>
		</g>
		<g>
			<path fill="#FFFFFF" d="M45,42.5l14.1,5.4l-1.3-2.6h2.6l-1.3-2.6C59,42.8,52.7,42.5,45,42.5z"/>
		</g>
		<g>
			<path fill="#FFFFFF" d="M46.3,48.9c0,0.7-0.6,1.3-1.3,1.3h-7.7c-0.7,0-1.3-0.6-1.3-1.3l0,0c0-0.7,0.6-1.3,1.3-1.3H45
				C45.7,47.6,46.3,48.2,46.3,48.9L46.3,48.9z"/>
		</g>
		<g>
			<path fill="#FFFFFF" d="M64.2,48.9c0,0.7-0.6,1.3-1.3,1.3h-7.7c-0.7,0-1.3-0.6-1.3-1.3l0,0c0-0.7,0.6-1.3,1.3-1.3h7.7
				C63.6,47.6,64.2,48.2,64.2,48.9L64.2,48.9z"/>
		</g>
		<g>
			<path fill="#FFFFFF" d="M50.1,81.7c-7.7,0-11.4-5.1-14.6-9.6c-0.3-0.5-0.7-0.9-1-1.4c-2.9-4-2.9-12.5-2.9-12.9V45
				c0-0.4,0.3-0.6,0.6-0.6c0.4,0,0.6,0.3,0.6,0.6v12.8c0,0.1,0.1,8.5,2.7,12.1c0.4,0.5,0.7,0.9,1.1,1.4c3.1,4.5,6.4,9.1,13.5,9.1
				c0.4,0,0.6,0.3,0.6,0.6C50.7,81.4,50.5,81.7,50.1,81.7z"/>
		</g>
		<g>
			<path fill="#FFFFFF" d="M50.1,81.7c-0.4,0-0.6-0.3-0.6-0.6c0-0.4,0.3-0.6,0.6-0.6c7.1,0,10.4-4.6,13.5-9c0.4-0.5,0.7-1,1.1-1.4
				c2.6-3.6,2.7-12,2.7-12.1V45c0-0.4,0.3-0.6,0.6-0.6c0.4,0,0.6,0.3,0.6,0.6v12.8c0,0.4-0.1,8.9-2.9,12.9c-0.4,0.5-0.7,0.9-1,1.4
				C61.5,76.6,57.8,81.7,50.1,81.7z"/>
		</g>
		<g>
			<path fill="#FFFFFF" stroke="#231F20" stroke-width="1.2789" stroke-linecap="round" stroke-miterlimit="10" d="M50.1,81.1"/>
		</g>
		<g>
			<path fill="#FFFFFF" d="M68,58.5c-0.4,0-0.6-0.3-0.6-0.6V45c0-0.4,0.3-0.6,0.6-0.6c0.4,0,0.6,0.3,0.6,0.6v12.8
				C68.7,58.2,68.3,58.5,68,58.5z"/>
		</g>
		<g>
			<polygon fill="#FFFFFF" points="31.5,44.9 28.2,49.5 30.8,49.5 29.9,52.1 32.2,51.5 			"/>
		</g>
		<g>
			<polygon fill="#FFFFFF" points="68.7,44.9 72.1,49.5 69.5,49.5 70.4,52.1 68,51.5 			"/>
		</g>
		<g>
			<g>
				<path fill="#FFFFFF" d="M36.8,73.3c-0.3,0-0.5-0.3-0.5-0.5v-3.2c0-0.3,0.3-0.5,0.5-0.5c0.2,0,0.5,0.3,0.5,0.5v3.2
					C37.3,73.1,37.1,73.3,36.8,73.3z"/>
			</g>
			<g>
				<path fill="#FFFFFF" d="M38.8,75.9c-0.3,0-0.5-0.3-0.5-0.5v-3.2c0-0.3,0.3-0.5,0.5-0.5c0.3,0,0.5,0.3,0.5,0.5v3.2
					C39.3,75.7,39.1,75.9,38.8,75.9z"/>
			</g>
			<g>
				<path fill="#FFFFFF" d="M40.8,78.2c-0.3,0-0.5-0.3-0.5-0.5v-3.2c0-0.3,0.3-0.5,0.5-0.5c0.3,0,0.5,0.3,0.5,0.5v3.2
					C41.3,77.9,41.1,78.2,40.8,78.2z"/>
			</g>
			<g>
				<path fill="#FFFFFF" d="M42.8,79.7c-0.3,0-0.5-0.3-0.5-0.5V76c0-0.3,0.3-0.5,0.5-0.5c0.3,0,0.5,0.3,0.5,0.5v3.2
					C43.3,79.5,43.1,79.7,42.8,79.7z"/>
			</g>
			<g>
				<path fill="#FFFFFF" d="M44.8,80.7c-0.3,0-0.5-0.3-0.5-0.5V77c0-0.3,0.3-0.5,0.5-0.5c0.3,0,0.5,0.3,0.5,0.5v3.2
					C45.3,80.5,45.1,80.7,44.8,80.7z"/>
			</g>
			<g>
				<path fill="#FFFFFF" d="M46.8,81.3c-0.3,0-0.5-0.3-0.5-0.5v-3.2c0-0.3,0.3-0.5,0.5-0.5c0.3,0,0.5,0.3,0.5,0.5v3.2
					C47.3,81.1,47.1,81.3,46.8,81.3z"/>
			</g>
			<g>
				<path fill="#FFFFFF" d="M48.9,81.3c-0.3,0-0.5-0.3-0.5-0.5v-3.2c0-0.3,0.3-0.5,0.5-0.5c0.3,0,0.5,0.3,0.5,0.5v3.2
					C49.4,81.1,49.1,81.3,48.9,81.3z"/>
			</g>
		</g>
		<g>
			<g>
				<path fill="#FFFFFF" d="M63.5,73.3c-0.3,0-0.5-0.3-0.5-0.5v-3.2c0-0.3,0.3-0.5,0.5-0.5c0.2,0,0.5,0.3,0.5,0.5v3.2
					C64,73.1,63.7,73.3,63.5,73.3z"/>
			</g>
			<g>
				<path fill="#FFFFFF" d="M61.4,75.8c-0.3,0-0.5-0.3-0.5-0.5v-3.2c0-0.3,0.3-0.5,0.5-0.5c0.2,0,0.5,0.3,0.5,0.5v3.2
					C61.9,75.7,61.7,75.8,61.4,75.8z"/>
			</g>
			<g>
				<path fill="#FFFFFF" d="M59.4,78.1c-0.3,0-0.5-0.3-0.5-0.5v-3.2c0-0.3,0.3-0.5,0.5-0.5c0.3,0,0.5,0.3,0.5,0.5v3.2
					C59.9,77.8,59.7,78.1,59.4,78.1z"/>
			</g>
			<g>
				<path fill="#FFFFFF" d="M57.4,79.7c-0.3,0-0.5-0.3-0.5-0.5V76c0-0.3,0.3-0.5,0.5-0.5c0.3,0,0.5,0.3,0.5,0.5v3.2
					C57.9,79.5,57.7,79.7,57.4,79.7z"/>
			</g>
			<g>
				<path fill="#FFFFFF" d="M55.4,80.6c-0.3,0-0.5-0.3-0.5-0.5v-3.2c0-0.3,0.3-0.5,0.5-0.5c0.2,0,0.5,0.3,0.5,0.5v3.2
					C55.9,80.4,55.7,80.6,55.4,80.6z"/>
			</g>
			<g>
				<path fill="#FFFFFF" d="M53.4,81.3c-0.3,0-0.5-0.3-0.5-0.5v-3.2c0-0.3,0.3-0.5,0.5-0.5c0.2,0,0.5,0.2,0.5,0.5v3.2
					C53.9,81.1,53.7,81.3,53.4,81.3z"/>
			</g>
			<g>
				<path fill="#FFFFFF" d="M51.4,81.3c-0.3,0-0.5-0.3-0.5-0.5v-3.2c0-0.3,0.3-0.5,0.5-0.5c0.3,0,0.5,0.3,0.5,0.5v3.2
					C51.9,81.1,51.7,81.3,51.4,81.3z"/>
			</g>
		</g>
		<g>
			<path fill="#FFFFFF" d="M52.1,33.8h-4.6c-0.3,0-0.4-0.2-0.4-0.4s0.2-0.4,0.4-0.4h4.6c1.3,0,1.4-1.3,1.4-1.4v-3.6
				c0-1.3-1.1-1.4-1.4-1.4h-4.6c-0.3,0-0.4-0.2-0.4-0.4c0-0.3,0.2-0.4,0.4-0.4h4.6c0.1,0,0.6,0,1.1,0.3c0.8,0.4,1.2,1.1,1.2,2v3.6
				c0,0.1,0,0.6-0.3,1.1C53.8,33.4,53.1,33.8,52.1,33.8z"/>
		</g>
		<g>
			<path fill="#FFFFFF" d="M48.5,33.8c-0.3,0-0.4-0.2-0.4-0.4V26c0-0.3,0.2-0.4,0.4-0.4c0.2,0,0.4,0.2,0.4,0.4v7.3
				C48.9,33.6,48.7,33.8,48.5,33.8z"/>
		</g>
		<g>
			<path fill="#FFFFFF" d="M50.3,33.8c-0.3,0-0.4-0.2-0.4-0.4V26c0-0.3,0.2-0.4,0.4-0.4c0.3,0,0.4,0.2,0.4,0.4v7.3
				C50.7,33.6,50.6,33.8,50.3,33.8z"/>
		</g>
		<g>
			<path fill="#FFFFFF" d="M48.5,29.2h-0.9c-0.3,0-0.4-0.2-0.4-0.4s0.2-0.4,0.4-0.4h0.9c0.3,0,0.4,0.2,0.4,0.4
				C48.9,29,48.7,29.2,48.5,29.2z"/>
		</g>
		<g>
			<path fill="#FFFFFF" d="M50.3,28.3h-1.8c-0.3,0-0.4-0.2-0.4-0.4c0-0.3,0.2-0.4,0.4-0.4h1.8c0.3,0,0.4,0.2,0.4,0.4
				S50.6,28.3,50.3,28.3z"/>
		</g>
		<g>
			<path fill="#FFFFFF" d="M50.3,32h-1.8c-0.3,0-0.4-0.2-0.4-0.4c0-0.3,0.2-0.4,0.4-0.4h1.8c0.3,0,0.4,0.2,0.4,0.4S50.6,32,50.3,32z
				"/>
		</g>
		<g>
			<path fill="#FFFFFF" d="M48.5,31.1h-0.9c-0.3,0-0.4-0.2-0.4-0.4c0-0.3,0.2-0.4,0.4-0.4h0.9c0.3,0,0.4,0.2,0.4,0.4
				C48.9,30.8,48.7,31.1,48.5,31.1z"/>
		</g>
		<g>
			<path fill="#FFFFFF" d="M50.3,29.2c-0.3,0-0.4-0.2-0.4-0.4s0.2-0.4,0.4-0.4c1.4,0,2.9-0.3,3.2-0.5c0-0.3,0.2-0.4,0.4-0.4
				c0.3,0,0.4,0.2,0.4,0.4C54.4,28.5,53.7,29.2,50.3,29.2z"/>
		</g>
		<g>
			<path fill="#FFFFFF" d="M54,32c-0.3,0-0.4-0.2-0.4-0.4c-0.3-0.3-1.8-0.5-3.2-0.5c-0.3,0-0.4-0.2-0.4-0.4c0-0.3,0.2-0.4,0.4-0.4
				c3.4,0,4.1,0.8,4.1,1.4C54.4,31.8,54.2,32,54,32z"/>
		</g>
		<g>
			<path fill="#FFFFFF" d="M48,68.7c-0.3,0-0.5-0.3-0.5-0.5V67c0-0.3,0.3-0.5,0.5-0.5c0.3,0,0.5,0.3,0.5,0.5v1.2
				C48.5,68.5,48.3,68.7,48,68.7z"/>
		</g>
		<g>
			<path fill="#FFFFFF" d="M46.1,69c-0.3,0-0.5-0.3-0.5-0.5v-1.2c0-0.3,0.3-0.5,0.5-0.5s0.5,0.3,0.5,0.5v1.2
				C46.6,68.9,46.4,69,46.1,69z"/>
		</g>
		<g>
			<path fill="#FFFFFF" d="M44.2,69.4c-0.3,0-0.5-0.3-0.5-0.5v-1.2c0-0.3,0.3-0.5,0.5-0.5c0.3,0,0.5,0.3,0.5,0.5v1.2
				C44.7,69.2,44.5,69.4,44.2,69.4z"/>
		</g>
		<g>
			<path fill="#FFFFFF" d="M42.3,70.1c-0.3,0-0.5-0.3-0.5-0.5v-1.2c0-0.3,0.3-0.5,0.5-0.5c0.2,0,0.5,0.3,0.5,0.5v1.2
				C42.8,69.8,42.6,70.1,42.3,70.1z"/>
		</g>
		<g>
			<path fill="#FFFFFF" d="M52.1,68.7c-0.3,0-0.5-0.3-0.5-0.5V67c0-0.3,0.3-0.5,0.5-0.5c0.3,0,0.5,0.3,0.5,0.5v1.2
				C52.6,68.5,52.4,68.7,52.1,68.7z"/>
		</g>
		<g>
			<path fill="#FFFFFF" d="M54,69c-0.3,0-0.5-0.3-0.5-0.5v-1.2c0-0.3,0.3-0.5,0.5-0.5c0.3,0,0.5,0.3,0.5,0.5v1.2
				C54.5,68.9,54.3,69,54,69z"/>
		</g>
		<g>
			<path fill="#FFFFFF" d="M56,69.4c-0.3,0-0.5-0.3-0.5-0.5v-1.2c0-0.3,0.3-0.5,0.5-0.5c0.3,0,0.5,0.3,0.5,0.5v1.2
				C56.5,69.2,56.2,69.4,56,69.4z"/>
		</g>
		<g>
			<path fill="#FFFFFF" d="M57.8,70.1c-0.3,0-0.5-0.3-0.5-0.5v-1.2c0-0.3,0.3-0.5,0.5-0.5c0.2,0,0.5,0.3,0.5,0.5v1.2
				C58.3,69.8,58.2,70.1,57.8,70.1z"/>
		</g>
	</g>
</g>
</svg>
