<?xml version="1.0" encoding="utf-8"?>
<!-- Generator: Adobe Illustrator 17.1.0, SVG Export Plug-In . SVG Version: 6.00 Build 0)  -->
<!DOCTYPE svg PUBLIC "-//W3C//DTD SVG 1.1//EN" "http://www.w3.org/Graphics/SVG/1.1/DTD/svg11.dtd">
<svg version="1.1" id="Layer_1" xmlns="http://www.w3.org/2000/svg" xmlns:xlink="http://www.w3.org/1999/xlink" x="0px" y="0px"
	 viewBox="0 0 792 612" enable-background="new 0 0 792 612" xml:space="preserve">
<circle fill="#FFF9F0" cx="396" cy="306" r="306"/>
<g>
	<g>
		<path fill="#0B2C3C" d="M169.6,300.7l1.1,12.3l-15.5,10.7l16.6,8.6l1.1,12.3l-41.2,3.2l-1.1-11.2l23.5-1.6l-17.1-9.6l0,0
			l15.5-11.8l-23.5,1.6l-0.5-11.2L169.6,300.7z"/>
		<path fill="#0B2C3C" d="M181.4,374l3.7,10.7l-33.7,30l-3.7-11.8l5.9-5.4l-5.4-15l-8-0.5l-3.7-11.2L181.4,374z M160.5,391.7l9.6-8
			l-12.8-0.5L160.5,391.7z"/>
		<path fill="#0B2C3C" d="M196.4,413.1l8.6,13.4c8,12.3,5.4,24.1-4.3,30.5l0,0c-10.2,6.4-22.5,4.3-30.5-8.6l-8.6-13.4L196.4,413.1z
			 M179.2,443.6c3.7,5.9,9.6,7.5,15,3.7l0,0c5.4-3.7,6.4-9.6,2.7-15.5l-2.7-3.7l-17.7,11.8L179.2,443.6z"/>
		<path fill="#0B2C3C" d="M228.5,458l24.1,23l-7,7l-16.1-15l-4.3,4.3l14.4,13.9l-6.4,6.4l-14.4-13.9l-4.8,4.8l16.1,15.5l-7,7
			L199,487.5L228.5,458z"/>
		<path fill="#0B2C3C" d="M295.9,508.3l10.7,4.8l-17.7,37.5l-10.7-4.8L295.9,508.3z"/>
		<path fill="#0B2C3C" d="M325.9,521.7l10.2,2.7l11.8,25.2l4.8-21.4l11.2,2.7l-9.6,40.1l-9.6-2.1l-11.8-26.2l-5.4,21.9l-11.2-2.7
			L325.9,521.7z"/>
		<path fill="#0B2C3C" d="M414.7,532.4l15.5-2.7c14.4-2.7,24.6,4.8,26.2,16.6l0,0c2.1,11.8-5.4,21.9-19.8,24.6l-15.5,2.7
			L414.7,532.4z M436.1,560.2c7-1.1,10.7-5.4,9.6-12.3l0,0c-1.1-6.4-6.4-9.6-12.8-8.6l-4.8,1.1l3.2,20.9L436.1,560.2z"/>
		<path fill="#0B2C3C" d="M469.3,520.6l30.5-12.8l3.7,9.1l-19.8,8.6l2.7,5.9l18.2-7.5l3.7,8.6l-18.2,7.5l2.7,5.9l20.3-8.6l3.7,9.1
			l-31,12.8L469.3,520.6z"/>
		<path fill="#0B2C3C" d="M530.8,500.3l-10.2,7.5l-5.9-8l29.4-21.4l5.9,8l-9.6,7l18.7,25.2l-9.6,7L530.8,500.3z"/>
		<path fill="#0B2C3C" d="M557.6,465.5l12.8-15c4.3-4.8,8-7,12.3-7.5c3.2-0.5,6.4,1.1,9.6,3.2l0,0c4.8,4.3,5.9,9.6,4.3,15l17.7,1.6
			l-8.6,10.2l-15.5-1.1l-3.2,3.7l9.6,8l-7.5,8.6L557.6,465.5z M584.9,463.9c2.7-3.2,2.7-5.9,0-8l0,0c-2.7-2.1-5.4-1.6-8,1.6
			l-4.3,5.9l7.5,6.4L584.9,463.9z"/>
		<path fill="#0B2C3C" d="M607.9,435.5L607.9,435.5c-10.7-5.4-15-18.2-9.6-29.4c5.9-11.2,18.2-15.5,28.9-10.7l0,0
			c10.7,5.4,15,18.2,9.6,29.4C631.4,436.6,618.6,440.9,607.9,435.5z M622.3,406.1L622.3,406.1c-5.4-2.7-12.3-1.1-15,4.3
			c-2.7,5.9,0,11.8,5.4,14.4l0,0c5.4,2.7,11.8,1.1,15-4.3C630.4,415.2,627.7,408.8,622.3,406.1z"/>
		<path fill="#0B2C3C" d="M613.2,371.9l3.2-11.2l40.1,10.7l-3.7,11.2L613.2,371.9z"/>
		<path fill="#0B2C3C" d="M631.4,330.1l-1.1,12.3l-10.2-0.5l2.7-36.4L633,306l-1.1,12.3l31,2.1l-0.5,12.3L631.4,330.1z"/>
	</g>
	<g>
		<path fill="#0B2C3C" d="M152.5,195.3l5.4-10.2l15,8l-8-20.3l6.4-11.8l8.6,21.9l28.4-3.2l-6.4,12.3l-18.7,1.6l2.1,5.9l9.6,4.8
			l-5.4,10.2L152.5,195.3z"/>
		<path fill="#0B2C3C" d="M195.8,129.4l7.5-8l42.8,15l-8.6,9.1l-7.5-2.7l-10.7,11.8l3.2,7l-8,9.1L195.8,129.4z M221.5,139.1
			l-11.8-4.8l5.4,11.2L221.5,139.1z"/>
		<path fill="#0B2C3C" d="M236.5,91.4l9.6-6.4l17.1,26.2l16.6-11.2l5.4,8.6L259,126.2L236.5,91.4z"/>
		<path fill="#0B2C3C" d="M286.8,62.5l10.7-4.3l16.1,38l-10.7,4.3L286.8,62.5z"/>
		<path fill="#0B2C3C" d="M325.3,47.6l10.7-2.1l20.9,18.2l-4.3-21.4l11.2-2.1l8,40.7l-9.6,2.1l-21.9-18.7l4.3,22.5l-11.2,2.1
			L325.3,47.6z"/>
		<path fill="#0B2C3C" d="M429.7,39l11.8,2.7l1.1,25.2l13.4-21.4l9.6,2.1l2.1,25.2l12.8-21.4l11.8,3.2L468.7,92l-9.6-2.1L457,64.7
			l-13.9,21.4l-9.6-2.1L429.7,39z"/>
		<path fill="#0B2C3C" d="M504.1,83.4L504.1,83.4c6.4-10.2,19.3-13.9,30.5-7c11.2,6.4,14.4,19.8,8,30l0,0
			c-5.9,10.2-19.3,13.4-30.5,7C500.9,107,497.6,93.6,504.1,83.4z M532.4,100L532.4,100c3.2-5.4,2.1-11.8-3.2-15
			c-5.4-3.2-11.8-1.1-14.4,4.3l0,0c-3.2,5.4-2.1,11.8,3.2,15C522.8,107.5,529.2,105.4,532.4,100z"/>
		<path fill="#0B2C3C" d="M559.7,120.3L559.7,120.3c8.6-8,22.5-8,31,1.1c8.6,9.1,8.6,22.5,0,31l0,0c-8.6,8-22.5,8-31-1.6
			C550.6,141.7,551.2,128.4,559.7,120.3z M582.2,143.9L582.2,143.9c4.3-4.3,5.4-10.7,1.1-15.5c-4.3-4.3-10.7-4.3-15,0l0,0
			c-4.3,4.3-5.4,10.7-1.1,15.5C571.5,148.7,577.9,148.2,582.2,143.9z"/>
		<path fill="#0B2C3C" d="M622.3,162.1l7.5,13.9c7,12.8,3.7,24.6-7,30.5l0,0c-10.7,5.9-22.5,2.1-29.4-10.7l-7.5-13.9L622.3,162.1z
			 M603.1,191.5c3.2,5.9,8.6,8,14.4,4.8l0,0c5.9-3.2,7-9.1,3.7-15l-2.1-4.3l-18.7,10.2L603.1,191.5z"/>
	</g>
	<g>
		<g>
			<g>
				<path fill="#0B2C3C" d="M345.7,371.9c-34.8,0-41.2-21.9-42.8-31.6c-2.1-17.7,2.1-26.8,13.9-30c3.2-1.1,14.4-2.1,26.8-2.1
					c26.8,0,41.2,7,43.3,19.3c1.6,11.8-2.1,23-9.6,31.6C369.2,367.6,358.5,371.9,345.7,371.9z M343.5,314.6
					c-12.3,0-21.9,1.6-25.2,2.1c-5.9,1.6-11.2,4.8-9.1,22.5c2.1,16.6,15,25.7,35.9,25.7c10.2,0,19.8-3.7,25.7-10.7s9.1-16.6,8-26.2
					C378.3,316.2,354.2,314.6,343.5,314.6z"/>
			</g>
			<g>
				<path fill="#0B2C3C" d="M447.9,371.9c-12.3,0-23.5-4.8-31.6-12.8c-7.5-8.6-11.2-19.8-9.6-31.6c1.6-12.3,16.1-19.3,43.3-19.3
					c12.3,0,23,1.6,26.8,2.1c12.3,3.2,16.1,12.3,13.9,30C489.6,349.9,482.7,371.9,447.9,371.9z M450,314.6
					c-10.2,0-34.8,1.6-35.9,12.8c-1.1,9.6,2.1,19.3,8,26.2c6.4,7,15.5,10.7,25.7,10.7c20.9,0,33.7-9.1,35.9-25.7
					c2.1-17.7-3.2-20.9-9.1-22.5C472.5,316.7,461.8,314.6,450,314.6z"/>
			</g>
			<g>
				<path fill="#0B2C3C" d="M411.5,326.9c-0.5,0-1.1,0-1.6-0.5c-12.3-7-26.2,0-26.2,0c-1.6,0.5-3.7,0-4.8-1.6
					c-0.5-1.6,0-3.7,1.6-4.8c0.5-0.5,17.1-8.6,32.6,0c1.6,1.1,2.1,3.2,1.6,4.8C413.6,326.4,412.6,326.9,411.5,326.9z"/>
			</g>
		</g>
		<g>
			<path fill="#0B2C3C" d="M396.5,391.1c-16.1,0-20.3-9.6-20.3-15c0-2.1,1.6-3.2,3.2-3.2c2.1,0,3.2,1.6,3.2,3.2c0,1.1,0.5,8,13.9,8
				c12.8,0,13.9-7,13.9-8c0-2.1,1.6-3.2,3.2-3.2c2.1,0,3.2,1.6,3.2,3.2C417.4,381.5,412.6,391.1,396.5,391.1z"/>
		</g>
		<g>
			<path fill="#0B2C3C" d="M417.4,420h-41.2c-2.1,0-3.2-1.6-3.2-3.2c0-2.1,1.6-3.2,3.2-3.2h41.2c2.1,0,3.2,1.6,3.2,3.2
				C420.6,417.9,419,420,417.4,420z"/>
		</g>
		<g>
			<path fill="#0B2C3C" d="M403.5,433.4h-13.4c-2.1,0-3.2-1.6-3.2-3.2c0-2.1,1.6-3.2,3.2-3.2h13.4c2.1,0,3.2,1.6,3.2,3.2
				C407.2,431.8,405.6,433.4,403.5,433.4z"/>
		</g>
		<g>
			<path fill="#0B2C3C" d="M492.3,269.1c-1.1,0-1.6-0.5-2.1-1.1c-0.5-0.5-27.8-26.2-93.7-26.2S303.4,268,302.8,268
				c-1.1,1.1-2.1,1.6-3.7,0.5c-1.6-0.5-2.1-1.6-2.1-3.2v-41.2c0-1.1,0-21.4,12.3-42.8c20.3-35.3,58.3-42.8,86.7-42.8
				s66.4,7.5,86.7,42.8c12.3,21.4,12.3,42.3,12.3,42.8v41.2c0,1.6-0.5,2.7-2.1,3.2C493.4,269.1,492.8,269.1,492.3,269.1z M396.5,146
				c-38.5,0-65.8,12.8-80.8,39.6c-11.2,19.3-11.8,39.6-11.8,39.6v34.2c11.2-8,40.1-23.5,92.6-23.5c51.9,0,81.3,15.5,92.6,23.5v-34.2
				c0-0.5-0.5-20.3-11.8-39.6C462.3,158.9,435,146,396.5,146z"/>
		</g>
		<g>
			<path fill="#0B2C3C" d="M500.3,283.6c-0.5,0-0.5,0-1.1-0.5c-0.5,0-45-15-102.7-15s-102.2,15-102.7,15.5c-1.6,0.5-3.2,0-4.3-1.1
				c-0.5-1.6-0.5-3.2,0-4.3l8.6-15l6.4,3.7l-4.3,7c16.1-4.3,51.9-12.3,95.8-12.3s80.3,8,96.3,12.3l-4.3-7l6.4-3.7l8.6,15
				c0.5,1.6,0.5,3.2-0.5,4.3C502.5,283,501.4,283.6,500.3,283.6z"/>
		</g>
		<g>
			<circle fill="#0B2C3C" cx="345.1" cy="330.7" r="10.2"/>
		</g>
		<g>
			<circle fill="#0B2C3C" cx="447.9" cy="330.7" r="10.2"/>
		</g>
		<g>
			<path fill="#0B2C3C" d="M369.2,265.9l75.5,28.9l-7-13.9h13.9l-7-13.9C444.1,267.5,410.4,265.9,369.2,265.9z"/>
		</g>
		<g>
			<path fill="#0B2C3C" d="M376.2,300.2c0,3.7-3.2,7-7,7H328c-3.7,0-7-3.2-7-7l0,0c0-3.7,3.2-7,7-7h41.2
				C373,293.2,376.2,296.4,376.2,300.2L376.2,300.2z"/>
		</g>
		<g>
			<path fill="#0B2C3C" d="M472,300.2c0,3.7-3.2,7-7,7h-41.2c-3.7,0-7-3.2-7-7l0,0c0-3.7,3.2-7,7-7H465
				C468.7,293.2,472,296.4,472,300.2L472,300.2z"/>
		</g>
		<g>
			<path fill="#0B2C3C" d="M396.5,475.7c-41.2,0-61-27.3-78.1-51.4c-1.6-2.7-3.7-4.8-5.4-7.5c-15.5-21.4-15.5-66.9-15.5-69v-68.5
				c0-2.1,1.6-3.2,3.2-3.2c2.1,0,3.2,1.6,3.2,3.2v68.5c0,0.5,0.5,45.5,14.4,64.8c2.1,2.7,3.7,4.8,5.9,7.5
				c16.6,24.1,34.2,48.7,72.2,48.7c2.1,0,3.2,1.6,3.2,3.2C399.7,474.1,398.6,475.7,396.5,475.7z"/>
		</g>
		<g>
			<path fill="#0B2C3C" d="M396.5,475.7c-2.1,0-3.2-1.6-3.2-3.2c0-2.1,1.6-3.2,3.2-3.2c38,0,55.7-24.6,72.2-48.2
				c2.1-2.7,3.7-5.4,5.9-7.5c13.9-19.3,14.4-64.2,14.4-64.8v-69.6c0-2.1,1.6-3.2,3.2-3.2c2.1,0,3.2,1.6,3.2,3.2v68.5
				c0,2.1-0.5,47.6-15.5,69c-2.1,2.7-3.7,4.8-5.4,7.5C457.5,448.4,437.7,475.7,396.5,475.7z"/>
		</g>
		<g>
			<path fill="#0B2C3C" d="M396.5,472.5"/>
		</g>
		<g>
			<path fill="#0B2C3C" d="M492.3,351.5c-2.1,0-3.2-1.6-3.2-3.2v-69c0-2.1,1.6-3.2,3.2-3.2c2.1,0,3.2,1.6,3.2,3.2v68.5
				C496,349.9,493.9,351.5,492.3,351.5z"/>
		</g>
		<g>
			<polygon fill="#0B2C3C" points="297,278.7 279.3,303.4 293.2,303.4 288.4,317.3 300.7,314.1 			"/>
		</g>
		<g>
			<polygon fill="#0B2C3C" points="496,278.7 514.2,303.4 500.3,303.4 505.1,317.3 492.3,314.1 			"/>
		</g>
		<g>
			<g>
				<path fill="#0B2C3C" d="M325.3,430.7c-1.6,0-2.7-1.6-2.7-2.7v-17.1c0-1.6,1.6-2.7,2.7-2.7s2.7,1.6,2.7,2.7v17.1
					C328,429.7,326.9,430.7,325.3,430.7z"/>
			</g>
			<g>
				<path fill="#0B2C3C" d="M336,444.6c-1.6,0-2.7-1.6-2.7-2.7v-17.1c0-1.6,1.6-2.7,2.7-2.7c1.6,0,2.7,1.6,2.7,2.7V442
					C338.7,443.6,337.6,444.6,336,444.6z"/>
			</g>
			<g>
				<path fill="#0B2C3C" d="M346.7,457c-1.6,0-2.7-1.6-2.7-2.7v-17.1c0-1.6,1.6-2.7,2.7-2.7c1.6,0,2.7,1.6,2.7,2.7v17.1
					C349.4,455.3,348.3,457,346.7,457z"/>
			</g>
			<g>
				<path fill="#0B2C3C" d="M357.4,465c-1.6,0-2.7-1.6-2.7-2.7v-17.1c0-1.6,1.6-2.7,2.7-2.7c1.6,0,2.7,1.6,2.7,2.7v17.1
					C360.1,463.9,359,465,357.4,465z"/>
			</g>
			<g>
				<path fill="#0B2C3C" d="M368.1,470.3c-1.6,0-2.7-1.6-2.7-2.7v-17.1c0-1.6,1.6-2.7,2.7-2.7c1.6,0,2.7,1.6,2.7,2.7v17.1
					C370.8,469.3,369.7,470.3,368.1,470.3z"/>
			</g>
			<g>
				<path fill="#0B2C3C" d="M378.8,473.5c-1.6,0-2.7-1.6-2.7-2.7v-17.1c0-1.6,1.6-2.7,2.7-2.7c1.6,0,2.7,1.6,2.7,2.7v17.1
					C381.5,472.5,380.4,473.5,378.8,473.5z"/>
			</g>
			<g>
				<path fill="#0B2C3C" d="M390.1,473.5c-1.6,0-2.7-1.6-2.7-2.7v-17.1c0-1.6,1.6-2.7,2.7-2.7c1.6,0,2.7,1.6,2.7,2.7v17.1
					C392.8,472.5,391.1,473.5,390.1,473.5z"/>
			</g>
		</g>
		<g>
			<g>
				<path fill="#0B2C3C" d="M468.2,430.7c-1.6,0-2.7-1.6-2.7-2.7v-17.1c0-1.6,1.6-2.7,2.7-2.7s2.7,1.6,2.7,2.7v17.1
					C470.9,429.7,469.3,430.7,468.2,430.7z"/>
			</g>
			<g>
				<path fill="#0B2C3C" d="M457,444.1c-1.6,0-2.7-1.6-2.7-2.7v-17.1c0-1.6,1.6-2.7,2.7-2.7c1.1,0,2.7,1.6,2.7,2.7v17.1
					C459.6,443.6,458.6,444.1,457,444.1z"/>
			</g>
			<g>
				<path fill="#0B2C3C" d="M446.3,456.4c-1.6,0-2.7-1.6-2.7-2.7v-17.1c0-1.6,1.6-2.7,2.7-2.7c1.6,0,2.7,1.6,2.7,2.7v17.1
					C448.9,454.8,447.9,456.4,446.3,456.4z"/>
			</g>
			<g>
				<path fill="#0B2C3C" d="M435.6,465c-1.6,0-2.7-1.6-2.7-2.7v-17.1c0-1.6,1.6-2.7,2.7-2.7c1.6,0,2.7,1.6,2.7,2.7v17.1
					C438.2,463.9,437.2,465,435.6,465z"/>
			</g>
			<g>
				<path fill="#0B2C3C" d="M424.9,469.8c-1.6,0-2.7-1.6-2.7-2.7V450c0-1.6,1.6-2.7,2.7-2.7c1.1,0,2.7,1.6,2.7,2.7v17.1
					C427.5,468.7,426.5,469.8,424.9,469.8z"/>
			</g>
			<g>
				<path fill="#0B2C3C" d="M414.2,473.5c-1.6,0-2.7-1.6-2.7-2.7v-17.1c0-1.6,1.6-2.7,2.7-2.7c1.1,0,2.7,1.1,2.7,2.7v17.1
					C416.8,472.5,415.8,473.5,414.2,473.5z"/>
			</g>
			<g>
				<path fill="#0B2C3C" d="M403.5,473.5c-1.6,0-2.7-1.6-2.7-2.7v-17.1c0-1.6,1.6-2.7,2.7-2.7c1.6,0,2.7,1.6,2.7,2.7v17.1
					C406.1,472.5,405.1,473.5,403.5,473.5z"/>
			</g>
		</g>
		<g>
			<path fill="#0B2C3C" d="M407.2,219.3h-24.6c-1.6,0-2.1-1.1-2.1-2.1c0-1.1,1.1-2.1,2.1-2.1h24.6c7,0,7.5-7,7.5-7.5v-19.3
				c0-7-5.9-7.5-7.5-7.5h-24.6c-1.6,0-2.1-1.1-2.1-2.1c0-1.6,1.1-2.1,2.1-2.1h24.6c0.5,0,3.2,0,5.9,1.6c4.3,2.1,6.4,5.9,6.4,10.7
				v19.3c0,0.5,0,3.2-1.6,5.9C416.3,217.2,412.6,219.3,407.2,219.3z"/>
		</g>
		<g>
			<path fill="#0B2C3C" d="M387.9,219.3c-1.6,0-2.1-1.1-2.1-2.1v-39.6c0-1.6,1.1-2.1,2.1-2.1s2.1,1.1,2.1,2.1v39.1
				C390.1,218.3,389,219.3,387.9,219.3z"/>
		</g>
		<g>
			<path fill="#0B2C3C" d="M397.6,219.3c-1.6,0-2.1-1.1-2.1-2.1v-39.6c0-1.6,1.1-2.1,2.1-2.1c1.6,0,2.1,1.1,2.1,2.1v39.1
				C399.7,218.3,399.2,219.3,397.6,219.3z"/>
		</g>
		<g>
			<path fill="#0B2C3C" d="M387.9,194.7h-4.8c-1.6,0-2.1-1.1-2.1-2.1c0-1.1,1.1-2.1,2.1-2.1h4.8c1.6,0,2.1,1.1,2.1,2.1
				C390.1,193.7,389,194.7,387.9,194.7z"/>
		</g>
		<g>
			<path fill="#0B2C3C" d="M397.6,189.9h-9.6c-1.6,0-2.1-1.1-2.1-2.1c0-1.6,1.1-2.1,2.1-2.1h9.6c1.6,0,2.1,1.1,2.1,2.1
				C399.7,188.8,399.2,189.9,397.6,189.9z"/>
		</g>
		<g>
			<path fill="#0B2C3C" d="M397.6,209.7h-9.6c-1.6,0-2.1-1.1-2.1-2.1c0-1.6,1.1-2.1,2.1-2.1h9.6c1.6,0,2.1,1.1,2.1,2.1
				S399.2,209.7,397.6,209.7z"/>
		</g>
		<g>
			<path fill="#0B2C3C" d="M387.9,204.9h-4.8c-1.6,0-2.1-1.1-2.1-2.1c0-1.6,1.1-2.1,2.1-2.1h4.8c1.6,0,2.1,1.1,2.1,2.1
				C390.1,203.3,389,204.9,387.9,204.9z"/>
		</g>
		<g>
			<path fill="#0B2C3C" d="M397.6,194.7c-1.6,0-2.1-1.1-2.1-2.1c0-1.1,1.1-2.1,2.1-2.1c7.5,0,15.5-1.6,17.1-2.7
				c0-1.6,1.1-2.1,2.1-2.1c1.6,0,2.1,1.1,2.1,2.1C419.5,191,415.8,194.7,397.6,194.7z"/>
		</g>
		<g>
			<path fill="#0B2C3C" d="M417.4,209.7c-1.6,0-2.1-1.1-2.1-2.1c-1.6-1.6-9.6-2.7-17.1-2.7c-1.6,0-2.1-1.1-2.1-2.1
				c0-1.6,1.1-2.1,2.1-2.1c18.2,0,21.9,4.3,21.9,7.5C419.5,208.6,418.4,209.7,417.4,209.7z"/>
		</g>
		<g>
			<path fill="#0B2C3C" d="M385.3,406.1c-1.6,0-2.7-1.6-2.7-2.7V397c0-1.6,1.6-2.7,2.7-2.7c1.6,0,2.7,1.6,2.7,2.7v6.4
				C387.9,405,386.9,406.1,385.3,406.1z"/>
		</g>
		<g>
			<path fill="#0B2C3C" d="M375.1,407.7c-1.6,0-2.7-1.6-2.7-2.7v-6.4c0-1.6,1.6-2.7,2.7-2.7c1.1,0,2.7,1.6,2.7,2.7v6.4
				C377.8,407.2,376.7,407.7,375.1,407.7z"/>
		</g>
		<g>
			<path fill="#0B2C3C" d="M364.9,409.9c-1.6,0-2.7-1.6-2.7-2.7v-6.4c0-1.6,1.6-2.7,2.7-2.7c1.6,0,2.7,1.6,2.7,2.7v6.4
				C367.6,408.8,366.5,409.9,364.9,409.9z"/>
		</g>
		<g>
			<path fill="#0B2C3C" d="M354.8,413.6c-1.6,0-2.7-1.6-2.7-2.7v-6.4c0-1.6,1.6-2.7,2.7-2.7s2.7,1.6,2.7,2.7v6.4
				C357.4,412,356.4,413.6,354.8,413.6z"/>
		</g>
		<g>
			<path fill="#0B2C3C" d="M407.2,406.1c-1.6,0-2.7-1.6-2.7-2.7V397c0-1.6,1.6-2.7,2.7-2.7c1.6,0,2.7,1.6,2.7,2.7v6.4
				C409.9,405,408.8,406.1,407.2,406.1z"/>
		</g>
		<g>
			<path fill="#0B2C3C" d="M417.4,407.7c-1.6,0-2.7-1.6-2.7-2.7v-6.4c0-1.6,1.6-2.7,2.7-2.7c1.6,0,2.7,1.6,2.7,2.7v6.4
				C420,407.2,419,407.7,417.4,407.7z"/>
		</g>
		<g>
			<path fill="#0B2C3C" d="M428.1,409.9c-1.6,0-2.7-1.6-2.7-2.7v-6.4c0-1.6,1.6-2.7,2.7-2.7c1.6,0,2.7,1.6,2.7,2.7v6.4
				C430.7,408.8,429.1,409.9,428.1,409.9z"/>
		</g>
		<g>
			<path fill="#0B2C3C" d="M437.7,413.6c-1.6,0-2.7-1.6-2.7-2.7v-6.4c0-1.6,1.6-2.7,2.7-2.7s2.7,1.6,2.7,2.7v6.4
				C440.4,412,439.8,413.6,437.7,413.6z"/>
		</g>
	</g>
</g>
</svg>
