<?xml version="1.0" encoding="utf-8"?>
<!-- Generator: Adobe Illustrator 17.1.0, SVG Export Plug-In . SVG Version: 6.00 Build 0)  -->
<!DOCTYPE svg PUBLIC "-//W3C//DTD SVG 1.1//EN" "http://www.w3.org/Graphics/SVG/1.1/DTD/svg11.dtd">
<svg version="1.1" id="Layer_1" xmlns="http://www.w3.org/2000/svg" xmlns:xlink="http://www.w3.org/1999/xlink" x="0px" y="0px"
	 viewBox="0 0 500 500" enable-background="new 0 0 500 500" xml:space="preserve">
<g>
	<g>
		<g>
			<g>
				<path fill="#FBF9ED" d="M178,341.6c-49.3,0-58.7-31.4-60.4-44.9c-3.1-24.8,2.8-37.4,19.8-42.3c4.9-1.4,20.3-3.5,37.8-3.5
					c37.8,0,58.9,9.4,60.8,27.3c1.8,16.7-3.2,33-13.8,44.9C211.4,335,195.7,341.6,178,341.6z M175.2,260.6
					c-16.9,0-31.4,2.1-35.1,3.1c-8.2,2.4-16,6.8-12.8,31.8c3,23.5,21,36.4,50.8,36.4c14.9,0,28-5.5,36.9-15.4
					c8.8-9.8,12.9-23.4,11.4-37.3C224.5,262.4,189.9,260.6,175.2,260.6z"/>
			</g>
			<g>
				<path fill="#FBF9ED" d="M322.9,341.6c-17.7,0-33.4-6.6-44.1-18.6c-10.6-11.8-15.6-28.2-13.8-44.9c1.9-17.8,23-27.3,60.8-27.3
					c17.5,0,32.9,2.1,37.8,3.5c17,4.9,22.9,17.6,19.8,42.3C381.5,310.3,372.2,341.6,322.9,341.6z M325.7,260.6
					c-14.8,0-49.3,1.8-51.2,18.6c-1.5,14,2.6,27.6,11.4,37.3c8.9,9.9,22,15.4,36.9,15.4c29.8,0,47.8-12.9,50.8-36.4
					c3.2-25-4.6-29.4-12.8-31.8C357.1,262.7,342.6,260.6,325.7,260.6z"/>
			</g>
			<g>
				<path fill="#FBF9ED" d="M271.1,277.5c-0.8,0-1.6-0.2-2.3-0.6c-17.6-9.5-37.1,0-37.3,0.1c-2.4,1.2-5.3,0.2-6.5-2.2
					c-1.2-2.4-0.2-5.3,2.2-6.5c1-0.5,24.1-11.8,46.2,0.1c2.4,1.3,3.2,4.2,2,6.6C274.5,276.6,272.8,277.5,271.1,277.5z"/>
			</g>
		</g>
		<g>
			<path fill="#FBF9ED" d="M250,368.7c-23,0-29.1-13.7-29.1-21c0-2.7,2.2-4.8,4.8-4.8c2.7,0,4.8,2.1,4.8,4.8c0,1.2,1,11.4,19.4,11.4
				c18.5,0,19.3-10.2,19.4-11.4c0-2.7,2.2-4.8,4.8-4.8c2.7,0,4.8,2.2,4.8,4.9C279.1,355,273,368.7,250,368.7z"/>
		</g>
		<g>
			<path fill="#FBF9ED" d="M279.1,409.1h-58.2c-2.7,0-4.8-2.2-4.8-4.8c0-2.7,2.2-4.8,4.8-4.8h58.2c2.7,0,4.8,2.2,4.8,4.8
				C283.9,407,281.8,409.1,279.1,409.1z"/>
		</g>
		<g>
			<path fill="#FBF9ED" d="M259.7,428.5h-19.4c-2.7,0-4.8-2.2-4.8-4.8c0-2.7,2.2-4.8,4.8-4.8h19.4c2.7,0,4.8,2.2,4.8,4.8
				C264.5,426.3,262.4,428.5,259.7,428.5z"/>
		</g>
		<g>
			<path fill="#FBF9ED" d="M385.7,195.9c-1.3,0-2.5-0.5-3.4-1.4c-0.5-0.4-39-37.4-132.3-37.4c-93.4,0-131.9,37-132.3,37.4
				c-1.4,1.4-3.5,1.8-5.3,1c-1.8-0.8-3-2.5-3-4.5v-58.2c0-1.2,0.2-30.7,17.6-60.6c29.2-50.1,83-60.6,122.9-60.6
				c40,0,93.7,10.5,122.9,60.6c17.4,29.9,17.6,59.4,17.6,60.6V191c0,2-1.2,3.7-3,4.5C387,195.8,386.3,195.9,385.7,195.9z M250,21.4
				c-54.3,0-92.7,18.6-114.4,55.4c-16.2,27.6-16.5,55.8-16.5,56.1v48c16.2-11.5,56.9-33.5,130.9-33.5c74,0,114.7,22,130.9,33.5v-48
				c0-0.3-0.3-28.4-16.5-56.1C342.7,40.1,304.3,21.4,250,21.4z"/>
		</g>
		<g>
			<path fill="#FBF9ED" d="M397,216.5c-0.6,0-1.1-0.1-1.7-0.3c-0.6-0.2-63.3-20.7-145.3-20.7S105.3,216,104.7,216.2
				c-2.1,0.7-4.3,0-5.7-1.7c-1.4-1.7-1.6-4.1-0.5-5.9l12.1-21l9.1,5.2l-5.6,9.7c22.8-6.1,74-17.6,135.9-17.6
				c62,0,113.2,11.5,135.9,17.6l-5.6-9.7l9.1-5.2l12.1,21c1.1,1.9,0.9,4.3-0.5,5.9C400.1,215.8,398.6,216.5,397,216.5z"/>
		</g>
		<g>
			<path fill="#FBF9ED" d="M191.8,283.1c0,8-6.5,14.5-14.5,14.5c-8,0-14.5-6.5-14.5-14.5c0-8,6.5-14.5,14.5-14.5
				C185.3,268.6,191.8,275.1,191.8,283.1z"/>
		</g>
		<g>
			<path fill="#FBF9ED" d="M337.2,283.1c0,8-6.5,14.5-14.5,14.5c-8,0-14.5-6.5-14.5-14.5c0-8,6.5-14.5,14.5-14.5
				C330.7,268.6,337.2,275.1,337.2,283.1z"/>
		</g>
		<g>
			<path fill="#FBF9ED" d="M211.2,191l106.6,41.2l-9.7-19.4h19.4l-9.7-19.4C317.9,193.5,269.4,191,211.2,191z"/>
		</g>
		<g>
			<path fill="#FBF9ED" d="M220.9,239.5c0,5.4-4.3,9.7-9.7,9.7h-58.2c-5.4,0-9.7-4.3-9.7-9.7l0,0c0-5.4,4.3-9.7,9.7-9.7h58.2
				C216.6,229.8,220.9,234.1,220.9,239.5L220.9,239.5z"/>
		</g>
		<g>
			<path fill="#FBF9ED" d="M356.6,239.5c0,5.4-4.3,9.7-9.7,9.7h-58.2c-5.4,0-9.7-4.3-9.7-9.7l0,0c0-5.4,4.3-9.7,9.7-9.7h58.2
				C352.3,229.8,356.6,234.1,356.6,239.5L356.6,239.5z"/>
		</g>
		<g>
			<path fill="#FBF9ED" d="M250,488.3c-58.8,0-86.2-38.5-110.4-72.4c-2.6-3.7-5.2-7.3-7.8-10.9c-22.1-30.2-22.3-94.8-22.3-97.6
				v-96.9c0-2.7,2.2-4.8,4.8-4.8c2.7,0,4.8,2.2,4.8,4.8v96.9c0,0.6,0.3,64.2,20.5,91.8c2.6,3.6,5.3,7.3,7.9,11
				c23.9,33.6,48.7,68.4,102.5,68.4c2.7,0,4.8,2.2,4.8,4.8C254.8,486.1,252.7,488.3,250,488.3z"/>
		</g>
		<g>
			<path fill="#FBF9ED" d="M250,488.3c-2.7,0-4.8-2.2-4.8-4.8c0-2.7,2.2-4.8,4.8-4.8c53.8,0,78.6-34.8,102.5-68.4
				c2.6-3.7,5.3-7.4,7.9-11c20.2-27.7,20.5-91.2,20.5-91.8v-96.9c0-2.7,2.2-4.8,4.8-4.8c2.7,0,4.8,2.2,4.8,4.8v96.9
				c0,2.7-0.3,67.4-22.3,97.6c-2.6,3.6-5.2,7.2-7.8,10.9C336.2,449.8,308.8,488.3,250,488.3z"/>
		</g>
		<g>
			<path fill="#FBF9ED" d="M250,483.4"/>
		</g>
		<g>
			<path fill="#FBF9ED" d="M385.7,312.2c-2.7,0-4.8-2.2-4.8-4.8v-96.9c0-2.7,2.2-4.8,4.8-4.8c2.7,0,4.8,2.2,4.8,4.8v96.9
				C390.5,310,388.4,312.2,385.7,312.2z"/>
		</g>
		<g>
			<polygon fill="#FBF9ED" points="109,209.4 83.6,244.3 103,244.3 96.3,263.7 114.3,258.9 			"/>
		</g>
		<g>
			<polygon fill="#FBF9ED" points="391,209.4 416.4,244.3 397,244.3 403.7,263.7 385.7,258.9 			"/>
		</g>
		<g>
			<g>
				<path fill="#FBF9ED" d="M149,425.1c-2.1,0-3.8-1.7-3.8-3.8V397c0-2.1,1.7-3.8,3.8-3.8c2.1,0,3.8,1.7,3.8,3.8v24.2
					C152.9,423.4,151.1,425.1,149,425.1z"/>
			</g>
			<g>
				<path fill="#FBF9ED" d="M164.2,444.5c-2.1,0-3.8-1.7-3.8-3.8v-24.2c0-2.1,1.7-3.8,3.8-3.8c2.1,0,3.8,1.7,3.8,3.8v24.2
					C168.1,442.7,166.4,444.5,164.2,444.5z"/>
			</g>
			<g>
				<path fill="#FBF9ED" d="M179.5,461.4c-2.1,0-3.8-1.7-3.8-3.8v-24.2c0-2.1,1.7-3.8,3.8-3.8c2.1,0,3.8,1.7,3.8,3.8v24.2
					C183.3,459.7,181.6,461.4,179.5,461.4z"/>
			</g>
			<g>
				<path fill="#FBF9ED" d="M194.7,473.5c-2.1,0-3.8-1.7-3.8-3.8v-24.2c0-2.1,1.7-3.8,3.8-3.8s3.8,1.7,3.8,3.8v24.2
					C198.5,471.8,196.8,473.5,194.7,473.5z"/>
			</g>
			<g>
				<path fill="#FBF9ED" d="M209.9,480.8c-2.1,0-3.8-1.7-3.8-3.8v-24.2c0-2.1,1.7-3.8,3.8-3.8c2.1,0,3.8,1.7,3.8,3.8V477
					C213.7,479.1,212,480.8,209.9,480.8z"/>
			</g>
			<g>
				<path fill="#FBF9ED" d="M225.1,485.6c-2.1,0-3.8-1.7-3.8-3.8v-24.2c0-2.1,1.7-3.8,3.8-3.8s3.8,1.7,3.8,3.8v24.2
					C228.9,483.9,227.2,485.6,225.1,485.6z"/>
			</g>
			<g>
				<path fill="#FBF9ED" d="M240.3,485.6c-2.1,0-3.8-1.7-3.8-3.8v-24.2c0-2.1,1.7-3.8,3.8-3.8c2.1,0,3.8,1.7,3.8,3.8v24.2
					C244.1,483.9,242.4,485.6,240.3,485.6z"/>
			</g>
		</g>
		<g>
			<g>
				<path fill="#FBF9ED" d="M351,424.7c-2.1,0-3.8-1.7-3.8-3.8v-24.2c0-2.1,1.7-3.8,3.8-3.8s3.8,1.7,3.8,3.8v24.2
					C354.8,423,353.1,424.7,351,424.7z"/>
			</g>
			<g>
				<path fill="#FBF9ED" d="M335.8,444.1c-2.1,0-3.8-1.7-3.8-3.8V416c0-2.1,1.7-3.8,3.8-3.8c2.1,0,3.8,1.7,3.8,3.8v24.2
					C339.6,442.3,337.9,444.1,335.8,444.1z"/>
			</g>
			<g>
				<path fill="#FBF9ED" d="M320.5,461c-2.1,0-3.8-1.7-3.8-3.8V433c0-2.1,1.7-3.8,3.8-3.8c2.1,0,3.8,1.7,3.8,3.8v24.2
					C324.4,459.3,322.7,461,320.5,461z"/>
			</g>
			<g>
				<path fill="#FBF9ED" d="M305.3,473.1c-2.1,0-3.8-1.7-3.8-3.8v-24.2c0-2.1,1.7-3.8,3.8-3.8c2.1,0,3.8,1.7,3.8,3.8v24.2
					C309.2,471.4,307.4,473.1,305.3,473.1z"/>
			</g>
			<g>
				<path fill="#FBF9ED" d="M290.1,480.4c-2.1,0-3.8-1.7-3.8-3.8v-24.2c0-2.1,1.7-3.8,3.8-3.8c2.1,0,3.8,1.7,3.8,3.8v24.2
					C293.9,478.7,292.2,480.4,290.1,480.4z"/>
			</g>
			<g>
				<path fill="#FBF9ED" d="M274.9,485.2c-2.1,0-3.8-1.7-3.8-3.8v-24.2c0-2.1,1.7-3.8,3.8-3.8s3.8,1.7,3.8,3.8v24.2
					C278.7,483.5,277,485.2,274.9,485.2z"/>
			</g>
			<g>
				<path fill="#FBF9ED" d="M259.7,485.2c-2.1,0-3.8-1.7-3.8-3.8v-24.2c0-2.1,1.7-3.8,3.8-3.8c2.1,0,3.8,1.7,3.8,3.8v24.2
					C263.5,483.5,261.8,485.2,259.7,485.2z"/>
			</g>
		</g>
		<g>
			<path fill="#FBF9ED" d="M265.2,125.3h-34.6c-1.9,0-3.5-1.5-3.5-3.5c0-1.9,1.6-3.5,3.5-3.5h34.6c10.1,0,10.4-9.3,10.4-10.4V80.3
				c0-9.8-8.7-10.4-10.4-10.4h-34.6c-1.9,0-3.5-1.5-3.5-3.5c0-1.9,1.6-3.5,3.5-3.5h34.6c0.4,0,4.4,0.1,8.5,2.1
				c5.7,2.8,8.8,8.2,8.8,15.2V108c0,0.4-0.1,4.4-2.1,8.5C277.6,122.1,272.2,125.3,265.2,125.3z"/>
		</g>
		<g>
			<path fill="#FBF9ED" d="M237.5,125.3c-1.9,0-3.5-1.5-3.5-3.5V66.4c0-1.9,1.6-3.5,3.5-3.5c1.9,0,3.5,1.5,3.5,3.5v55.4
				C241,123.7,239.4,125.3,237.5,125.3z"/>
		</g>
		<g>
			<path fill="#FBF9ED" d="M251.4,125.3c-1.9,0-3.5-1.5-3.5-3.5V66.4c0-1.9,1.6-3.5,3.5-3.5c1.9,0,3.5,1.5,3.5,3.5v55.4
				C254.8,123.7,253.3,125.3,251.4,125.3z"/>
		</g>
		<g>
			<path fill="#FBF9ED" d="M237.5,90.6h-6.9c-1.9,0-3.5-1.6-3.5-3.5c0-1.9,1.6-3.5,3.5-3.5h6.9c1.9,0,3.5,1.6,3.5,3.5
				C241,89.1,239.4,90.6,237.5,90.6z"/>
		</g>
		<g>
			<path fill="#FBF9ED" d="M251.4,83.7h-13.8c-1.9,0-3.5-1.6-3.5-3.5c0-1.9,1.6-3.5,3.5-3.5h13.8c1.9,0,3.5,1.6,3.5,3.5
				C254.8,82.2,253.3,83.7,251.4,83.7z"/>
		</g>
		<g>
			<path fill="#FBF9ED" d="M251.4,111.4h-13.8c-1.9,0-3.5-1.5-3.5-3.5c0-1.9,1.6-3.5,3.5-3.5h13.8c1.9,0,3.5,1.6,3.5,3.5
				C254.8,109.9,253.3,111.4,251.4,111.4z"/>
		</g>
		<g>
			<path fill="#FBF9ED" d="M237.5,104.5h-6.9c-1.9,0-3.5-1.6-3.5-3.5c0-1.9,1.6-3.5,3.5-3.5h6.9c1.9,0,3.5,1.5,3.5,3.5
				C241,102.9,239.4,104.5,237.5,104.5z"/>
		</g>
		<g>
			<path fill="#FBF9ED" d="M251.4,90.6c-1.9,0-3.5-1.6-3.5-3.5c0-1.9,1.6-3.5,3.5-3.5c11,0,22.4-1.8,24.2-3.8
				c0.2-1.8,1.6-3.1,3.4-3.1c1.9,0,3.5,1.6,3.5,3.5C282.5,85,277.1,90.6,251.4,90.6z"/>
		</g>
		<g>
			<path fill="#FBF9ED" d="M279.1,111.4c-1.8,0-3.3-1.4-3.4-3.1c-1.8-2-13.2-3.8-24.2-3.8c-1.9,0-3.5-1.6-3.5-3.5
				c0-1.9,1.6-3.5,3.5-3.5c25.8,0,31.2,5.6,31.2,10.4C282.5,109.9,281,111.4,279.1,111.4z"/>
		</g>
		<g>
			<path fill="#FBF9ED" d="M234.1,390.3c-2.1,0-3.8-1.7-3.8-3.8v-9.2c0-2.1,1.7-3.8,3.8-3.8c2.1,0,3.8,1.7,3.8,3.8v9.2
				C237.9,388.6,236.2,390.3,234.1,390.3z"/>
		</g>
		<g>
			<path fill="#FBF9ED" d="M219.5,392.7c-2.1,0-3.8-1.7-3.8-3.8v-9.2c0-2.1,1.7-3.8,3.8-3.8c2.1,0,3.8,1.7,3.8,3.8v9.2
				C223.4,391,221.7,392.7,219.5,392.7z"/>
		</g>
		<g>
			<path fill="#FBF9ED" d="M205,395.1c-2.1,0-3.8-1.7-3.8-3.8v-9.2c0-2.1,1.7-3.8,3.8-3.8c2.1,0,3.8,1.7,3.8,3.8v9.2
				C208.8,393.4,207.1,395.1,205,395.1z"/>
		</g>
		<g>
			<path fill="#FBF9ED" d="M190.5,400c-2.1,0-3.8-1.7-3.8-3.8V387c0-2.1,1.7-3.8,3.8-3.8c2.1,0,3.8,1.7,3.8,3.8v9.2
				C194.3,398.3,192.6,400,190.5,400z"/>
		</g>
		<g>
			<path fill="#FBF9ED" d="M265.2,390.3c-2.1,0-3.8-1.7-3.8-3.8v-9.2c0-2.1,1.7-3.8,3.8-3.8s3.8,1.7,3.8,3.8v9.2
				C269,388.6,267.3,390.3,265.2,390.3z"/>
		</g>
		<g>
			<path fill="#FBF9ED" d="M279.7,392.7c-2.1,0-3.8-1.7-3.8-3.8v-9.2c0-2.1,1.7-3.8,3.8-3.8c2.1,0,3.8,1.7,3.8,3.8v9.2
				C283.6,391,281.9,392.7,279.7,392.7z"/>
		</g>
		<g>
			<path fill="#FBF9ED" d="M294.3,395.1c-2.1,0-3.8-1.7-3.8-3.8v-9.2c0-2.1,1.7-3.8,3.8-3.8c2.1,0,3.8,1.7,3.8,3.8v9.2
				C298.1,393.4,296.4,395.1,294.3,395.1z"/>
		</g>
		<g>
			<path fill="#FBF9ED" d="M308.8,400c-2.1,0-3.8-1.7-3.8-3.8V387c0-2.1,1.7-3.8,3.8-3.8c2.1,0,3.8,1.7,3.8,3.8v9.2
				C312.7,398.3,310.9,400,308.8,400z"/>
		</g>
	</g>
</g>
</svg>
