<?xml version="1.0" encoding="utf-8"?>
<!-- Generator: Adobe Illustrator 17.1.0, SVG Export Plug-In . SVG Version: 6.00 Build 0)  -->
<!DOCTYPE svg PUBLIC "-//W3C//DTD SVG 1.1//EN" "http://www.w3.org/Graphics/SVG/1.1/DTD/svg11.dtd">
<svg version="1.1" id="Layer_1" xmlns="http://www.w3.org/2000/svg" xmlns:xlink="http://www.w3.org/1999/xlink" x="0px" y="0px"
	 viewBox="0 0 1000 1000" enable-background="new 0 0 1000 1000" xml:space="preserve">
<g>
	<g>
		<g>
			<g>
				<path fill="#262626" d="M356,683.2c-98.6,0-117.4-62.8-120.8-89.8c-6.2-49.6,5.6-74.8,39.6-84.6c9.8-2.8,40.6-7,75.6-7
					c75.6,0,117.8,18.8,121.6,54.6c3.6,33.4-6.4,66-27.6,89.8C422.8,670,391.4,683.2,356,683.2z M350.4,521.2
					c-33.8,0-62.8,4.2-70.2,6.2c-16.4,4.8-32,13.6-25.6,63.6c6,47,42,72.8,101.6,72.8c29.8,0,56-11,73.8-30.8
					c17.6-19.6,25.8-46.8,22.8-74.6C449,524.8,379.8,521.2,350.4,521.2z"/>
			</g>
			<g>
				<path fill="#262626" d="M645.8,683.2c-35.4,0-66.8-13.2-88.2-37.2c-21.2-23.6-31.2-56.4-27.6-89.8c3.8-35.6,46-54.6,121.6-54.6
					c35,0,65.8,4.2,75.6,7c34,9.8,45.8,35.2,39.6,84.6C763,620.6,744.4,683.2,645.8,683.2z M651.4,521.2
					c-29.6,0-98.6,3.6-102.4,37.2c-3,28,5.2,55.2,22.8,74.6c17.8,19.8,44,30.8,73.8,30.8c59.6,0,95.6-25.8,101.6-72.8
					c6.4-50-9.2-58.8-25.6-63.6C714.2,525.4,685.2,521.2,651.4,521.2z"/>
			</g>
			<g>
				<path fill="#262626" d="M542.2,555c-1.6,0-3.2-0.4-4.6-1.2c-35.2-19-74.2,0-74.6,0.2c-4.8,2.4-10.6,0.4-13-4.4
					c-2.4-4.8-0.4-10.6,4.4-13c2-1,48.2-23.6,92.4,0.2c4.8,2.6,6.4,8.4,4,13.2C549,553.2,545.6,555,542.2,555z"/>
			</g>
		</g>
		<g>
			<path fill="#262626" d="M500,737.4c-46,0-58.2-27.4-58.2-42c0-5.4,4.4-9.6,9.6-9.6c5.4,0,9.6,4.2,9.6,9.6c0,2.4,2,22.8,38.8,22.8
				c37,0,38.6-20.4,38.8-22.8c0-5.4,4.4-9.6,9.6-9.6c5.4,0,9.6,4.4,9.6,9.8C558.2,710,546,737.4,500,737.4z"/>
		</g>
		<g>
			<path fill="#262626" d="M558.2,818.2H441.8c-5.4,0-9.6-4.4-9.6-9.6c0-5.4,4.4-9.6,9.6-9.6h116.4c5.4,0,9.6,4.4,9.6,9.6
				C567.8,814,563.6,818.2,558.2,818.2z"/>
		</g>
		<g>
			<path fill="#262626" d="M519.4,857h-38.8c-5.4,0-9.6-4.4-9.6-9.6c0-5.4,4.4-9.6,9.6-9.6h38.8c5.4,0,9.6,4.4,9.6,9.6
				S524.8,857,519.4,857z"/>
		</g>
		<g>
			<path fill="#262626" d="M771.4,391.8c-2.6,0-5-1-6.8-2.8c-1-0.8-78-74.8-264.6-74.8c-186.8,0-263.8,74-264.6,74.8
				c-2.8,2.8-7,3.6-10.6,2s-6-5-6-9V265.6c0-2.4,0.4-61.4,35.2-121.2C312.4,44.2,420,23.2,499.8,23.2c80,0,187.4,21,245.8,121.2
				c34.8,59.8,35.2,118.8,35.2,121.2V382c0,4-2.4,7.4-6,9C774,391.6,772.6,391.8,771.4,391.8z M500,42.8
				c-108.6,0-185.4,37.2-228.8,110.8c-32.4,55.2-33,111.6-33,112.2v96c32.4-23,113.8-67,261.8-67s229.4,44,261.8,67v-96
				c0-0.6-0.6-56.8-33-112.2C685.4,80.2,608.6,42.8,500,42.8z"/>
		</g>
		<g>
			<path fill="#262626" d="M794,433c-1.2,0-2.2-0.2-3.4-0.6S664,391,500,391s-289.4,41-290.6,41.4c-4.2,1.4-8.6,0-11.4-3.4
				c-2.8-3.4-3.2-8.2-1-11.8l24.2-42l18.2,10.4L228.2,405c45.6-12.2,148-35.2,271.8-35.2c124,0,226.4,23,271.8,35.2l-11.2-19.4
				l18.2-10.4l24.2,42c2.2,3.8,1.8,8.6-1,11.8C800.2,431.6,797.2,433,794,433z"/>
		</g>
		<g>
			<path fill="#262626" d="M383.6,566.2c0,16-13,29-29,29s-29-13-29-29s13-29,29-29S383.6,550.2,383.6,566.2z"/>
		</g>
		<g>
			<path fill="#262626" d="M674.4,566.2c0,16-13,29-29,29s-29-13-29-29s13-29,29-29S674.4,550.2,674.4,566.2z"/>
		</g>
		<g>
			<path fill="#262626" d="M422.4,382l213.2,82.4l-19.4-38.8H655l-19.4-38.8C635.8,387,538.8,382,422.4,382z"/>
		</g>
		<g>
			<path fill="#262626" d="M441.8,479c0,10.8-8.6,19.4-19.4,19.4H306c-10.8,0-19.4-8.6-19.4-19.4l0,0c0-10.8,8.6-19.4,19.4-19.4
				h116.4C433.2,459.6,441.8,468.2,441.8,479L441.8,479z"/>
		</g>
		<g>
			<path fill="#262626" d="M713.2,479c0,10.8-8.6,19.4-19.4,19.4H577.4c-10.8,0-19.4-8.6-19.4-19.4l0,0c0-10.8,8.6-19.4,19.4-19.4
				h116.4C704.6,459.6,713.2,468.2,713.2,479L713.2,479z"/>
		</g>
		<g>
			<path fill="#262626" d="M500,976.6c-117.6,0-172.4-77-220.8-144.8c-5.2-7.4-10.4-14.6-15.6-21.8C219.4,749.6,219,620.4,219,614.8
				V421c0-5.4,4.4-9.6,9.6-9.6c5.4,0,9.6,4.4,9.6,9.6v193.8c0,1.2,0.6,128.4,41,183.6c5.2,7.2,10.6,14.6,15.8,22
				c47.8,67.2,97.4,136.8,205,136.8c5.4,0,9.6,4.4,9.6,9.6C509.6,972.2,505.4,976.6,500,976.6z"/>
		</g>
		<g>
			<path fill="#262626" d="M500,976.6c-5.4,0-9.6-4.4-9.6-9.6c0-5.4,4.4-9.6,9.6-9.6c107.6,0,157.2-69.6,205-136.8
				c5.2-7.4,10.6-14.8,15.8-22c40.4-55.4,41-182.4,41-183.6V421.2c0-5.4,4.4-9.6,9.6-9.6c5.4,0,9.6,4.4,9.6,9.6V615
				c0,5.4-0.6,134.8-44.6,195.2c-5.2,7.2-10.4,14.4-15.6,21.8C672.4,899.6,617.6,976.6,500,976.6z"/>
		</g>
		<g>
			<path fill="#262626" d="M500,966.8"/>
		</g>
		<g>
			<path fill="#262626" d="M771.4,624.4c-5.4,0-9.6-4.4-9.6-9.6V421c0-5.4,4.4-9.6,9.6-9.6c5.4,0,9.6,4.4,9.6,9.6v193.8
				C781,620,776.8,624.4,771.4,624.4z"/>
		</g>
		<g>
			<polygon fill="#262626" points="218,418.8 167.2,488.6 206,488.6 192.6,527.4 228.6,517.8 			"/>
		</g>
		<g>
			<polygon fill="#262626" points="782,418.8 832.8,488.6 794,488.6 807.4,527.4 771.4,517.8 			"/>
		</g>
		<g>
			<g>
				<path fill="#262626" d="M298,850.2c-4.2,0-7.6-3.4-7.6-7.6V794c0-4.2,3.4-7.6,7.6-7.6s7.6,3.4,7.6,7.6v48.4
					C305.8,846.8,302.2,850.2,298,850.2z"/>
			</g>
			<g>
				<path fill="#262626" d="M328.4,889c-4.2,0-7.6-3.4-7.6-7.6V833c0-4.2,3.4-7.6,7.6-7.6s7.6,3.4,7.6,7.6v48.4
					C336.2,885.4,332.8,889,328.4,889z"/>
			</g>
			<g>
				<path fill="#262626" d="M359,922.8c-4.2,0-7.6-3.4-7.6-7.6v-48.4c0-4.2,3.4-7.6,7.6-7.6s7.6,3.4,7.6,7.6v48.4
					C366.6,919.4,363.2,922.8,359,922.8z"/>
			</g>
			<g>
				<path fill="#262626" d="M389.4,947c-4.2,0-7.6-3.4-7.6-7.6V891c0-4.2,3.4-7.6,7.6-7.6s7.6,3.4,7.6,7.6v48.4
					C397,943.6,393.6,947,389.4,947z"/>
			</g>
			<g>
				<path fill="#262626" d="M419.8,961.6c-4.2,0-7.6-3.4-7.6-7.6v-48.4c0-4.2,3.4-7.6,7.6-7.6s7.6,3.4,7.6,7.6V954
					C427.4,958.2,424,961.6,419.8,961.6z"/>
			</g>
			<g>
				<path fill="#262626" d="M450.2,971.2c-4.2,0-7.6-3.4-7.6-7.6v-48.4c0-4.2,3.4-7.6,7.6-7.6s7.6,3.4,7.6,7.6v48.4
					C457.8,967.8,454.4,971.2,450.2,971.2z"/>
			</g>
			<g>
				<path fill="#262626" d="M480.6,971.2c-4.2,0-7.6-3.4-7.6-7.6v-48.4c0-4.2,3.4-7.6,7.6-7.6s7.6,3.4,7.6,7.6v48.4
					C488.2,967.8,484.8,971.2,480.6,971.2z"/>
			</g>
		</g>
		<g>
			<g>
				<path fill="#262626" d="M702,849.4c-4.2,0-7.6-3.4-7.6-7.6v-48.4c0-4.2,3.4-7.6,7.6-7.6s7.6,3.4,7.6,7.6v48.4
					C709.6,846,706.2,849.4,702,849.4z"/>
			</g>
			<g>
				<path fill="#262626" d="M671.6,888.2c-4.2,0-7.6-3.4-7.6-7.6V832c0-4.2,3.4-7.6,7.6-7.6c4.2,0,7.6,3.4,7.6,7.6v48.4
					C679.2,884.6,675.8,888.2,671.6,888.2z"/>
			</g>
			<g>
				<path fill="#262626" d="M641,922c-4.2,0-7.6-3.4-7.6-7.6V866c0-4.2,3.4-7.6,7.6-7.6c4.2,0,7.6,3.4,7.6,7.6v48.4
					C648.8,918.6,645.4,922,641,922z"/>
			</g>
			<g>
				<path fill="#262626" d="M610.6,946.2c-4.2,0-7.6-3.4-7.6-7.6v-48.4c0-4.2,3.4-7.6,7.6-7.6c4.2,0,7.6,3.4,7.6,7.6v48.4
					C618.4,942.8,614.8,946.2,610.6,946.2z"/>
			</g>
			<g>
				<path fill="#262626" d="M580.2,960.8c-4.2,0-7.6-3.4-7.6-7.6v-48.4c0-4.2,3.4-7.6,7.6-7.6c4.2,0,7.6,3.4,7.6,7.6v48.4
					C587.8,957.4,584.4,960.8,580.2,960.8z"/>
			</g>
			<g>
				<path fill="#262626" d="M549.8,970.4c-4.2,0-7.6-3.4-7.6-7.6v-48.4c0-4.2,3.4-7.6,7.6-7.6s7.6,3.4,7.6,7.6v48.4
					C557.4,967,554,970.4,549.8,970.4z"/>
			</g>
			<g>
				<path fill="#262626" d="M519.4,970.4c-4.2,0-7.6-3.4-7.6-7.6v-48.4c0-4.2,3.4-7.6,7.6-7.6s7.6,3.4,7.6,7.6v48.4
					C527,967,523.6,970.4,519.4,970.4z"/>
			</g>
		</g>
		<g>
			<path fill="#262626" d="M530.4,250.6h-69.2c-3.8,0-7-3-7-7c0-3.8,3.2-7,7-7h69.2c20.2,0,20.8-18.6,20.8-20.8v-55.2
				c0-19.6-17.4-20.8-20.8-20.8h-69.2c-3.8,0-7-3-7-7c0-3.8,3.2-7,7-7h69.2c0.8,0,8.8,0.2,17,4.2c11.4,5.6,17.6,16.4,17.6,30.4V216
				c0,0.8-0.2,8.8-4.2,17C555.2,244.2,544.4,250.6,530.4,250.6z"/>
		</g>
		<g>
			<path fill="#262626" d="M475,250.6c-3.8,0-7-3-7-7V132.8c0-3.8,3.2-7,7-7s7,3,7,7v110.8C482,247.4,478.8,250.6,475,250.6z"/>
		</g>
		<g>
			<path fill="#262626" d="M502.8,250.6c-3.8,0-7-3-7-7V132.8c0-3.8,3.2-7,7-7s7,3,7,7v110.8C509.6,247.4,506.6,250.6,502.8,250.6z"
				/>
		</g>
		<g>
			<path fill="#262626" d="M475,181.2h-13.8c-3.8,0-7-3.2-7-7s3.2-7,7-7H475c3.8,0,7,3.2,7,7C482,178.2,478.8,181.2,475,181.2z"/>
		</g>
		<g>
			<path fill="#262626" d="M502.8,167.4h-27.6c-3.8,0-7-3.2-7-7s3.2-7,7-7h27.6c3.8,0,7,3.2,7,7
				C509.6,164.4,506.6,167.4,502.8,167.4z"/>
		</g>
		<g>
			<path fill="#262626" d="M502.8,222.8h-27.6c-3.8,0-7-3-7-7c0-3.8,3.2-7,7-7h27.6c3.8,0,7,3.2,7,7
				C509.6,219.8,506.6,222.8,502.8,222.8z"/>
		</g>
		<g>
			<path fill="#262626" d="M475,209h-13.8c-3.8,0-7-3.2-7-7s3.2-7,7-7H475c3.8,0,7,3,7,7C482,205.8,478.8,209,475,209z"/>
		</g>
		<g>
			<path fill="#262626" d="M502.8,181.2c-3.8,0-7-3.2-7-7s3.2-7,7-7c22,0,44.8-3.6,48.4-7.6c0.4-3.6,3.2-6.2,6.8-6.2
				c3.8,0,7,3.2,7,7C565,170,554.2,181.2,502.8,181.2z"/>
		</g>
		<g>
			<path fill="#262626" d="M558.2,222.8c-3.6,0-6.6-2.8-6.8-6.2c-3.6-4-26.4-7.6-48.4-7.6c-3.8,0-7-3.2-7-7s3.2-7,7-7
				c51.6,0,62.4,11.2,62.4,20.8C565,219.8,562,222.8,558.2,222.8z"/>
		</g>
		<g>
			<path fill="#262626" d="M468.2,780.6c-4.2,0-7.6-3.4-7.6-7.6v-18.4c0-4.2,3.4-7.6,7.6-7.6s7.6,3.4,7.6,7.6V773
				C475.8,777.2,472.4,780.6,468.2,780.6z"/>
		</g>
		<g>
			<path fill="#262626" d="M439,785.4c-4.2,0-7.6-3.4-7.6-7.6v-18.4c0-4.2,3.4-7.6,7.6-7.6s7.6,3.4,7.6,7.6v18.4
				C446.8,782,443.4,785.4,439,785.4z"/>
		</g>
		<g>
			<path fill="#262626" d="M410,790.2c-4.2,0-7.6-3.4-7.6-7.6v-18.4c0-4.2,3.4-7.6,7.6-7.6s7.6,3.4,7.6,7.6v18.4
				C417.6,786.8,414.2,790.2,410,790.2z"/>
		</g>
		<g>
			<path fill="#262626" d="M381,800c-4.2,0-7.6-3.4-7.6-7.6V774c0-4.2,3.4-7.6,7.6-7.6s7.6,3.4,7.6,7.6v18.4
				C388.6,796.6,385.2,800,381,800z"/>
		</g>
		<g>
			<path fill="#262626" d="M530.4,780.6c-4.2,0-7.6-3.4-7.6-7.6v-18.4c0-4.2,3.4-7.6,7.6-7.6s7.6,3.4,7.6,7.6V773
				C538,777.2,534.6,780.6,530.4,780.6z"/>
		</g>
		<g>
			<path fill="#262626" d="M559.4,785.4c-4.2,0-7.6-3.4-7.6-7.6v-18.4c0-4.2,3.4-7.6,7.6-7.6c4.2,0,7.6,3.4,7.6,7.6v18.4
				C567.2,782,563.8,785.4,559.4,785.4z"/>
		</g>
		<g>
			<path fill="#262626" d="M588.6,790.2c-4.2,0-7.6-3.4-7.6-7.6v-18.4c0-4.2,3.4-7.6,7.6-7.6c4.2,0,7.6,3.4,7.6,7.6v18.4
				C596.2,786.8,592.8,790.2,588.6,790.2z"/>
		</g>
		<g>
			<path fill="#262626" d="M617.6,800c-4.2,0-7.6-3.4-7.6-7.6V774c0-4.2,3.4-7.6,7.6-7.6c4.2,0,7.6,3.4,7.6,7.6v18.4
				C625.4,796.6,621.8,800,617.6,800z"/>
		</g>
	</g>
</g>
</svg>
