<?xml version="1.0" encoding="utf-8"?>
<!-- Generator: Adobe Illustrator 17.1.0, SVG Export Plug-In . SVG Version: 6.00 Build 0)  -->
<!DOCTYPE svg PUBLIC "-//W3C//DTD SVG 1.1//EN" "http://www.w3.org/Graphics/SVG/1.1/DTD/svg11.dtd">
<svg version="1.1" id="Layer_1" xmlns="http://www.w3.org/2000/svg" xmlns:xlink="http://www.w3.org/1999/xlink" x="0px" y="0px"
	 viewBox="0 0 288 288" enable-background="new 0 0 288 288" xml:space="preserve">
<g>
	<g>
		<g>
			<path fill="#F25749" d="M100.5,199.3c-30,0-35.4-19-36.6-27.1c-2-15,1.7-22.8,11.8-25.6c2.9-0.9,12.4-2,22.8-2
				c22.8,0,35.4,5.8,36.9,16.4c1.2,10.1-2,19.9-8.4,27.1C120.7,195.3,111.2,199.3,100.5,199.3z M98.8,150.3c-10.4,0-19,1.2-21.3,2
				c-4.9,1.4-9.8,4-7.8,19.3c1.7,14.1,12.7,21.9,30.8,21.9c8.9,0,17-3.2,22.2-9.2s7.8-14.1,6.9-22.5
				C128.4,151.5,107.7,150.3,98.8,150.3z"/>
		</g>
		<g>
			<path fill="#F25749" d="M188.1,199.3c-10.7,0-20.2-4-26.8-11.2c-6.3-7.2-9.5-17-8.4-27.1c1.2-10.7,13.8-16.4,36.9-16.4
				c10.7,0,19.9,1.2,22.8,2c10.4,2.9,13.8,10.7,11.8,25.6C223.5,180.3,217.7,199.3,188.1,199.3z M189.8,150.3
				c-8.9,0-30,1.2-30.8,11.2c-0.9,8.4,1.7,16.7,6.9,22.5c5.5,6,13.2,9.2,22.2,9.2c17.9,0,28.8-7.8,30.8-21.9c2-15-2.9-17.9-7.8-19.3
				C208.8,151.8,199.9,150.3,189.8,150.3z"/>
		</g>
		<g>
			<path fill="#F25749" d="M156.7,160.7c-0.6,0-0.9,0-1.4-0.3c-10.7-5.8-22.5,0-22.5,0c-1.4,0.6-3.2,0-4-1.4c-0.6-1.4,0-3.2,1.4-4
				c0.6-0.3,14.7-7.2,27.9,0c1.4,0.9,2,2.6,1.2,4C158.7,160.1,157.8,160.7,156.7,160.7z"/>
		</g>
	</g>
	<g>
		<path fill="#F25749" d="M144,215.7c-13.8,0-17.6-8.4-17.6-12.7c0-1.7,1.4-2.9,2.9-2.9c1.7,0,2.9,1.2,2.9,2.9
			c0,0.9,0.6,6.9,11.8,6.9s11.8-6,11.8-6.9c0-1.7,1.4-2.9,2.9-2.9c1.7,0,2.9,1.4,2.9,2.9C161.6,207.4,157.8,215.7,144,215.7z"/>
	</g>
	<g>
		<path fill="#F25749" d="M161.6,240.2h-35.1c-1.7,0-2.9-1.4-2.9-2.9c0-1.7,1.4-2.9,2.9-2.9h35.1c1.7,0,2.9,1.4,2.9,2.9
			C164.4,238.8,163.3,240.2,161.6,240.2z"/>
	</g>
	<g>
		<path fill="#F25749" d="M149.8,252h-11.5c-1.7,0-2.9-1.4-2.9-2.9c0-1.7,1.4-2.9,2.9-2.9h11.5c1.7,0,2.9,1.4,2.9,2.9
			C152.9,250.6,151.5,252,149.8,252z"/>
	</g>
	<g>
		<path fill="#F25749" d="M226.1,111.2c-0.9,0-1.4-0.3-2-0.9c-0.3-0.3-23.6-22.5-80.1-22.5s-79.8,22.5-80.1,22.5
			c-0.9,0.9-2,1.2-3.2,0.6s-1.7-1.4-1.7-2.6V73.2c0-0.9,0-18.4,10.7-36.6C87.3,6.3,119.8,0,144,0s56.7,6.3,74.3,36.6
			C229,54.7,229,72.6,229,73.2v35.1c0,1.2-0.6,2.3-1.7,2.6C226.7,111.2,226.4,111.2,226.1,111.2z M144,5.8
			c-32.8,0-56.2,11.2-69.1,33.7c-9.8,16.7-10.1,33.7-10.1,34v29.1c9.8-6.9,34.3-20.2,79.2-20.2c44.6,0,69.4,13.2,79.2,20.2V73.2
			c0-0.3-0.3-17.3-10.1-34C200.2,17,176.8,5.8,144,5.8z"/>
	</g>
	<g>
		<path fill="#F25749" d="M232.7,123.8c-0.3,0-0.6,0-0.9-0.3c-0.3,0-38.3-12.7-87.8-12.7s-87.6,12.4-87.8,12.7
			c-1.2,0.3-2.6,0-3.5-0.9c-0.9-1.2-0.9-2.6-0.3-3.5l7.2-12.7l5.5,3.2l-3.5,5.8c13.8-3.7,44.6-10.7,82.1-10.7s68.3,6.9,82.1,10.7
			l-3.5-5.8l5.5-3.2l7.2,12.7c0.6,1.2,0.6,2.6-0.3,3.5C234.7,123.3,233.9,123.8,232.7,123.8z"/>
	</g>
	<g>
		<circle fill="#F25749" cx="99.9" cy="163.9" r="8.9"/>
	</g>
	<g>
		<circle fill="#F25749" cx="188.1" cy="163.9" r="8.9"/>
	</g>
	<g>
		<path fill="#F25749" d="M120.7,108.3l64.5,24.8l-5.8-11.8h11.8l-5.8-11.8C184.9,109.7,155.8,108.3,120.7,108.3z"/>
	</g>
	<g>
		<path fill="#F25749" d="M126.4,137.7c0,3.2-2.6,5.8-5.8,5.8H85.5c-3.2,0-5.8-2.6-5.8-5.8l0,0c0-3.2,2.6-5.8,5.8-5.8h35.1
			C123.8,131.9,126.4,134.5,126.4,137.7L126.4,137.7z"/>
	</g>
	<g>
		<path fill="#F25749" d="M208.5,137.7c0,3.2-2.6,5.8-5.8,5.8h-35.4c-3.2,0-5.8-2.6-5.8-5.8l0,0c0-3.2,2.6-5.8,5.8-5.8h35.1
			C205.9,131.9,208.5,134.5,208.5,137.7L208.5,137.7z"/>
	</g>
	<g>
		<path fill="#F25749" d="M144,288c-35.4,0-52.1-23.3-66.8-43.8c-1.4-2.3-3.2-4.3-4.6-6.6c-13.2-18.1-13.5-57.3-13.5-59v-58.5
			c0-1.7,1.4-2.9,2.9-2.9c1.7,0,2.9,1.4,2.9,2.9v58.5c0,0.3,0.3,38.9,12.4,55.6c1.7,2.3,3.2,4.3,4.9,6.6
			c14.4,20.4,29.4,41.5,61.9,41.5c1.7,0,2.9,1.4,2.9,2.9C146.9,286.6,145.7,288,144,288z"/>
	</g>
	<g>
		<path fill="#F25749" d="M144,288c-1.7,0-2.9-1.4-2.9-2.9c0-1.7,1.4-2.9,2.9-2.9c32.5,0,47.5-21,61.9-41.2c1.7-2.3,3.2-4.6,4.9-6.6
			c12.1-16.7,12.4-55,12.4-55.6V120c0-1.7,1.4-2.9,2.9-2.9c1.7,0,2.9,1.4,2.9,2.9v58.5c0,1.7-0.3,40.6-13.5,59
			c-1.7,2.3-3.2,4.3-4.6,6.6C196.1,264.7,179.4,288,144,288z"/>
	</g>
	<g>
		<path fill="#F25749" stroke="#231F20" stroke-width="2.0339" stroke-linecap="round" stroke-miterlimit="10" d="M144,285.1"/>
	</g>
	<g>
		<path fill="#F25749" d="M226.1,181.7c-1.7,0-2.9-1.4-2.9-2.9V120c0-1.7,1.4-2.9,2.9-2.9c1.7,0,2.9,1.4,2.9,2.9v58.5
			C229,180.3,227.5,181.7,226.1,181.7z"/>
	</g>
	<g>
		<polygon fill="#F25749" points="58.8,119.5 43.5,140.5 55.3,140.5 51.3,152.4 61.9,149.5 		"/>
	</g>
	<g>
		<polygon fill="#F25749" points="229.2,119.5 244.5,140.5 232.7,140.5 236.7,152.4 226.1,149.5 		"/>
	</g>
	<g>
		<g>
			<path fill="#F25749" d="M82.9,249.7c-1.2,0-2.3-1.2-2.3-2.3v-14.7c0-1.2,1.2-2.3,2.3-2.3s2.3,1.2,2.3,2.3v14.7
				C85.2,248.8,84.4,249.7,82.9,249.7z"/>
		</g>
		<g>
			<path fill="#F25749" d="M92.2,261.5c-1.2,0-2.3-1.2-2.3-2.3v-14.7c0-1.2,1.2-2.3,2.3-2.3c1.2,0,2.3,1.2,2.3,2.3v14.7
				C94.5,260.4,93.6,261.5,92.2,261.5z"/>
		</g>
		<g>
			<path fill="#F25749" d="M101.4,271.9c-1.2,0-2.3-1.2-2.3-2.3v-14.7c0-1.2,1.2-2.3,2.3-2.3c1.2,0,2.3,1.2,2.3,2.3v14.7
				C103.7,270.7,102.5,271.9,101.4,271.9z"/>
		</g>
		<g>
			<path fill="#F25749" d="M110.6,279.1c-1.2,0-2.3-1.2-2.3-2.3v-14.7c0-1.2,1.2-2.3,2.3-2.3c1.2,0,2.3,1.2,2.3,2.3v14.7
				C112.9,277.9,111.7,279.1,110.6,279.1z"/>
		</g>
		<g>
			<path fill="#F25749" d="M119.8,283.4c-1.2,0-2.3-1.2-2.3-2.3v-14.7c0-1.2,1.2-2.3,2.3-2.3c1.2,0,2.3,1.2,2.3,2.3v14.7
				C122.1,282.5,121,283.4,119.8,283.4z"/>
		</g>
		<g>
			<path fill="#F25749" d="M129,286.3c-1.2,0-2.3-1.2-2.3-2.3v-14.7c0-1.2,1.2-2.3,2.3-2.3c1.2,0,2.3,1.2,2.3,2.3V284
				C131.3,285.4,130.2,286.3,129,286.3z"/>
		</g>
		<g>
			<path fill="#F25749" d="M138.2,286.3c-1.2,0-2.3-1.2-2.3-2.3v-14.7c0-1.2,1.2-2.3,2.3-2.3c1.2,0,2.3,1.2,2.3,2.3V284
				C140.5,285.4,139.4,286.3,138.2,286.3z"/>
		</g>
	</g>
	<g>
		<g>
			<path fill="#F25749" d="M205.1,249.7c-1.2,0-2.3-1.2-2.3-2.3v-14.7c0-1.2,1.2-2.3,2.3-2.3s2.3,1.2,2.3,2.3v14.7
				C207.4,248.5,206.2,249.7,205.1,249.7z"/>
		</g>
		<g>
			<path fill="#F25749" d="M195.8,261.2c-1.2,0-2.3-1.2-2.3-2.3v-14.7c0-1.2,1.2-2.3,2.3-2.3s2.3,1.2,2.3,2.3v14.7
				C198.1,260.4,197,261.2,195.8,261.2z"/>
		</g>
		<g>
			<path fill="#F25749" d="M186.6,271.6c-1.2,0-2.3-1.2-2.3-2.3v-14.7c0-1.2,1.2-2.3,2.3-2.3c1.2,0,2.3,1.2,2.3,2.3v14.7
				C188.9,270.4,187.8,271.6,186.6,271.6z"/>
		</g>
		<g>
			<path fill="#F25749" d="M177.4,278.8c-1.2,0-2.3-1.2-2.3-2.3v-14.7c0-1.2,1.2-2.3,2.3-2.3c1.2,0,2.3,1.2,2.3,2.3v14.7
				C179.7,277.9,178.8,278.8,177.4,278.8z"/>
		</g>
		<g>
			<path fill="#F25749" d="M168.2,283.1c-1.2,0-2.3-1.2-2.3-2.3v-14.7c0-1.2,1.2-2.3,2.3-2.3s2.3,1.2,2.3,2.3v14.7
				C170.5,282.2,169.6,283.1,168.2,283.1z"/>
		</g>
		<g>
			<path fill="#F25749" d="M159,286.3c-1.2,0-2.3-1.2-2.3-2.3v-14.7c0-1.2,1.2-2.3,2.3-2.3s2.3,0.9,2.3,2.3V284
				C161.3,285.1,160.4,286.3,159,286.3z"/>
		</g>
		<g>
			<path fill="#F25749" d="M149.8,286.3c-1.2,0-2.3-1.2-2.3-2.3v-14.7c0-1.2,1.2-2.3,2.3-2.3c1.2,0,2.3,1.2,2.3,2.3V284
				C152.1,285.1,151.2,286.3,149.8,286.3z"/>
		</g>
	</g>
	<g>
		<path fill="#F25749" d="M153.2,68.5h-21c-1.2,0-2-0.9-2-2s0.9-2,2-2h21c6,0,6.3-5.8,6.3-6.3V41.5c0-5.8-5.2-6.3-6.3-6.3h-21
			c-1.2,0-2-0.9-2-2c0-1.2,0.9-2,2-2h21c0.3,0,2.6,0,5.2,1.2c3.5,1.7,5.5,4.9,5.5,9.2v16.7c0,0.3,0,2.6-1.2,5.2
			C160.7,66.8,157.5,68.5,153.2,68.5z"/>
	</g>
	<g>
		<path fill="#F25749" d="M136.5,68.5c-1.2,0-2-0.9-2-2V33.1c0-1.2,0.9-2,2-2s2,0.9,2,2v33.4C138.5,67.7,137.7,68.5,136.5,68.5z"/>
	</g>
	<g>
		<path fill="#F25749" d="M144.9,68.5c-1.2,0-2-0.9-2-2V33.1c0-1.2,0.9-2,2-2c1.2,0,2,0.9,2,2v33.4C146.9,67.7,146,68.5,144.9,68.5z
			"/>
	</g>
	<g>
		<path fill="#F25749" d="M136.5,47.8h-4.3c-1.2,0-2-0.9-2-2s0.9-2,2-2h4.3c1.2,0,2,0.9,2,2C138.5,46.7,137.7,47.8,136.5,47.8z"/>
	</g>
	<g>
		<path fill="#F25749" d="M144.9,43.5h-8.4c-1.2,0-2-0.9-2-2c0-1.2,0.9-2,2-2h8.4c1.2,0,2,0.9,2,2S146,43.5,144.9,43.5z"/>
	</g>
	<g>
		<path fill="#F25749" d="M144.9,60.2h-8.4c-1.2,0-2-0.9-2-2c0-1.2,0.9-2,2-2h8.4c1.2,0,2,0.9,2,2S146,60.2,144.9,60.2z"/>
	</g>
	<g>
		<path fill="#F25749" d="M136.5,56.2h-4.3c-1.2,0-2-0.9-2-2c0-1.2,0.9-2,2-2h4.3c1.2,0,2,0.9,2,2C138.5,55,137.7,56.2,136.5,56.2z"
			/>
	</g>
	<g>
		<path fill="#F25749" d="M144.9,47.8c-1.2,0-2-0.9-2-2s0.9-2,2-2c6.6,0,13.5-1.2,14.7-2.3c0-1.2,0.9-2,2-2c1.2,0,2,0.9,2,2
			C163.6,44.4,160.4,47.8,144.9,47.8z"/>
	</g>
	<g>
		<path fill="#F25749" d="M161.6,60.2c-1.2,0-2-0.9-2-2c-1.2-1.2-8.1-2.3-14.7-2.3c-1.2,0-2-0.9-2-2c0-1.2,0.9-2,2-2
			c15.6,0,18.7,3.5,18.7,6.3C163.6,59.3,162.7,60.2,161.6,60.2z"/>
	</g>
	<g>
		<path fill="#F25749" d="M134.5,228.7c-1.2,0-2.3-1.2-2.3-2.3v-5.5c0-1.2,1.2-2.3,2.3-2.3c1.2,0,2.3,1.2,2.3,2.3v5.5
			C136.8,227.8,135.6,228.7,134.5,228.7z"/>
	</g>
	<g>
		<path fill="#F25749" d="M125.6,230.1c-1.2,0-2.3-1.2-2.3-2.3v-5.5c0-1.2,1.2-2.3,2.3-2.3s2.3,1.2,2.3,2.3v5.5
			C127.9,229.2,127,230.1,125.6,230.1z"/>
	</g>
	<g>
		<path fill="#F25749" d="M116.9,231.8c-1.2,0-2.3-1.2-2.3-2.3V224c0-1.2,1.2-2.3,2.3-2.3c1.2,0,2.3,1.2,2.3,2.3v5.5
			C119.2,230.7,118.1,231.8,116.9,231.8z"/>
	</g>
	<g>
		<path fill="#F25749" d="M108,234.7c-1.2,0-2.3-1.2-2.3-2.3v-5.5c0-1.2,1.2-2.3,2.3-2.3s2.3,1.2,2.3,2.3v5.5
			C110.3,233.6,109.4,234.7,108,234.7z"/>
	</g>
	<g>
		<path fill="#F25749" d="M153.2,228.7c-1.2,0-2.3-1.2-2.3-2.3v-5.5c0-1.2,1.2-2.3,2.3-2.3c1.2,0,2.3,1.2,2.3,2.3v5.5
			C155.5,227.8,154.4,228.7,153.2,228.7z"/>
	</g>
	<g>
		<path fill="#F25749" d="M161.9,230.1c-1.2,0-2.3-1.2-2.3-2.3v-5.5c0-1.2,1.2-2.3,2.3-2.3c1.2,0,2.3,1.2,2.3,2.3v5.5
			C164.2,229.2,163.3,230.1,161.9,230.1z"/>
	</g>
	<g>
		<path fill="#F25749" d="M170.8,231.8c-1.2,0-2.3-1.2-2.3-2.3V224c0-1.2,1.2-2.3,2.3-2.3c1.2,0,2.3,1.2,2.3,2.3v5.5
			C173.1,230.7,171.9,231.8,170.8,231.8z"/>
	</g>
	<g>
		<path fill="#F25749" d="M179.4,234.7c-1.2,0-2.3-1.2-2.3-2.3v-5.5c0-1.2,1.2-2.3,2.3-2.3s2.3,1.2,2.3,2.3v5.5
			C181.7,233.6,180.9,234.7,179.4,234.7z"/>
	</g>
</g>
</svg>
