<?xml version="1.0" encoding="utf-8"?>
<!-- Generator: Adobe Illustrator 17.1.0, SVG Export Plug-In . SVG Version: 6.00 Build 0)  -->
<!DOCTYPE svg PUBLIC "-//W3C//DTD SVG 1.1//EN" "http://www.w3.org/Graphics/SVG/1.1/DTD/svg11.dtd">
<svg version="1.1" id="Layer_1" xmlns="http://www.w3.org/2000/svg" xmlns:xlink="http://www.w3.org/1999/xlink" x="0px" y="0px"
	 viewBox="0 0 100 100" enable-background="new 0 0 100 100" xml:space="preserve">
<g>
	<g>
		<path fill="#FFFFFF" d="M4.8,63.7c2.1-2.5,4.8-3.7,8-3.7c4.2,0,7,1.6,8.4,4.9c0.5,1.1,0.7,2.5,0.7,4.1v17.4h-4.8V69.8
			c0-2.2-0.5-3.7-1.5-4.7c-1-0.9-2.3-1.4-4-1.4c-1.8,0-3.4,0.7-4.8,2.1c-1.4,1.4-2.1,3.1-2.1,5.1v15.4H0V49.9h4.8L4.8,63.7L4.8,63.7
			z"/>
		<path fill="#FFFFFF" d="M30.1,74.5c0.1,4,1.4,6.6,4,7.9c0.9,0.4,2,0.7,3.3,0.7c1.3,0,2.4-0.3,3.2-0.8c0.8-0.5,1.5-1.1,1.9-1.8
			c0.7-1.1,1.1-2.3,1.1-3.8h4.5c0,3.1-1,5.5-3,7.4c-2,1.8-4.6,2.7-7.8,2.7h-0.2c-3.5,0-6.4-1.1-8.5-3.3c-2.2-2.4-3.3-5.6-3.3-9.6v-1
			c0-4,1.1-7.2,3.3-9.6c2.1-2.3,4.8-3.4,8.4-3.4h0.4c3.2,0,5.8,1,7.8,2.9c2,2,3,4.6,3,8v3.6L30.1,74.5L30.1,74.5z M37.1,63.8
			c-1.9,0-3.4,0.6-4.7,1.7c-1.2,1.2-2,2.9-2.2,5.3h13.3v-0.6c0-2-0.6-3.6-1.9-4.8C40.5,64.3,39,63.8,37.1,63.8z"/>
		<path fill="#FFFFFF" d="M49.3,86.4l9.5-13.1l-9-12.8h5.7l6.2,8.8l6.4-8.8h5.2l-9.1,12.5l9.5,13.4h-5.7l-6.7-9.5l-6.8,9.5H49.3z"/>
		<path fill="#FFFFFF" d="M77.1,91.2c1,0.5,1.9,0.7,2.5,0.7c0.6,0,1.2-0.1,1.6-0.2c0.4-0.1,0.9-0.4,1.4-0.8c1.1-1,2.1-2.6,2.8-4.8
			L75.3,60.5h5.1l7.4,19.1H88l7.3-19.1h4.7l-9.7,24.9c-1.4,3.5-2.6,5.8-3.5,7c-0.9,1.2-1.9,2.1-2.8,2.6c-0.9,0.6-2.1,0.8-3.3,0.8
			c-1.3,0-2.5-0.2-3.5-0.7V91.2z"/>
	</g>
	<g>
		<g>
			<path fill="#FFFFFF" d="M60.8,15.9H39.2c-0.2,0-0.4-0.1-0.4-0.3s0-0.4,0.1-0.5L49.7,4.3c0.2-0.2,0.5-0.2,0.7,0l10.8,10.8
				c0.1,0.1,0.2,0.3,0.1,0.5C61.1,15.8,60.9,15.9,60.8,15.9z M40.4,15h19.2L50,5.3L40.4,15z"/>
		</g>
		<g>
			<path fill="#FFFFFF" d="M50,26.6c-0.1,0-0.2,0-0.3-0.1L38.9,15.8c-0.1-0.1-0.2-0.3-0.1-0.5c0.1-0.2,0.2-0.3,0.4-0.3h21.5
				c0.2,0,0.4,0.1,0.4,0.3c0.1,0.2,0,0.4-0.1,0.5L50.3,26.5C50.2,26.6,50.1,26.6,50,26.6z M40.4,15.9l9.6,9.6l9.6-9.6
				C59.6,15.9,40.4,15.9,40.4,15.9z"/>
		</g>
		<g>
			<path fill="#FFFFFF" d="M39.2,37.4c-0.1,0-0.2,0-0.3-0.1L28.2,26.5C28,26.4,28,26.2,28.1,26c0.1-0.2,0.2-0.3,0.4-0.3H50
				c0.2,0,0.4,0.1,0.4,0.3c0.1,0.2,0,0.4-0.1,0.5L39.6,37.3C39.5,37.4,39.4,37.4,39.2,37.4z M29.6,26.6l9.6,9.6l9.6-9.6H29.6z"/>
		</g>
		<g>
			<path fill="#FFFFFF" d="M60.8,37.4c-0.1,0-0.2,0-0.3-0.1L49.7,26.5c-0.1-0.1-0.2-0.3-0.1-0.5c0.1-0.2,0.2-0.3,0.4-0.3h21.5
				c0.2,0,0.4,0.1,0.4,0.3s0,0.4-0.1,0.5L61.1,37.3C61,37.4,60.9,37.4,60.8,37.4z M51.1,26.6l9.6,9.6l9.6-9.6H51.1z"/>
		</g>
		<g>
			<path fill="#FFFFFF" d="M60.8,37.4H39.2c-0.2,0-0.4-0.1-0.4-0.3c-0.1-0.2,0-0.4,0.1-0.5l10.8-10.8c0.2-0.2,0.5-0.2,0.7,0
				l10.8,10.8c0.1,0.1,0.2,0.3,0.1,0.5C61.1,37.3,60.9,37.4,60.8,37.4z M40.4,36.5h19.2L50,26.8L40.4,36.5z"/>
		</g>
		<g>
			<path fill="#FFFFFF" d="M50,48.2c-0.1,0-0.2,0-0.3-0.1L38.9,37.3c-0.1-0.1-0.2-0.3-0.1-0.5c0.1-0.2,0.2-0.3,0.4-0.3h21.5
				c0.2,0,0.4,0.1,0.4,0.3c0.1,0.2,0,0.4-0.1,0.5L50.3,48C50.2,48.1,50.1,48.2,50,48.2z M40.4,37.4L50,47l9.6-9.6H40.4z"/>
		</g>
		<g>
			<path fill="#FFFFFF" d="M50,26.6H28.5c-0.2,0-0.4-0.1-0.4-0.3c-0.1-0.2,0-0.4,0.1-0.5l10.8-10.8c0.2-0.2,0.5-0.2,0.7,0l10.8,10.8
				c0.1,0.1,0.2,0.3,0.1,0.5C50.4,26.5,50.2,26.6,50,26.6z M29.6,25.7h19.2l-9.6-9.6L29.6,25.7z"/>
		</g>
		<g>
			<path fill="#FFFFFF" d="M71.5,26.6H50c-0.2,0-0.4-0.1-0.4-0.3c-0.1-0.2,0-0.4,0.1-0.5l10.8-10.8c0.2-0.2,0.5-0.2,0.7,0l10.8,10.8
				c0.1,0.1,0.2,0.3,0.1,0.5C71.9,26.5,71.7,26.6,71.5,26.6z M51.1,25.7h19.2l-9.6-9.6L51.1,25.7z"/>
		</g>
	</g>
</g>
</svg>
