<?xml version="1.0" encoding="utf-8"?>
<!-- Generator: Adobe Illustrator 17.1.0, SVG Export Plug-In . SVG Version: 6.00 Build 0)  -->
<!DOCTYPE svg PUBLIC "-//W3C//DTD SVG 1.1//EN" "http://www.w3.org/Graphics/SVG/1.1/DTD/svg11.dtd">
<svg version="1.1" id="Layer_1" xmlns="http://www.w3.org/2000/svg" xmlns:xlink="http://www.w3.org/1999/xlink" x="0px" y="0px"
	 viewBox="0 0 200 200" enable-background="new 0 0 200 200" xml:space="preserve">
<path fill="#0B2C3C" d="M64.2,182.9h3.2l2.2-4.8h8.5l2.1,4.8h3.2l-9.4-21.1L64.2,182.9z M70.9,175.2l3.1-6.7l2.9,6.7H70.9z
	 M45.3,161.4l3.7,21.3h-3l-1.9-12l-5.9,12.9l-5.8-12.9l-2.1,12h-3l4.1-21.3l6.9,15.4L45.3,161.4z M61.8,64.8l-26.2,52.5h39.3
	L85.8,139H24.6H0L61.8,15.8l50.8,101.2h52.1l-26.2-52.3l-20.2,40.2l-12.5-25l32.7-64.3L200,138.9H98.7L61.8,64.8z M139.2,163h3.2
	l-8.9,21.3l-8.7-21.3h3.2l5.5,13.8L139.2,163z M99.1,163H110v2.9h-8v4.8h7.7v2.9H102v6.5h8v2.9H99.1V163L99.1,163z M158.1,163H169
	v2.9h-8v4.8h7.7v2.9H161v6.5h8v2.9h-10.9V163z"/>
</svg>
