<?xml version="1.0" encoding="utf-8"?>
<!-- Generator: Adobe Illustrator 17.1.0, SVG Export Plug-In . SVG Version: 6.00 Build 0)  -->
<!DOCTYPE svg PUBLIC "-//W3C//DTD SVG 1.1//EN" "http://www.w3.org/Graphics/SVG/1.1/DTD/svg11.dtd">
<svg version="1.1" id="Layer_1" xmlns="http://www.w3.org/2000/svg" xmlns:xlink="http://www.w3.org/1999/xlink" x="0px" y="0px"
	 viewBox="0 0 100 100" enable-background="new 0 0 100 100" xml:space="preserve">
<g>
	<g>
		<g>
			<g>
				<g>
					<g>
						<path fill="#FFFFFF" d="M46.1,48.7c-2.7,0-3.2-1.7-3.3-2.4c-0.2-1.3,0.1-2,1.1-2.3c0.3-0.1,1.1-0.2,2-0.2c2,0,3.2,0.5,3.3,1.5
							c0.1,0.9-0.2,1.8-0.7,2.4C47.9,48.3,47,48.7,46.1,48.7z M45.9,44.3c-0.9,0-1.7,0.1-1.9,0.2c-0.4,0.1-0.9,0.4-0.7,1.7
							c0.2,1.3,1.1,2,2.7,2c0.8,0,1.5-0.3,2-0.8c0.5-0.5,0.7-1.3,0.6-2C48.6,44.4,46.7,44.3,45.9,44.3z"/>
					</g>
					<g>
						<path fill="#FFFFFF" d="M53.9,48.7c-1,0-1.8-0.4-2.4-1c-0.6-0.6-0.8-1.5-0.7-2.4c0.1-1,1.2-1.5,3.3-1.5c0.9,0,1.8,0.1,2,0.2
							c0.9,0.3,1.2,0.9,1.1,2.3C57.1,47,56.6,48.7,53.9,48.7z M54.1,44.3c-0.8,0-2.7,0.1-2.8,1c-0.1,0.8,0.1,1.5,0.6,2
							c0.5,0.5,1.2,0.8,2,0.8c1.6,0,2.6-0.7,2.7-2c0.2-1.3-0.2-1.6-0.7-1.7C55.8,44.4,55,44.3,54.1,44.3z"/>
					</g>
					<g>
						<path fill="#FFFFFF" d="M48.9,45.2c-0.1,0-0.2-0.1-0.2-0.1c-0.1-0.1,0-0.3,0.1-0.4c0.1,0,1.3-0.6,2.5,0
							c0.1,0.1,0.2,0.2,0.1,0.4c-0.1,0.1-0.2,0.2-0.4,0.1c-1-0.5-2,0-2,0C48.9,45.2,48.9,45.2,48.9,45.2z"/>
					</g>
				</g>
				<g>
					<path fill="#FFFFFF" d="M50,50.2c-1.2,0-1.6-0.7-1.6-1.1c0-0.1,0.1-0.3,0.3-0.3c0.1,0,0.3,0.1,0.3,0.3c0,0.1,0.1,0.6,1,0.6
						c1,0,1-0.6,1-0.6c0-0.1,0.1-0.3,0.3-0.3c0.1,0,0.3,0.1,0.3,0.3C51.6,49.4,51.2,50.2,50,50.2z"/>
				</g>
				<g>
					<path fill="#FFFFFF" d="M51.6,52.3h-3.1c-0.1,0-0.3-0.1-0.3-0.3c0-0.1,0.1-0.3,0.3-0.3h3.1c0.1,0,0.3,0.1,0.3,0.3
						C51.8,52.2,51.7,52.3,51.6,52.3z"/>
				</g>
				<g>
					<path fill="#FFFFFF" d="M50.5,53.4h-1c-0.1,0-0.3-0.1-0.3-0.3c0-0.1,0.1-0.3,0.3-0.3h1c0.1,0,0.3,0.1,0.3,0.3
						C50.8,53.3,50.7,53.4,50.5,53.4z"/>
				</g>
				<g>
					<path fill="#FFFFFF" d="M42.7,40.8C42.7,40.8,42.6,40.8,42.7,40.8c-0.2-0.1-0.3-0.2-0.3-0.3v-3.1c0-0.1,0-1.7,0.9-3.3
						c0.9-1.5,2.7-3.3,6.6-3.3c2.2,0,5.1,0.6,6.6,3.3c0.9,1.6,0.9,3.2,0.9,3.3v3.1c0,0.1-0.1,0.2-0.2,0.2c-0.1,0-0.2,0-0.3-0.1
						c0,0-2.1-2-7.1-2c-5.1,0-7.1,2-7.1,2C42.8,40.8,42.8,40.8,42.7,40.8z M50,38.2c4,0,6.2,1.2,7.1,1.8v-2.6c0,0,0-1.5-0.9-3
						c-1.2-2-3.2-3-6.2-3c-2.9,0-5,1-6.2,3c-0.9,1.5-0.9,3-0.9,3V40C43.8,39.4,46,38.2,50,38.2z"/>
				</g>
				<g>
					<path fill="#FFFFFF" d="M42.1,42c-0.1,0-0.2,0-0.2-0.1c-0.1-0.1-0.1-0.2,0-0.3l0.7-1.1l0.5,0.3l-0.3,0.5c1.2-0.3,4-0.9,7.3-0.9
						c3.3,0,6.1,0.6,7.3,0.9L57,40.7l0.5-0.3l0.7,1.1c0.1,0.1,0,0.2,0,0.3c-0.1,0.1-0.2,0.1-0.3,0.1c0,0-3.4-1.1-7.8-1.1
						C45.6,40.8,42.2,41.9,42.1,42C42.1,41.9,42.1,42,42.1,42z"/>
				</g>
				<g>
					<path fill="#FFFFFF" d="M46.9,45.5c0,0.4-0.4,0.8-0.8,0.8c-0.4,0-0.8-0.4-0.8-0.8c0-0.4,0.4-0.8,0.8-0.8
						C46.5,44.8,46.9,45.1,46.9,45.5z"/>
				</g>
				<g>
					<path fill="#FFFFFF" d="M54.7,45.5c0,0.4-0.4,0.8-0.8,0.8c-0.4,0-0.8-0.4-0.8-0.8c0-0.4,0.4-0.8,0.8-0.8
						C54.4,44.8,54.7,45.1,54.7,45.5z"/>
				</g>
				<g>
					<path fill="#FFFFFF" d="M47.9,40.6l5.7,2.2l-0.5-1h1l-0.5-1C53.7,40.7,51,40.6,47.9,40.6z"/>
				</g>
				<g>
					<path fill="#FFFFFF" d="M48.4,43.2c0,0.3-0.2,0.5-0.5,0.5h-3.1c-0.3,0-0.5-0.2-0.5-0.5l0,0c0-0.3,0.2-0.5,0.5-0.5h3.1
						C48.2,42.7,48.4,42.9,48.4,43.2L48.4,43.2z"/>
				</g>
				<g>
					<path fill="#FFFFFF" d="M55.7,43.2c0,0.3-0.2,0.5-0.5,0.5h-3.1c-0.3,0-0.5-0.2-0.5-0.5l0,0c0-0.3,0.2-0.5,0.5-0.5h3.1
						C55.5,42.7,55.7,42.9,55.7,43.2L55.7,43.2z"/>
				</g>
				<g>
					<path fill="#FFFFFF" d="M50,56.6c-3.2,0-4.6-2.1-6-3.9c-0.1-0.2-0.3-0.4-0.4-0.6c-1.2-1.6-1.2-5.1-1.2-5.3v-5.2
						c0-0.1,0.1-0.3,0.3-0.3c0.1,0,0.3,0.1,0.3,0.3v5.2c0,0,0,3.5,1.1,5c0.1,0.2,0.3,0.4,0.4,0.6c1.3,1.8,2.6,3.7,5.5,3.7
						c0.1,0,0.3,0.1,0.3,0.3C50.3,56.5,50.1,56.6,50,56.6z"/>
				</g>
				<g>
					<path fill="#FFFFFF" d="M50,56.6c-0.1,0-0.3-0.1-0.3-0.3c0-0.1,0.1-0.3,0.3-0.3c2.9,0,4.2-1.9,5.5-3.7c0.1-0.2,0.3-0.4,0.4-0.6
						c1.1-1.5,1.1-4.9,1.1-5v-5.2c0-0.1,0.1-0.3,0.3-0.3c0.1,0,0.3,0.1,0.3,0.3v5.2c0,0.1,0,3.6-1.2,5.3c-0.1,0.2-0.3,0.4-0.4,0.6
						C54.6,54.5,53.2,56.6,50,56.6z"/>
				</g>
				<g>
					<path fill="#FFFFFF" d="M50,56.3"/>
				</g>
				<g>
					<path fill="#FFFFFF" d="M57.3,47.1c-0.1,0-0.3-0.1-0.3-0.3v-5.2c0-0.1,0.1-0.3,0.3-0.3c0.1,0,0.3,0.1,0.3,0.3v5.2
						C57.6,47,57.5,47.1,57.3,47.1z"/>
				</g>
				<g>
					<polygon fill="#FFFFFF" points="42.4,41.6 41,43.5 42.1,43.5 41.7,44.5 42.7,44.2 					"/>
				</g>
				<g>
					<polygon fill="#FFFFFF" points="57.6,41.6 59,43.5 57.9,43.5 58.3,44.5 57.3,44.2 					"/>
				</g>
				<g>
					<g>
						<path fill="#FFFFFF" d="M44.6,53.2c-0.1,0-0.2-0.1-0.2-0.2v-1.3c0-0.1,0.1-0.2,0.2-0.2c0.1,0,0.2,0.1,0.2,0.2V53
							C44.8,53.1,44.7,53.2,44.6,53.2z"/>
					</g>
					<g>
						<path fill="#FFFFFF" d="M45.4,54.2c-0.1,0-0.2-0.1-0.2-0.2v-1.3c0-0.1,0.1-0.2,0.2-0.2c0.1,0,0.2,0.1,0.2,0.2V54
							C45.6,54.2,45.5,54.2,45.4,54.2z"/>
					</g>
					<g>
						<path fill="#FFFFFF" d="M46.2,55.2c-0.1,0-0.2-0.1-0.2-0.2v-1.3c0-0.1,0.1-0.2,0.2-0.2c0.1,0,0.2,0.1,0.2,0.2V55
							C46.4,55.1,46.3,55.2,46.2,55.2z"/>
					</g>
					<g>
						<path fill="#FFFFFF" d="M47,55.8c-0.1,0-0.2-0.1-0.2-0.2v-1.3c0-0.1,0.1-0.2,0.2-0.2c0.1,0,0.2,0.1,0.2,0.2v1.3
							C47.2,55.7,47.1,55.8,47,55.8z"/>
					</g>
					<g>
						<path fill="#FFFFFF" d="M47.8,56.2c-0.1,0-0.2-0.1-0.2-0.2v-1.3c0-0.1,0.1-0.2,0.2-0.2c0.1,0,0.2,0.1,0.2,0.2V56
							C48,56.1,48,56.2,47.8,56.2z"/>
					</g>
					<g>
						<path fill="#FFFFFF" d="M48.7,56.5c-0.1,0-0.2-0.1-0.2-0.2V55c0-0.1,0.1-0.2,0.2-0.2c0.1,0,0.2,0.1,0.2,0.2v1.3
							C48.9,56.4,48.8,56.5,48.7,56.5z"/>
					</g>
					<g>
						<path fill="#FFFFFF" d="M49.5,56.5c-0.1,0-0.2-0.1-0.2-0.2V55c0-0.1,0.1-0.2,0.2-0.2c0.1,0,0.2,0.1,0.2,0.2v1.3
							C49.7,56.4,49.6,56.5,49.5,56.5z"/>
					</g>
				</g>
				<g>
					<g>
						<path fill="#FFFFFF" d="M55.4,53.2c-0.1,0-0.2-0.1-0.2-0.2v-1.3c0-0.1,0.1-0.2,0.2-0.2c0.1,0,0.2,0.1,0.2,0.2V53
							C55.7,53.1,55.6,53.2,55.4,53.2z"/>
					</g>
					<g>
						<path fill="#FFFFFF" d="M54.6,54.2c-0.1,0-0.2-0.1-0.2-0.2v-1.3c0-0.1,0.1-0.2,0.2-0.2s0.2,0.1,0.2,0.2V54
							C54.8,54.1,54.7,54.2,54.6,54.2z"/>
					</g>
					<g>
						<path fill="#FFFFFF" d="M53.8,55.1c-0.1,0-0.2-0.1-0.2-0.2v-1.3c0-0.1,0.1-0.2,0.2-0.2c0.1,0,0.2,0.1,0.2,0.2v1.3
							C54,55,53.9,55.1,53.8,55.1z"/>
					</g>
					<g>
						<path fill="#FFFFFF" d="M53,55.8c-0.1,0-0.2-0.1-0.2-0.2v-1.3c0-0.1,0.1-0.2,0.2-0.2c0.1,0,0.2,0.1,0.2,0.2v1.3
							C53.2,55.7,53.1,55.8,53,55.8z"/>
					</g>
					<g>
						<path fill="#FFFFFF" d="M52.2,56.2C52,56.2,52,56.1,52,56v-1.3c0-0.1,0.1-0.2,0.2-0.2c0.1,0,0.2,0.1,0.2,0.2V56
							C52.4,56.1,52.3,56.2,52.2,56.2z"/>
					</g>
					<g>
						<path fill="#FFFFFF" d="M51.3,56.4c-0.1,0-0.2-0.1-0.2-0.2v-1.3c0-0.1,0.1-0.2,0.2-0.2c0.1,0,0.2,0.1,0.2,0.2v1.3
							C51.5,56.4,51.5,56.4,51.3,56.4z"/>
					</g>
					<g>
						<path fill="#FFFFFF" d="M50.5,56.4c-0.1,0-0.2-0.1-0.2-0.2v-1.3c0-0.1,0.1-0.2,0.2-0.2c0.1,0,0.2,0.1,0.2,0.2v1.3
							C50.7,56.4,50.6,56.4,50.5,56.4z"/>
					</g>
				</g>
				<g>
					<path fill="#FFFFFF" d="M50.8,37H49c-0.1,0-0.2-0.1-0.2-0.2c0-0.1,0.1-0.2,0.2-0.2h1.9c0.5,0,0.6-0.5,0.6-0.6v-1.5
						c0-0.5-0.5-0.6-0.6-0.6H49c-0.1,0-0.2-0.1-0.2-0.2s0.1-0.2,0.2-0.2h1.9c0,0,0.2,0,0.5,0.1c0.3,0.2,0.5,0.4,0.5,0.8v1.5
						c0,0,0,0.2-0.1,0.5C51.5,36.9,51.2,37,50.8,37z"/>
				</g>
				<g>
					<path fill="#FFFFFF" d="M49.3,37c-0.1,0-0.2-0.1-0.2-0.2v-3c0-0.1,0.1-0.2,0.2-0.2c0.1,0,0.2,0.1,0.2,0.2v3
						C49.5,37,49.4,37,49.3,37z"/>
				</g>
				<g>
					<path fill="#FFFFFF" d="M50.1,37c-0.1,0-0.2-0.1-0.2-0.2v-3c0-0.1,0.1-0.2,0.2-0.2c0.1,0,0.2,0.1,0.2,0.2v3
						C50.3,37,50.2,37,50.1,37z"/>
				</g>
				<g>
					<path fill="#FFFFFF" d="M49.3,35.2H49c-0.1,0-0.2-0.1-0.2-0.2c0-0.1,0.1-0.2,0.2-0.2h0.4c0.1,0,0.2,0.1,0.2,0.2
						C49.5,35.1,49.4,35.2,49.3,35.2z"/>
				</g>
				<g>
					<path fill="#FFFFFF" d="M50.1,34.8h-0.7c-0.1,0-0.2-0.1-0.2-0.2c0-0.1,0.1-0.2,0.2-0.2h0.7c0.1,0,0.2,0.1,0.2,0.2
						C50.3,34.7,50.2,34.8,50.1,34.8z"/>
				</g>
				<g>
					<path fill="#FFFFFF" d="M50.1,36.3h-0.7c-0.1,0-0.2-0.1-0.2-0.2c0-0.1,0.1-0.2,0.2-0.2h0.7c0.1,0,0.2,0.1,0.2,0.2
						C50.3,36.2,50.2,36.3,50.1,36.3z"/>
				</g>
				<g>
					<path fill="#FFFFFF" d="M49.3,35.9H49c-0.1,0-0.2-0.1-0.2-0.2c0-0.1,0.1-0.2,0.2-0.2h0.4c0.1,0,0.2,0.1,0.2,0.2
						C49.5,35.8,49.4,35.9,49.3,35.9z"/>
				</g>
				<g>
					<path fill="#FFFFFF" d="M50.1,35.2c-0.1,0-0.2-0.1-0.2-0.2c0-0.1,0.1-0.2,0.2-0.2c0.6,0,1.2-0.1,1.3-0.2c0-0.1,0.1-0.2,0.2-0.2
						c0.1,0,0.2,0.1,0.2,0.2C51.8,34.9,51.5,35.2,50.1,35.2z"/>
				</g>
				<g>
					<path fill="#FFFFFF" d="M51.6,36.3c-0.1,0-0.2-0.1-0.2-0.2c-0.1-0.1-0.7-0.2-1.3-0.2c-0.1,0-0.2-0.1-0.2-0.2s0.1-0.2,0.2-0.2
						c1.4,0,1.7,0.3,1.7,0.6C51.8,36.2,51.7,36.3,51.6,36.3z"/>
				</g>
			</g>
			<g>
				<g>
					<path fill="#FFFFFF" d="M42.7,48c0,0.2-0.1,0.3-0.3,0.3h-1.4c-0.2,0-0.3-0.1-0.3-0.3v-5.3c0-0.2,0.1-0.3,0.3-0.3h1.4
						c0.2,0,0.3,0.1,0.3,0.3V48z"/>
				</g>
				<g>
					<path fill="#FFFFFF" d="M41.3,46.7c0,0.2-0.1,0.3-0.3,0.3h-0.5c-0.2,0-0.3-0.1-0.3-0.3V44c0-0.2,0.1-0.3,0.3-0.3h0.5
						c0.2,0,0.3,0.1,0.3,0.3V46.7z"/>
				</g>
				<g>
					<path fill="#FFFFFF" d="M41.8,42.8h-0.7v-4.1c0-0.1,0-2.1,1.1-4c1.8-3.4,5.2-4.1,7.7-4.1v0.7c-8,0-8.2,7.1-8.2,7.4V42.8
						L41.8,42.8z"/>
				</g>
				<g>
					<path fill="#FFFFFF" d="M57.3,48c0,0.2,0.1,0.3,0.3,0.3h1.4c0.2,0,0.3-0.1,0.3-0.3v-5.3c0-0.2-0.1-0.3-0.3-0.3h-1.4
						c-0.2,0-0.3,0.1-0.3,0.3V48z"/>
				</g>
				<g>
					<path fill="#FFFFFF" d="M58.7,46.7c0,0.2,0.1,0.3,0.3,0.3h0.5c0.2,0,0.3-0.1,0.3-0.3V44c0-0.2-0.1-0.3-0.3-0.3h-0.5
						c-0.2,0-0.3,0.1-0.3,0.3V46.7z"/>
				</g>
				<g>
					<path fill="#FFFFFF" d="M58.8,42.8h-0.7v-4.1c0-0.3-0.1-7.4-8.2-7.4v-0.7c2.5,0,5.9,0.7,7.7,4.1c1.1,2,1.1,4,1.1,4L58.8,42.8
						L58.8,42.8z"/>
				</g>
				<g>
					<rect x="58.3" y="48" fill="#FFFFFF" width="0.3" height="11.3"/>
				</g>
			</g>
		</g>
		<g>
			<path fill="#FFFFFF" d="M50,26.6c9.4,0,17,7.6,17,17c0,9.4-7.6,17-17,17s-17-7.6-17-17S40.6,26.6,50,26.6 M50,25.7
				c-9.9,0-17.9,8-17.9,17.9s8,17.9,17.9,17.9s17.9-8,17.9-17.9S59.9,25.7,50,25.7L50,25.7z"/>
		</g>
	</g>
	<g>
		<path fill="#FFFFFF" d="M3.2,74.2H1.5v-4.8H0V68h4.7v1.4H3.2L3.2,74.2L3.2,74.2z"/>
		<path fill="#FFFFFF" d="M11.4,71.1c0,1-0.3,1.8-0.8,2.4c-0.5,0.5-1.3,0.8-2.2,0.8c-1,0-1.7-0.3-2.2-0.8c-0.5-0.5-0.8-1.3-0.8-2.4
			c0-1,0.3-1.8,0.8-2.4c0.5-0.5,1.3-0.8,2.2-0.8c1,0,1.7,0.3,2.2,0.8C11.1,69.2,11.4,70,11.4,71.1z M7.1,71.1c0,1.2,0.4,1.8,1.2,1.8
			c0.4,0,0.7-0.1,0.9-0.4c0.2-0.3,0.3-0.7,0.3-1.4c0-0.6-0.1-1.1-0.3-1.4c-0.2-0.3-0.5-0.4-0.9-0.4C7.5,69.3,7.1,69.9,7.1,71.1z"/>
		<path fill="#FFFFFF" d="M17,70c0,0.7-0.2,1.2-0.6,1.6c-0.4,0.4-1,0.6-1.7,0.6h-0.5v2.1h-1.7V68h2.1c0.8,0,1.4,0.2,1.8,0.5
			C16.8,68.9,17,69.3,17,70z M14.1,70.8h0.3c0.3,0,0.5-0.1,0.6-0.2c0.1-0.1,0.2-0.3,0.2-0.6c0-0.4-0.2-0.6-0.7-0.6h-0.4L14.1,70.8
			L14.1,70.8z"/>
		<path fill="#FFFFFF" d="M22.3,70.1c0.4,0,0.7,0.1,1,0.2s0.5,0.4,0.7,0.7c0.2,0.3,0.2,0.7,0.2,1c0,0.7-0.2,1.2-0.6,1.6
			s-1,0.6-1.9,0.6c-0.7,0-1.3-0.1-1.8-0.3v-1.4c0.2,0.1,0.5,0.2,0.8,0.3c0.3,0.1,0.6,0.1,0.8,0.1c0.3,0,0.5-0.1,0.7-0.2
			c0.2-0.1,0.2-0.3,0.2-0.6c0-0.2-0.1-0.4-0.3-0.6c-0.2-0.1-0.4-0.2-0.8-0.2c-0.3,0-0.5,0-0.9,0.1L20,71.3l0.2-3.3h3.5v1.4h-2.1
			l-0.1,0.8c0.2,0,0.4-0.1,0.5-0.1S22.3,70.1,22.3,70.1z"/>
		<path fill="#FFFFFF" d="M31.3,74.2L31,73h-2l-0.3,1.2h-1.8l2-6.2h2.2l2,6.2H31.3z M30.7,71.7l-0.3-1c-0.1-0.2-0.1-0.5-0.2-0.9
			C30.1,69.4,30,69.2,30,69c0,0.1-0.1,0.4-0.2,0.7c-0.1,0.3-0.2,1-0.5,2L30.7,71.7L30.7,71.7z"/>
		<path fill="#FFFFFF" d="M33.8,74.2V68h1.7v4.8h2.4v1.3L33.8,74.2L33.8,74.2z"/>
		<path fill="#FFFFFF" d="M38.9,68H41c0.8,0,1.5,0.1,1.9,0.4c0.4,0.2,0.6,0.6,0.6,1.2c0,0.3-0.1,0.6-0.3,0.9
			c-0.2,0.2-0.4,0.4-0.7,0.5v0c0.4,0.1,0.7,0.3,0.8,0.5c0.2,0.2,0.3,0.5,0.3,0.9c0,0.6-0.2,1-0.6,1.3c-0.4,0.3-1,0.5-1.7,0.5h-2.4
			L38.9,68L38.9,68z M40.5,70.4H41c0.2,0,0.4,0,0.6-0.1c0.1-0.1,0.2-0.2,0.2-0.4c0-0.3-0.3-0.5-0.8-0.5h-0.5L40.5,70.4L40.5,70.4z
			 M40.5,71.6v1.3h0.6c0.5,0,0.8-0.2,0.8-0.7c0-0.2-0.1-0.4-0.2-0.5c-0.1-0.1-0.3-0.2-0.6-0.2H40.5z"/>
		<path fill="#FFFFFF" d="M50,68v3.7c0,0.8-0.2,1.4-0.7,1.9c-0.5,0.4-1.1,0.7-2,0.7c-0.8,0-1.5-0.2-1.9-0.6s-0.7-1.1-0.7-1.9V68h1.7
			v3.6c0,0.4,0.1,0.8,0.2,1s0.4,0.3,0.7,0.3c0.3,0,0.6-0.1,0.7-0.3c0.2-0.2,0.2-0.5,0.2-1V68H50L50,68z"/>
		<path fill="#FFFFFF" d="M54,74.2l-1.3-4.5h0c0.1,0.8,0.1,1.3,0.1,1.8v2.7h-1.5V68h2.2l1.3,4.4h0l1.3-4.4h2.2v6.2h-1.5v-2.7
			c0-0.1,0-0.3,0-0.5c0-0.2,0-0.6,0.1-1.3h0l-1.2,4.4L54,74.2L54,74.2z"/>
		<path fill="#FFFFFF" d="M63.7,72.3c0,0.4-0.1,0.7-0.3,1c-0.2,0.3-0.5,0.5-0.8,0.7c-0.4,0.2-0.8,0.2-1.3,0.2c-0.4,0-0.8,0-1-0.1
			c-0.3-0.1-0.6-0.2-0.9-0.3v-1.5c0.3,0.2,0.7,0.3,1,0.4c0.3,0.1,0.7,0.1,0.9,0.1c0.2,0,0.4,0,0.5-0.1c0.1-0.1,0.2-0.2,0.2-0.3
			c0-0.1,0-0.2-0.1-0.2s-0.1-0.1-0.2-0.2c-0.1-0.1-0.4-0.2-0.8-0.4c-0.4-0.2-0.7-0.4-0.9-0.5c-0.2-0.2-0.4-0.4-0.4-0.6
			c-0.1-0.2-0.1-0.5-0.1-0.8c0-0.6,0.2-1,0.6-1.3c0.4-0.3,1-0.5,1.7-0.5c0.6,0,1.3,0.1,2,0.4l-0.5,1.3c-0.6-0.3-1.1-0.4-1.5-0.4
			c-0.2,0-0.4,0-0.5,0.1c-0.1,0.1-0.1,0.2-0.1,0.3c0,0.1,0.1,0.2,0.2,0.3c0.1,0.1,0.5,0.3,1,0.5c0.5,0.2,0.9,0.5,1.1,0.8
			C63.6,71.5,63.7,71.9,63.7,72.3z"/>
		<path fill="#FFFFFF" d="M72.7,71.1c0,1-0.3,1.8-0.8,2.4c-0.5,0.5-1.3,0.8-2.2,0.8c-1,0-1.7-0.3-2.2-0.8c-0.5-0.5-0.8-1.3-0.8-2.4
			c0-1,0.3-1.8,0.8-2.4c0.5-0.5,1.3-0.8,2.2-0.8c1,0,1.7,0.3,2.2,0.8C72.4,69.2,72.7,70,72.7,71.1z M68.4,71.1
			c0,1.2,0.4,1.8,1.2,1.8c0.4,0,0.7-0.1,0.9-0.4c0.2-0.3,0.3-0.7,0.3-1.4c0-0.6-0.1-1.1-0.3-1.4c-0.2-0.3-0.5-0.4-0.9-0.4
			C68.8,69.3,68.4,69.9,68.4,71.1z"/>
		<path fill="#FFFFFF" d="M75.4,74.2h-1.6V68h3.7v1.3h-2v1.2h1.9v1.3h-1.9L75.4,74.2L75.4,74.2z"/>
		<path fill="#FFFFFF" d="M84.8,74.2h-4.5v-1.1l1.5-1.5c0.4-0.5,0.7-0.8,0.8-0.9c0.1-0.2,0.2-0.3,0.3-0.4C83,70.1,83,70,83,69.8
			c0-0.2-0.1-0.3-0.2-0.4c-0.1-0.1-0.3-0.1-0.4-0.1c-0.2,0-0.4,0.1-0.6,0.2c-0.2,0.1-0.4,0.3-0.7,0.5l-0.9-1.1
			c0.3-0.3,0.6-0.5,0.8-0.6c0.2-0.1,0.5-0.2,0.7-0.3c0.3-0.1,0.5-0.1,0.9-0.1c0.4,0,0.8,0.1,1.1,0.2c0.3,0.1,0.6,0.3,0.7,0.6
			c0.2,0.3,0.3,0.6,0.3,0.9c0,0.2,0,0.5-0.1,0.7c-0.1,0.2-0.2,0.4-0.3,0.6c-0.1,0.2-0.3,0.4-0.5,0.6c-0.2,0.2-0.7,0.6-1.3,1.3v0h2.3
			V74.2z"/>
		<path fill="#FFFFFF" d="M89.9,71.1c0,1.1-0.2,1.9-0.6,2.4c-0.4,0.5-0.9,0.8-1.7,0.8c-0.7,0-1.3-0.3-1.7-0.8
			c-0.4-0.5-0.6-1.3-0.6-2.4c0-1.1,0.2-1.9,0.6-2.4c0.4-0.5,0.9-0.8,1.7-0.8c0.7,0,1.3,0.3,1.7,0.8C89.7,69.2,89.9,70,89.9,71.1z
			 M87.1,71.1c0,0.7,0,1.2,0.1,1.4c0.1,0.3,0.2,0.4,0.4,0.4c0.2,0,0.4-0.1,0.4-0.4c0.1-0.3,0.1-0.7,0.1-1.4c0-0.7,0-1.2-0.1-1.4
			c-0.1-0.3-0.2-0.4-0.4-0.4c-0.2,0-0.4,0.1-0.4,0.4C87.1,69.9,87.1,70.4,87.1,71.1z"/>
		<path fill="#FFFFFF" d="M94.2,74.2h-1.7v-3.3c0-0.4,0-0.8,0-1.1c-0.1,0.1-0.2,0.3-0.4,0.4l-0.7,0.6l-0.9-1.1l2.1-1.7h1.5
			L94.2,74.2L94.2,74.2z"/>
		<path fill="#FFFFFF" d="M99.8,69.3c0,0.4-0.1,0.7-0.4,1c-0.2,0.3-0.6,0.5-1,0.6v0c1,0.1,1.5,0.6,1.5,1.5c0,0.6-0.2,1-0.7,1.4
			c-0.5,0.3-1.1,0.5-1.9,0.5c-0.3,0-0.6,0-0.9-0.1c-0.3,0-0.6-0.1-0.9-0.3v-1.4c0.3,0.1,0.5,0.2,0.8,0.3c0.3,0.1,0.5,0.1,0.8,0.1
			c0.4,0,0.6-0.1,0.8-0.2c0.2-0.1,0.3-0.3,0.3-0.5c0-0.2,0-0.3-0.1-0.4c-0.1-0.1-0.2-0.2-0.4-0.2c-0.2,0-0.4-0.1-0.8-0.1h-0.4v-1.3
			h0.4c0.8,0,1.3-0.2,1.3-0.7c0-0.2-0.1-0.3-0.2-0.4c-0.1-0.1-0.3-0.1-0.5-0.1c-0.4,0-0.8,0.1-1.2,0.4l-0.7-1.1
			c0.3-0.2,0.7-0.4,1-0.5c0.3-0.1,0.7-0.1,1.2-0.1c0.6,0,1.1,0.1,1.5,0.4C99.6,68.5,99.8,68.9,99.8,69.3z"/>
	</g>
</g>
</svg>
