<?xml version="1.0" encoding="utf-8"?>
<!-- Generator: Adobe Illustrator 17.1.0, SVG Export Plug-In . SVG Version: 6.00 Build 0)  -->
<!DOCTYPE svg PUBLIC "-//W3C//DTD SVG 1.1//EN" "http://www.w3.org/Graphics/SVG/1.1/DTD/svg11.dtd">
<svg version="1.1" id="Layer_1" xmlns="http://www.w3.org/2000/svg" xmlns:xlink="http://www.w3.org/1999/xlink" x="0px" y="0px"
	 viewBox="0 0 100 100" enable-background="new 0 0 100 100" xml:space="preserve">
<g>
	<path fill="#FFFFFF" d="M47.9,77.2c-0.9,0.7-0.8,1.6-11,1.5c-2,0.1-1-2.1-0.7-2.4c0.3-0.3,0.9-0.8,3.3-0.3c2.4,0.5,6.9,0.8,9.5-1.3
		c2.6-2.1,29.8-24.5,29.8-24.5l0.6,1.1L47.9,77.2z"/>
	<path fill="#FFFFFF" d="M93.5,40.5c0.2,0,0.5-0.9,0.5-0.9c1,0.6,1.3-0.5,1.7-1.3c0.4-0.7,1.5-0.9,1.5-1.2c0-0.3,1.9-2.6,2.6-3.4
		c0.7-0.9-0.4-2.8-1.8-4.5c-1.5-1.7-7.8-5-9.9-6.4c-2.2-1.4-3.8-0.9-5-1c-1.3,0-3.6,0.6-3.6,0.6s0.5-0.7,0.4-1.8
		c-0.5-1.9-1.8-2.6-2.4-2.7c-0.6-0.2-1.9,0-1.9,0c-2.1-1.1-4.5,1.7-5,2.4c-0.4,0.6-0.6,1.5-0.6,1.5c-0.2,0.3-0.2,0.7-0.2,0.7
		l-0.3,0.3v0.9v0.6l0.3,0.2L69.3,25l1.6,3.7c0,0,0.1,0.3-0.2,0.6c-0.8,0.5-0.9,1.6-2,3.3c-1.1,1.7-1.6,4.9-1.6,6.2
		c0,1.3,0.3,4.1,0.3,4.8s1,1.2,1.4,1.7C69.2,45.7,70,46,70,46c0,0.6,0.5,1.1,0.7,1.3c0.2,0.2,0,1.2,0,1.2s0.1,0,0.2-0.1
		c-0.2,0.1-1.3,0.7-0.7,1.1c0.6,0.4,0.6,1,0.6,1.1c0,0.1,0.3,0.3,0.3,0.3c-1,0-1,0.4-1.2,1c-0.2,0.6,0,1.4,0,1.4s0,1.9,0,2.6
		c0,0.7,0.8,1,0.8,1c0,0.9,0.5,2.1,0.5,2.1c0,0.5,0.9,0.9,1.6,0.9c0.7,0,0.9-1.1,0.9-1.1s0.7,0.2,1-0.3c0.3-0.5,1.6-1.1,1.6-1.1
		s0.5,0.2,0.6-0.4c0.2-2.1-0.4-3.5-0.4-3.5c0.3,0,0.3-1.8,0.3-2.6c0-0.9-0.6-0.8-0.6-0.8l-0.4-0.5c0.9-0.7,0.6-2.4,0.6-2.4
		c0.4-0.2,0.4-0.8,0.4-0.8l0.4,0.2c-0.3,5.4,2.8,6.4,2.8,6.4c0,0.5,4.7,5.2,5.2,5.7c0.5,0.5,1,0.3,1.2,0.6s0.8,0.5,0.8,0.5
		c-2.2,0.6-1.2,4.9-1.5,5.5s-0.6,2.9-0.6,2.9s-0.7,1.1-1.9,1.1c-1.5,0-2.1,1.3-2.1,1.3c-1.8,0.1-1.8,0.9-1.8,0.9
		c-1.4,0.7,2.1,10.1,2.4,10.7c0.2,0.6,0.9,0,0.9,0c0.8,0.1,1.1-0.7,1.1-0.7c2.4-0.2,2.2-2.7,2-3.6c-0.2-0.9-0.1-2.4-0.1-2.4
		s4.3-0.2,8.3-0.5c4.1-0.3,2.4-1.3,2.4-1.3c0.4-2-1.7-2.5-1.7-2.5c-0.2-0.7-2.5-0.4-2.5-0.4s0.5-0.7,1.6-1.6
		c1.1-0.9,3.3-3.9,3.3-3.9c3.1-1.3,2.5-4.2,2.5-4.2c0.3-1.2-0.2-1.9-0.2-1.9c0.4-0.6,0.3-1.6-0.1-2.3c-0.4-0.6-2.1-3.7-2.1-4.3
		c0-0.7-0.9-1.7-0.9-1.7c0.3-0.9-1.2-2.1-1.2-2.1c0.1-0.3-0.1-1.1-0.8-2.4c-0.7-1.3-2.6-1.7-2.6-1.7l0.1-0.3c1,0,1.8-1.1,1.7-1.6
		c-0.1-0.5-0.1-1.3-0.1-1.3C93.5,41.1,93.3,40.6,93.5,40.5z M78.2,37.5c0,0-1.8,1-2.8,1.5l-0.5-0.5v-1.2c0,0,0.5-0.2,0.3-0.4
		c-0.2-0.2-0.1-0.8-0.1-0.8s0.4-0.4,0.4-0.7l-0.1,0l-1.9-4.7l-0.6,0.4l-0.3-0.9l0.4-1.5c0,0,1-1,1.8-1.2l2,5.7L76,34.5l0.7,1.5
		l0.8-0.4l0.7,1.2L78.2,37.5L78.2,37.5z M85,33.8c-0.2,0.3-1.4,1.2-1.4,1.2c-1.1,0.7-3.3,1.5-3.3,1.5l-1.5-1l-0.1-1.2l1.9-0.8l0,0.6
		c1.1-0.1,2.3-0.7,2.3-0.7c-0.3-1.7-0.8-2.5-0.8-2.5c-0.3,0.2-1.8,0.7-1.8,0.7L80,29.9l2-0.6c-0.1-1.7-0.4-2.2-0.4-2.2
		c-0.8,0.5-2.1,0.8-2.1,0.8l0.2,0.7l-1.9,0.7l-0.5-1.4l0.8-1.2c1.9-0.4,4.1-1.3,4.4-1.2c0.3,0.1,1.2,0.2,1.3,0.5
		c0.3,1.2,0.4,3.1,0.4,3.1c-0.1,0.2-0.4,0.4-0.4,0.4l0.7,0.7C84.4,30.5,85.2,33.5,85,33.8z"/>
	<g>
		<path fill="#FFFFFF" d="M0,56.5V31.4h4.4c1.8,0,3.2,0.6,4.1,1.7s1.5,3.3,1.5,6.3v0.2c0,3-0.5,5.1-1.5,6.3c-1,1.1-2.3,1.7-4.1,1.7
			H2.9v8.9C2.9,56.5,0,56.5,0,56.5z M7.2,40.1V39c0-3.5-0.9-5.3-2.8-5.3H2.9v11.6h1.6C6.3,45.4,7.2,43.6,7.2,40.1z"/>
		<path fill="#FFFFFF" d="M20.6,56.5L19.5,50h-5.1l-1.1,6.5h-2.9l4.6-25.1h3.8l4.6,25.1H20.6z M17,35.1l-2.2,12.7h4.3L17,35.1z"/>
		<path fill="#FFFFFF" d="M26.7,31.4l3.6,20.9l3.6-20.9h2.9l-4.7,25.1h-3.6l-4.7-25.1C23.9,31.4,26.7,31.4,26.7,31.4z"/>
		<path fill="#FFFFFF" d="M42.5,45.2v9.1h6.2v2.3h-9.1V31.4h9v2.3h-6.1v9.1h5.6v2.3H42.5z"/>
		<path fill="#FFFFFF" d="M52.5,56.5V31.4h2.9v22.8h5.6v2.3C60.9,56.5,52.5,56.5,52.5,56.5z"/>
	</g>
</g>
</svg>
