<?xml version="1.0" encoding="utf-8"?>
<!-- Generator: Adobe Illustrator 17.1.0, SVG Export Plug-In . SVG Version: 6.00 Build 0)  -->
<!DOCTYPE svg PUBLIC "-//W3C//DTD SVG 1.1//EN" "http://www.w3.org/Graphics/SVG/1.1/DTD/svg11.dtd">
<svg version="1.1" id="Layer_1" xmlns="http://www.w3.org/2000/svg" xmlns:xlink="http://www.w3.org/1999/xlink" x="0px" y="0px"
	 viewBox="0 0 100 100" enable-background="new 0 0 100 100" xml:space="preserve">
<g>
	<path fill="#FFFFFF" d="M30.5,25.9h4.3c2.5,0,4.1,1.4,4.1,3.6v0c0,2.4-2,3.7-4.3,3.7h-2.2v3.5h-1.9V25.9z M34.7,31.5
		c1.4,0,2.3-0.8,2.3-1.9v0c0-1.3-0.9-1.9-2.3-1.9h-2.2v3.9H34.7z"/>
	<path fill="#FFFFFF" d="M40.9,25.9H49v1.7h-6.2v2.8h5.5v1.7h-5.5V35H49v1.7h-8.1V25.9z"/>
	<path fill="#FFFFFF" d="M51.3,25.9h8.1v1.7h-6.2v2.8h5.5v1.7h-5.5V35h6.2v1.7h-8.1V25.9z"/>
	<path fill="#FFFFFF" d="M61.7,25.9H66c2.5,0,4.1,1.4,4.1,3.6v0c0,2.4-2,3.7-4.3,3.7h-2.2v3.5h-1.9V25.9z M65.8,31.5
		c1.4,0,2.3-0.8,2.3-1.9v0c0-1.3-0.9-1.9-2.3-1.9h-2.2v3.9H65.8z"/>
	<path fill="#FFFFFF" d="M24.8,44.4h1.8l4.8,11h-2l-1.1-2.6h-5.1L22,55.4h-2L24.8,44.4z M27.5,51l-1.9-4.3L23.8,51H27.5z"/>
	<path fill="#FFFFFF" d="M33.2,44.5h1.9v9.1h5.7v1.7h-7.6V44.5z"/>
	<path fill="#FFFFFF" d="M42.8,44.5h1.9v9.1h5.7v1.7h-7.6V44.5z"/>
	<path fill="#FFFFFF" d="M57.1,44.5h2l3.3,5.1l3.3-5.1h2v10.9h-1.9v-7.8l-3.4,5.1h-0.1L59,47.6v7.8h-1.9V44.5z"/>
	<path fill="#FFFFFF" d="M73.8,51.1l-4.3-6.6h2.3l3,4.8l3.1-4.8H80L75.7,51v4.3h-1.9V51.1z"/>
	<path fill="#FFFFFF" d="M27.9,72.4l1.1-1.4c1,0.9,2.1,1.4,3.4,1.4c1.2,0,1.9-0.5,1.9-1.4v0c0-0.8-0.4-1.2-2.5-1.7
		c-2.3-0.6-3.6-1.2-3.6-3.2v0c0-1.9,1.6-3.2,3.7-3.2c1.6,0,2.8,0.5,3.9,1.4l-1,1.4c-1-0.7-2-1.1-3-1.1c-1.1,0-1.8,0.6-1.8,1.3v0
		c0,0.8,0.5,1.2,2.6,1.7c2.3,0.6,3.5,1.4,3.5,3.2v0c0,2-1.6,3.2-3.9,3.2C30.8,74.1,29.2,73.6,27.9,72.4z"/>
	<path fill="#FFFFFF" d="M38.7,63.1h1.9V74h-1.9V63.1z"/>
	<path fill="#FFFFFF" d="M46.2,64.9h-3.4v-1.8h8.8v1.8h-3.4V74h-1.9V64.9z"/>
	<path fill="#FFFFFF" d="M53.6,63.1h8.1v1.7h-6.2v2.8H61v1.7h-5.5v2.9h6.2V74h-8.1V63.1z"/>
	<path fill="#FFFFFF" d="M63.3,72.4l1.1-1.4c1,0.9,2.1,1.4,3.4,1.4c1.2,0,1.9-0.5,1.9-1.4v0c0-0.8-0.4-1.2-2.5-1.7
		c-2.3-0.6-3.6-1.2-3.6-3.2v0c0-1.9,1.6-3.2,3.7-3.2c1.6,0,2.8,0.5,3.9,1.4l-1,1.4c-1-0.7-2-1.1-3-1.1c-1.1,0-1.8,0.6-1.8,1.3v0
		c0,0.8,0.5,1.2,2.6,1.7c2.3,0.6,3.5,1.4,3.5,3.2v0c0,2-1.6,3.2-3.9,3.2C66.1,74.1,64.6,73.6,63.3,72.4z"/>
</g>
</svg>
