<?xml version="1.0" encoding="utf-8"?>
<!-- Generator: Adobe Illustrator 17.1.0, SVG Export Plug-In . SVG Version: 6.00 Build 0)  -->
<!DOCTYPE svg PUBLIC "-//W3C//DTD SVG 1.1//EN" "http://www.w3.org/Graphics/SVG/1.1/DTD/svg11.dtd">
<svg version="1.1" id="Layer_1" xmlns="http://www.w3.org/2000/svg" xmlns:xlink="http://www.w3.org/1999/xlink" x="0px" y="0px"
	 viewBox="0 0 100 100" enable-background="new 0 0 100 100" xml:space="preserve">
<g>
	<g>
		<g>
			<path fill="#FFFFFF" d="M59.8,37c-0.8,0.8-2.2,2.2-2.2,2.2c-0.1,0.1-0.2,0.3-0.2,0.5l0.1,5.1c0,0.2,0.1,0.4,0.2,0.5l2.1,2
				c0.1,0.1,0.4,0.2,0.5,0.2l5.1-0.1c0.2,0,0.4-0.1,0.5-0.2l2-2c0.1-0.1,0.2-0.3,0.2-0.5L68,39.6c0-0.2-0.1-0.4-0.2-0.5l-2-1.9
				c-0.1-0.1-0.3-0.2-0.5-0.2C65.3,36.9,61.7,36.8,59.8,37z M65.7,44.2c-0.3,0.2-0.4,0.8-0.8,0.8c-1.4,0.2-2.7,0.4-4.1,0.2
				c-0.4-0.1-0.7-0.4-0.8-0.8c-0.3-1.4-0.2-3.7-0.2-3.7c0-0.2,0.1-0.4,0.1-0.6c0,0,0.3-0.5,0.7-0.5c1.4-0.3,3.8-0.3,3.8-0.3
				c0.2,0,0.4,0.1,0.5,0.2l0.5,0.4c0.1,0.1,0.2,0.3,0.2,0.5C65.6,40.4,65.7,42.8,65.7,44.2z"/>
		</g>
		<g>
			<path fill="#FFFFFF" d="M31.2,44.2c-0.2,0.4-0.5,0.7-0.8,0.8c-1.4,0.4-3.7,0.3-3.7,0.3c-0.2,0-0.4-0.1-0.5-0.2l-0.5-0.4
				c-0.1-0.1-0.2-0.3-0.2-0.5l-0.2-6.9c0-0.2-0.1-0.3-0.3-0.3l-1.8,0c-0.2,0-0.3,0.1-0.3,0.3l0.1,7.7c0,0.2,0.1,0.4,0.2,0.5l2,1.9
				c0.1,0.1,0.3,0.2,0.5,0.2h5.1c0.2,0,0.4-0.1,0.5-0.2l2-2.1c0.1-0.1,0.2-0.4,0.2-0.5l0-7.5c0-0.2-0.1-0.3-0.3-0.3h-2
				c-0.2,0-0.3,0.1-0.3,0.3C31.1,37.2,31.2,41.7,31.2,44.2z"/>
		</g>
		<g>
			<path fill="#FFFFFF" d="M71.2,37c-0.8-0.1-2.1-0.1-2.1-0.1c-0.2,0-0.3,0.1-0.3,0.3l0,10.1c0,0.2,0.1,0.3,0.3,0.3h2
				c0.2,0,0.3-0.1,0.3-0.3v-2.6c0-0.2,0.1-0.3,0.3-0.3l4.3-0.2c0.2,0,0.4,0.1,0.5,0.2c0,0,0.4,0.3,0.5,0.7c0.1,0.8,0,2.2,0,2.2
				c0,0.2,0.1,0.3,0.3,0.3l1.8,0c0.2,0,0.3-0.1,0.3-0.3l0.1-2.8c0-0.2-0.1-0.4-0.2-0.5l-0.8-0.8c-0.1-0.1-0.1-0.3,0-0.4l0.8-0.9
				c0.1-0.1,0.2-0.3,0.2-0.5v-1.9c0-0.2-0.1-0.4-0.2-0.5l-2-1.9c-0.1-0.1-0.3-0.2-0.5-0.2C76.7,36.9,73.2,36.8,71.2,37z M77,41
				c-0.2,0.3-0.6,0.6-0.6,0.6c-0.1,0.1-0.4,0.2-0.5,0.2L71.6,42c-0.2,0-0.3-0.1-0.3-0.3l-0.1-2c0-0.2,0.1-0.3,0.3-0.3l4.3-0.2
				c0.2,0,0.4,0.1,0.5,0.2c0,0,0.4,0.3,0.7,0.6C77.1,40.3,77,40.7,77,41z"/>
		</g>
		<g>
			<path fill="#FFFFFF" d="M36.8,37c-0.8-0.1-2.1-0.1-2.1-0.1c-0.2,0-0.3,0.1-0.3,0.3l0,10.1c0,0.2,0.1,0.3,0.3,0.3h1.9
				c0.2,0,0.3-0.1,0.3-0.3v-2.6c0-0.2,0.1-0.3,0.3-0.3l5.2-0.2c0.2,0,0.4-0.1,0.5-0.2l2-2c0.1-0.1,0.2-0.4,0.2-0.5v-1.9
				c0-0.2-0.1-0.4-0.2-0.5l-2.1-1.9c-0.1-0.1-0.3-0.2-0.5-0.2C42.2,36.9,38.7,36.8,36.8,37z M42.6,41c-0.2,0.3-0.6,0.6-0.6,0.6
				c-0.1,0.1-0.4,0.2-0.5,0.2L37.2,42c-0.2,0-0.3-0.1-0.3-0.3l-0.1-2c0-0.2,0.1-0.3,0.3-0.3l4.3-0.2c0.2,0,0.4,0.1,0.5,0.2
				C42,39.5,42.8,40.2,42.6,41z"/>
		</g>
		<g>
			<path fill="#FFFFFF" d="M48.3,37c-0.8-0.1-2.1-0.1-2.1-0.1c-0.2,0-0.3,0.1-0.3,0.3c0,0-0.2,2.5-0.1,3.9c0.2,2.2,0.1,6.2,0.1,6.2
				c0,0.2,0.1,0.3,0.3,0.3h1.9c0.2,0,0.3-0.1,0.3-0.3l0.1-2.6c0-0.2,0.1-0.3,0.3-0.3l5.1-0.2c0.2,0,0.4-0.1,0.5-0.2l2-2
				c0.1-0.1,0.2-0.4,0.2-0.5v-1.9c0-0.2-0.1-0.4-0.2-0.5l-2-1.9c-0.1-0.1-0.3-0.2-0.5-0.2C53.8,36.9,50.3,36.8,48.3,37z M54.1,41
				c-0.2,0.3-0.6,0.6-0.6,0.6c-0.1,0.1-0.4,0.2-0.5,0.2L48.7,42c-0.2,0-0.3-0.1-0.3-0.3l-0.1-2c0-0.2,0.1-0.3,0.3-0.3l4.3-0.2
				c0.2,0,0.4,0.1,0.5,0.2C53.4,39.5,54.3,40.2,54.1,41z"/>
		</g>
		<g>
			<path fill="#FFFFFF" d="M10.6,39.5c0,0.8,0.1,2.2,0.1,2.2c0,0.2,0.1,0.4,0.2,0.5l2.1,2.1c0.1,0.1,0.4,0.2,0.5,0.2l5.1-0.3
				c0.2,0,0.2,0.1,0.1,0.2c0,0-0.3,0.5-0.6,0.5c-2.5,0.3-7.2,0.3-7.2,0.3c-0.2,0-0.3,0.1-0.3,0.3v1.8c0,0.2,0.1,0.3,0.3,0.3h7.6
				c0.2,0,0.4-0.1,0.5-0.2l2-2.1c0.1-0.1,0.2-0.3,0.2-0.5L21.3,42c0-0.2-0.2-0.3-0.3-0.3c0,0-4.6,0.3-7.1,0.1
				c-0.4,0-0.7-0.4-0.9-0.7c-0.3-0.7,0.6-1.5,0.6-1.5c0.1-0.1,0.3-0.2,0.5-0.2c0,0,2.7-0.1,4.3-0.2c1,0,2.5,0.1,2.5,0.1
				c0.2,0,0.3-0.1,0.3-0.3v-1.9c0-0.2-0.1-0.3-0.3-0.3L13.4,37c-0.2,0-0.4,0.1-0.5,0.2C12.9,37.2,11.4,38.7,10.6,39.5z"/>
		</g>
		<g>
			<path fill="#FFFFFF" d="M89.3,36.9c-2.4,0-4.8,0-7.2,0c-0.6,0-1.6,0-1.6,0c-0.2,0-0.3,0.1-0.3,0.3v2c0,0.2,0.1,0.3,0.3,0.3h2.6
				c0.2,0,0.3,0.1,0.3,0.3l0.2,7.5c0,0.2,0.1,0.3,0.3,0.3h1.9c0.2,0,0.3-0.1,0.3-0.3L86,39.7c0-0.2,0.1-0.3,0.3-0.3l2.7,0
				c0.2,0,0.3-0.1,0.3-0.3C89.3,39.1,89.3,37.7,89.3,36.9z"/>
		</g>
	</g>
	<g>
		<g>
			<path fill="#FFFFFF" d="M2.5,51c-0.8,0.1-2.2-0.1-2.2-0.1C0.1,50.9,0,51,0,51.2l0,10.1c0,0.2,0.1,0.3,0.3,0.3H8
				c0.2,0,0.4-0.1,0.5-0.2l2-2.1c0.1-0.1,0.2-0.3,0.2-0.5l-0.1-5.1c0-0.2-0.1-0.4-0.2-0.5l-2.1-2c-0.1-0.1-0.4-0.2-0.5-0.2
				C7.8,50.9,4.3,51,2.5,51z M8.3,58.1c-0.3,0.3-0.6,0.7-0.6,0.7C7.6,58.9,7.4,59,7.3,59l-4.3,0.2c-0.2,0-0.3-0.1-0.3-0.3l-0.2-5.2
				c0-0.2,0.1-0.3,0.3-0.3c0,0,2.9-0.3,4.6,0c0.3,0,0.7,0.4,0.7,0.7C8.3,55.5,8.2,56.7,8.3,58.1z"/>
		</g>
		<g>
			<path fill="#FFFFFF" d="M45.1,51c-1,0.7-2.3,2.2-2.3,2.2c-0.1,0.1-0.2,0.4-0.2,0.5l0.1,5.2c0,0.2,0.1,0.4,0.2,0.5l2,2
				c0.1,0.1,0.4,0.2,0.5,0.2h5.2c0.2,0,0.4-0.1,0.5-0.2l1.9-2.1c0.1-0.1,0.2-0.3,0.2-0.5l-0.1-5.1c0-0.2-0.1-0.4-0.2-0.5L51,51
				c-0.1-0.1-0.4-0.2-0.5-0.2C50.5,50.9,46.9,51,45.1,51z M51,58.1c-0.3,0.3-0.6,0.7-0.6,0.7C50.3,58.9,50,59,49.9,59l-3.5,0.2
				c-0.2,0-0.4-0.1-0.5-0.2l-0.5-0.4c-0.1-0.1-0.2-0.3-0.3-0.5c0,0-0.3-2.5-0.1-3.8c0.1-0.4,0.5-0.7,0.5-0.7
				c0.1-0.1,0.4-0.2,0.5-0.2c0,0,2.4-0.3,3.7-0.1c0.4,0.1,0.7,0.5,0.8,0.8C51,55.5,50.8,56.7,51,58.1z"/>
		</g>
		<g>
			<path fill="#FFFFFF" d="M33.6,51c-0.8,0.1-2.2-0.1-2.2-0.1c-0.2,0-0.3,0.1-0.3,0.3l0,10.1c0,0.2,0.1,0.3,0.3,0.3h2
				c0.2,0,0.3-0.1,0.3-0.3v-2.5c0-0.2,0.1-0.3,0.3-0.3c0,0,2.9-0.3,4.6-0.1c0.4,0,0.7,0.4,0.8,0.7c0.2,0.9,0.1,2.3,0.1,2.3
				c0,0.2,0.1,0.3,0.3,0.3h1.8c0.2,0,0.3-0.1,0.3-0.3c0,0,0.2-2-0.1-3c-0.1-0.6-0.8-1.1-0.8-1.1c-0.1-0.1-0.2-0.3-0.1-0.4l0.8-0.8
				c0.1-0.1,0.2-0.4,0.2-0.5l0-1.8c0-0.2-0.1-0.4-0.3-0.5l-2-2.1c-0.1-0.1-0.4-0.2-0.5-0.2C39,50.9,35.5,51,33.6,51z M39.3,54.9
				c-0.1,0.4-0.5,0.6-0.5,0.6c-0.1,0.1-0.4,0.2-0.5,0.2l-4.3,0.3c-0.2,0-0.3-0.1-0.3-0.3l0-2c0-0.2,0.1-0.3,0.3-0.3l4.3-0.1
				c0.2,0,0.4,0.1,0.5,0.2C38.6,53.5,39.5,54.2,39.3,54.9z"/>
		</g>
		<g>
			<path fill="#FFFFFF" d="M11.5,50.8c0.1,2.6-0.1,5.3,0.1,7.9c0,0.9-0.1,2.5-0.1,2.5c0,0.2,0.1,0.3,0.3,0.3h8.4
				c0.2,0,0.3-0.1,0.3-0.3v-2c0-0.2-0.1-0.3-0.3-0.3l-5.9,0.2c-0.2,0-0.3-0.1-0.3-0.3v-0.3c0-0.2,0.1-0.3,0.3-0.3l5.9-0.1
				c0.2,0,0.3-0.1,0.3-0.3v-2c0-0.2-0.1-0.3-0.3-0.3l-6,0.3c-0.2,0-0.3-0.1-0.3-0.3l0-2c0-0.2,0.1-0.3,0.3-0.3l6.1-0.1
				c0.2,0,0.3-0.1,0.3-0.3v-1.9c0-0.2-0.1-0.3-0.3-0.3c0,0-3.5-0.1-5.4,0.1C13.8,51,12.6,50.9,11.5,50.8z"/>
		</g>
		<g>
			<path fill="#FFFFFF" d="M24.5,50.9c-1.1,0-2.9-0.1-2.9-0.1c-0.2,0-0.3,0.1-0.3,0.3v2c0,0.2,0.1,0.3,0.3,0.3h2.6
				c0.2,0,0.3,0.1,0.3,0.3l0.2,7.5c0,0.2,0.1,0.3,0.3,0.3h1.9c0.2,0,0.3-0.1,0.3-0.3L27,53.6c0-0.2,0.1-0.3,0.3-0.3H30
				c0.2,0,0.3-0.1,0.3-0.3v-1.9c0-0.2-0.1-0.3-0.3-0.3C30,50.8,26.5,50.7,24.5,50.9z"/>
		</g>
		<g>
			<path fill="#FFFFFF" d="M57.3,50.9c-1.1,0-2.8-0.1-2.8-0.1c-0.2,0-0.3,0.1-0.3,0.3l0,2c0,0.2,0.1,0.3,0.3,0.3H57
				c0.2,0,0.3,0.1,0.3,0.3l0.2,5.1c0,0.2-0.1,0.3-0.3,0.3l-2.7,0.1c-0.2,0-0.3,0.1-0.3,0.3v1.8c0,0.2,0.1,0.3,0.3,0.3h8.4
				c0.2,0,0.3-0.1,0.3-0.3v-2c0-0.2-0.1-0.3-0.3-0.3h-2.6c-0.2,0-0.3-0.1-0.3-0.3l-0.2-5.1c0-0.2,0.1-0.3,0.3-0.3h2.7
				c0.2,0,0.3-0.1,0.3-0.3l0.1-1.9c0-0.2-0.1-0.3-0.3-0.3C62.9,50.8,59.2,50.7,57.3,50.9z"/>
		</g>
		<g>
			<path fill="#FFFFFF" d="M67.2,50.9c-1.1,0-2.9-0.1-2.9-0.1c-0.2,0-0.3,0.1-0.3,0.3v2c0,0.2,0.1,0.3,0.3,0.3h2.5
				c0.2,0,0.3,0.1,0.3,0.3c0,0,0.3,4.8,0.3,7.3c0,0.2,0,0.2,0,0.2c-0.1,0.2,0,0.3,0.2,0.3h1.9c0.2,0,0.3-0.1,0.3-0.3l-0.1-7.6
				c0-0.2,0.1-0.3,0.3-0.3h2.7c0.2,0,0.3-0.1,0.3-0.3v-1.9c0-0.2-0.1-0.3-0.3-0.3C72.7,50.8,69.1,50.7,67.2,50.9z"/>
		</g>
		<g>
			<path fill="#FFFFFF" d="M100,53.3c0-0.8,0-2.2,0-2.2c0-0.2-0.1-0.3-0.3-0.3l-8.4,0c-0.2,0-0.3,0.1-0.3,0.3v2
				c0,0.2,0.1,0.3,0.3,0.3h2.5c0.2,0,0.3,0.1,0.3,0.3l0.3,5.1c0,0.2-0.1,0.3-0.3,0.3l-2.7,0.1c-0.2,0-0.3,0.1-0.3,0.3L91,61.2
				c0,0.2,0.1,0.3,0.3,0.3h8.4c0.2,0,0.3-0.1,0.3-0.3v-2c0-0.2-0.1-0.3-0.3-0.3h-2.5c-0.2,0-0.3-0.1-0.3-0.3l-0.3-5.1
				c0-0.2,0.1-0.3,0.3-0.3C96.9,53.3,98.8,53.3,100,53.3z"/>
		</g>
		<g>
			<path fill="#FFFFFF" d="M84.3,53.3c-1.2-0.7-3-2.2-3-2.2C81.2,51,81,51,80.8,51L79,50.9c-0.2,0-0.3,0.1-0.3,0.3l0,10.1
				c0,0.2,0.1,0.3,0.3,0.3l1.9,0.1c0.2,0,0.3-0.1,0.3-0.3c0,0,0.1-1.6,0.1-2.5c-0.1-1.4-0.2-3.9-0.2-3.9c0-0.2,0.1-0.2,0.2-0.1
				l2.8,1.8c0.1,0.1,0.4,0.1,0.5,0l2.8-2c0.1-0.1,0.2,0,0.3,0.1l0.1,6.7c0,0.2,0.1,0.3,0.3,0.3h1.9c0.2,0,0.3-0.1,0.3-0.3
				c0,0,0.1-4-0.1-6.2c-0.1-1.4,0.1-3.9,0.1-3.9c0-0.2-0.1-0.3-0.3-0.3h-2c-0.2,0-0.4,0.1-0.5,0.2C87.4,51,85.5,52.6,84.3,53.3z"/>
		</g>
		<g>
			<path fill="#FFFFFF" d="M73.8,61.5c0.3,0,0.5,0,0.5,0c0.2,0,0.3,0.1,0.3,0.3v1.1c0,0.2,0.1,0.2,0.3,0.2l1.2-0.6
				c0.1-0.1,0.2-0.3,0.2-0.4l0.1-2.6c0-0.2-0.1-0.3-0.3-0.3h-2c-0.2,0-0.3,0.1-0.3,0.3C73.7,59.4,73.6,60.7,73.8,61.5z"/>
		</g>
	</g>
</g>
</svg>
